<?xml version="1.0" standalone="no"?>
<!DOCTYPE svg PUBLIC "-//W3C//DTD SVG 1.1//EN" "http://www.w3.org/Graphics/SVG/1.1/DTD/svg11.dtd" >
<svg xmlns="http://www.w3.org/2000/svg" xmlns:xlink="http://www.w3.org/1999/xlink" version="1.1">
<metadata>
Created by FontForge 20190801 at Tue Jan  8 23:05:12 2019
 By Jimmy Wärting
Maison Neue is the thoroughly reworked version of our early Maison typeface family. While the original version was constructed on geometric principles, Maison Neue has now been meticulously redrawn and extended. Paying particular attention to harmony, rhythm and flow, the new typeface also accounts for up-to-date display and reproduction technologies to create a distinctly contemporary grotesque, with a classic touch. The whole family contains 40 styles thus far; each includes an extended Latin character set and a variety of OpenType features.
</metadata>
<defs>
<font id="MaisonNeue-Light" horiz-adv-x="650" >
  <font-face 
    font-family="Maison Neue Light"
    font-weight="300"
    font-stretch="normal"
    units-per-em="1000"
    panose-1="2 11 3 4 4 0 0 0 0 0"
    ascent="730"
    descent="-270"
    x-height="530"
    cap-height="700"
    bbox="-645 -300 2129 998"
    underline-thickness="50"
    underline-position="-120"
    unicode-range="U+000D-FEFF"
  />
<missing-glyph horiz-adv-x="686" 
d="M60 -5v423c0 171 131 292 292 292c161 2 297 -123 294 -292v-423h-28l-65 65l-68 -65l-63 65l-71 -65l-69 65l-63 -65l-67 65l-66 -65h-26zM160 300l63 63l64 -63l14 14l-64 63l64 64l-14 14l-64 -64l-63 64l-14 -14l63 -64l-63 -63zM420 300l63 63l64 -63l14 14l-64 63
l64 64l-14 14l-64 -64l-63 64l-14 -14l63 -64l-63 -63z" />
    <glyph glyph-name="W_W_W" unicode="WWW" horiz-adv-x="2149" 
d="M154 0l-134 700h63l114 -602h2l189 602h58l189 -602h2l189 602h58l189 -602h2l190 602h58l189 -602h2l189 602h58l189 -602h2l114 602h63l-134 -700h-73l-189 598h-2l-188 -598h-60l-188 598h-2l-189 -598h-59l-189 598h-2l-188 -598h-60l-188 598h-2l-189 -598h-73z" />
    <glyph glyph-name="fi" unicode="fi" horiz-adv-x="503" 
d="M365 698h76v-74h-76v74zM169 530h269v-530h-58v478h-211v-478h-58v478h-89v52h89v61c0 65 41 105 110 105h72v-54h-66c-40 0 -58 -18 -58 -59v-53z" />
    <glyph glyph-name="fl" unicode="fl" horiz-adv-x="508" 
d="M380 730h58v-730h-58v478h-211v-478h-58v478h-89v52h89v61c0 65 41 105 110 105h72v-54h-66c-40 0 -58 -18 -58 -59v-53h211v200z" />
    <glyph glyph-name="w_w_w" unicode="www" horiz-adv-x="1787" 
d="M153 0l-126 530h58l102 -441h2l148 441h55l148 -441h2l148 441h54l149 -441h2l148 441h54l149 -441h2l148 441h54l148 -441h2l103 441h57l-125 -530h-57l-154 457h-2l-154 -457h-43l-154 457h-2l-154 -457h-42l-155 457h-2l-154 -457h-42l-155 457h-2l-154 -457h-56z" />
    <glyph glyph-name=".notdef" horiz-adv-x="686" 
d="M60 -5v423c0 171 131 292 292 292c161 2 297 -123 294 -292v-423h-28l-65 65l-68 -65l-63 65l-71 -65l-69 65l-63 -65l-67 65l-66 -65h-26zM160 300l63 63l64 -63l14 14l-64 63l64 64l-14 14l-64 -64l-63 64l-14 -14l63 -64l-63 -63zM420 300l63 63l64 -63l14 14l-64 63
l64 64l-14 14l-64 -64l-63 64l-14 -14l63 -64l-63 -63z" />
    <glyph glyph-name="NULL" horiz-adv-x="0" 
 />
    <glyph glyph-name="CR" unicode="&#xd;" horiz-adv-x="361" 
 />
    <glyph glyph-name="space" unicode=" " horiz-adv-x="274" 
 />
    <glyph glyph-name="A" unicode="A" horiz-adv-x="583" 
d="M514 0l-53 149h-338l-54 -149h-64l257 700h60l256 -700h-64zM142 203h299l-148 414h-2z" />
    <glyph glyph-name="Aacute" unicode="&#xc1;" horiz-adv-x="583" 
d="M514 0l-53 149h-338l-54 -149h-64l257 700h60l256 -700h-64zM142 203h299l-148 414h-2zM254 760l69 110h82l-96 -110h-55z" />
    <glyph glyph-name="Abreve" unicode="&#x102;" horiz-adv-x="583" 
d="M514 0l-53 149h-338l-54 -149h-64l257 700h60l256 -700h-64zM142 203h299l-148 414h-2zM177 861h38c7 -37 34 -59 78 -59c43 0 70 22 77 59h38c-4 -68 -47 -111 -115 -111c-69 0 -113 43 -116 111z" />
    <glyph glyph-name="uni01CD" unicode="&#x1cd;" horiz-adv-x="583" 
d="M514 0l-53 149h-338l-54 -149h-64l257 700h60l256 -700h-64zM142 203h299l-148 414h-2zM363 864l37 -29l-67 -85h-82l-67 85l37 29l71 -88z" />
    <glyph glyph-name="Acircumflex" unicode="&#xc2;" horiz-adv-x="583" 
d="M514 0l-53 149h-338l-54 -149h-64l257 700h60l256 -700h-64zM142 203h299l-148 414h-2zM400 769l-37 -29l-71 89l-71 -89l-37 29l67 85h82z" />
    <glyph glyph-name="uni1EAC" unicode="&#x1eac;" horiz-adv-x="583" 
d="M514 0l-53 149h-338l-54 -149h-64l257 700h60l256 -700h-64zM142 203h299l-148 414h-2zM400 769l-37 -29l-71 89l-71 -89l-37 29l67 85h82zM250 -132v83h84v-83h-84z" />
    <glyph glyph-name="Adieresis" unicode="&#xc4;" horiz-adv-x="583" 
d="M514 0l-53 149h-338l-54 -149h-64l257 700h60l256 -700h-64zM142 203h299l-148 414h-2zM164 750v83h84v-83h-84zM336 750v83h84v-83h-84z" />
    <glyph glyph-name="uni01DE" unicode="&#x1de;" horiz-adv-x="583" 
d="M514 0l-53 149h-338l-54 -149h-64l257 700h60l256 -700h-64zM142 203h299l-148 414h-2zM164 750v83h84v-83h-84zM336 750v83h84v-83h-84zM166 873v48h252v-48h-252z" />
    <glyph glyph-name="uni1EA0" unicode="&#x1ea0;" horiz-adv-x="583" 
d="M514 0l-53 149h-338l-54 -149h-64l257 700h60l256 -700h-64zM142 203h299l-148 414h-2zM250 -132v83h84v-83h-84z" />
    <glyph glyph-name="Agrave" unicode="&#xc0;" horiz-adv-x="583" 
d="M514 0l-53 149h-338l-54 -149h-64l257 700h60l256 -700h-64zM142 203h299l-148 414h-2zM274 760l-96 110h82l69 -110h-55z" />
    <glyph glyph-name="Amacron" unicode="&#x100;" horiz-adv-x="583" 
d="M514 0l-53 149h-338l-54 -149h-64l257 700h60l256 -700h-64zM142 203h299l-148 414h-2zM166 760v48h252v-48h-252z" />
    <glyph glyph-name="Aogonek" unicode="&#x104;" horiz-adv-x="583" 
d="M514 0l-53 149h-338l-54 -149h-64l257 700h60l256 -700h-64zM142 203h299l-148 414h-2zM439 -115c0 44 38 91 101 127l32 -12c-55 -31 -82 -65 -82 -103c0 -24 13 -36 38 -36c19 0 39 6 60 19l19 -46c-28 -16 -57 -24 -86 -24c-52 0 -82 27 -82 75z" />
    <glyph glyph-name="Aring" unicode="&#xc5;" horiz-adv-x="583" 
d="M514 0l-53 149h-338l-54 -149h-64l257 700h60l256 -700h-64zM142 203h299l-148 414h-2zM178 770c0 61 47 107 114 107s114 -46 114 -107c0 -63 -49 -108 -114 -108s-114 45 -114 108zM362 770c0 40 -30 70 -70 70c-41 0 -70 -30 -70 -70c0 -41 29 -70 70 -70
c40 0 70 29 70 70z" />
    <glyph glyph-name="Aringacute" unicode="&#x1fa;" horiz-adv-x="583" 
d="M514 0l-53 149h-338l-54 -149h-64l257 700h60l256 -700h-64zM142 203h299l-148 414h-2zM178 770c0 61 47 107 114 107s114 -46 114 -107c0 -63 -49 -108 -114 -108s-114 45 -114 108zM362 770c0 40 -30 70 -70 70c-41 0 -70 -30 -70 -70c0 -41 29 -70 70 -70
c40 0 70 29 70 70zM254 867l69 110h82l-96 -110h-55z" />
    <glyph glyph-name="Atilde" unicode="&#xc3;" horiz-adv-x="583" 
d="M514 0l-53 149h-338l-54 -149h-64l257 700h60l256 -700h-64zM142 203h299l-148 414h-2zM282 778c-24 12 -35 18 -50 18c-20 0 -32 -12 -37 -36h-36c4 52 32 83 76 83c23 0 41 -8 66 -23c24 -12 35 -18 50 -18c20 0 32 12 36 36h37c-4 -52 -32 -83 -76 -83
c-23 0 -41 8 -66 23z" />
    <glyph glyph-name="AE" unicode="&#xc6;" horiz-adv-x="847" 
d="M790 642h-291v-253h263v-56h-263v-275h291v-58h-352v154h-296l-69 -154h-68l316 700h469v-58zM167 211h271v431h-78z" />
    <glyph glyph-name="AEacute" unicode="&#x1fc;" horiz-adv-x="847" 
d="M790 642h-291v-253h263v-56h-263v-275h291v-58h-352v154h-296l-69 -154h-68l316 700h469v-58zM167 211h271v431h-78zM394 760l69 110h82l-96 -110h-55z" />
    <glyph glyph-name="B" unicode="B" horiz-adv-x="632" 
d="M91 0v700h254c127 0 205 -67 205 -176c0 -73 -36 -128 -96 -149v-2c75 -20 122 -83 122 -170c0 -133 -82 -203 -242 -203h-243zM152 396h180c103 0 157 42 157 125c0 79 -53 121 -154 121h-183v-246zM152 58h175c128 0 188 45 188 145c0 95 -56 138 -183 138h-180v-283z
" />
    <glyph glyph-name="uni1E04" unicode="&#x1e04;" horiz-adv-x="632" 
d="M91 0v700h254c127 0 205 -67 205 -176c0 -73 -36 -128 -96 -149v-2c75 -20 122 -83 122 -170c0 -133 -82 -203 -242 -203h-243zM152 396h180c103 0 157 42 157 125c0 79 -53 121 -154 121h-183v-246zM152 58h175c128 0 188 45 188 145c0 95 -56 138 -183 138h-180v-283z
M272 -132v83h84v-83h-84z" />
    <glyph glyph-name="C" unicode="C" horiz-adv-x="647" 
d="M47 350c0 218 117 365 294 365c143 0 244 -92 267 -240l-61 -11c-21 124 -94 193 -206 193c-141 0 -233 -120 -233 -307c0 -188 91 -307 233 -307c117 0 189 72 206 207l63 -9c-17 -160 -118 -256 -269 -256c-177 0 -294 145 -294 365z" />
    <glyph glyph-name="Cacute" unicode="&#x106;" horiz-adv-x="647" 
d="M47 350c0 218 117 365 294 365c143 0 244 -92 267 -240l-61 -11c-21 124 -94 193 -206 193c-141 0 -233 -120 -233 -307c0 -188 91 -307 233 -307c117 0 189 72 206 207l63 -9c-17 -160 -118 -256 -269 -256c-177 0 -294 145 -294 365zM303 775l69 110h82l-96 -110h-55z
" />
    <glyph glyph-name="Ccaron" unicode="&#x10c;" horiz-adv-x="647" 
d="M47 350c0 218 117 365 294 365c143 0 244 -92 267 -240l-61 -11c-21 124 -94 193 -206 193c-141 0 -233 -120 -233 -307c0 -188 91 -307 233 -307c117 0 189 72 206 207l63 -9c-17 -160 -118 -256 -269 -256c-177 0 -294 145 -294 365zM412 879l37 -29l-67 -85h-82
l-67 85l37 29l71 -88z" />
    <glyph glyph-name="Ccedilla" unicode="&#xc7;" horiz-adv-x="647" 
d="M47 350c0 218 117 365 294 365c143 0 244 -92 267 -240l-61 -11c-21 124 -94 193 -206 193c-141 0 -233 -120 -233 -307c0 -188 91 -307 233 -307c117 0 189 72 206 207l63 -9c-17 -160 -118 -256 -269 -256c-177 0 -294 145 -294 365zM458 -137c0 -52 -41 -87 -97 -87
c-38 0 -70 13 -97 40l28 32c21 -21 44 -32 69 -32c31 0 54 20 54 48s-21 45 -52 45c-25 0 -44 -9 -59 -28l-34 16l60 111l35 -13l-35 -60c12 6 26 9 41 9c49 0 87 -34 87 -81z" />
    <glyph glyph-name="Ccircumflex" unicode="&#x108;" horiz-adv-x="647" 
d="M47 350c0 218 117 365 294 365c143 0 244 -92 267 -240l-61 -11c-21 124 -94 193 -206 193c-141 0 -233 -120 -233 -307c0 -188 91 -307 233 -307c117 0 189 72 206 207l63 -9c-17 -160 -118 -256 -269 -256c-177 0 -294 145 -294 365zM449 784l-37 -29l-71 89l-71 -89
l-37 29l67 85h82z" />
    <glyph glyph-name="Cdotaccent" unicode="&#x10a;" horiz-adv-x="647" 
d="M47 350c0 218 117 365 294 365c143 0 244 -92 267 -240l-61 -11c-21 124 -94 193 -206 193c-141 0 -233 -120 -233 -307c0 -188 91 -307 233 -307c117 0 189 72 206 207l63 -9c-17 -160 -118 -256 -269 -256c-177 0 -294 145 -294 365zM299 775v83h84v-83h-84z" />
    <glyph glyph-name="D" unicode="D" horiz-adv-x="651" 
d="M91 0v700h211c180 0 302 -136 302 -349c0 -231 -117 -351 -306 -351h-207zM152 58h142c159 0 249 98 249 293c0 183 -93 291 -245 291h-146v-584z" />
    <glyph glyph-name="Eth" unicode="&#xd0;" horiz-adv-x="651" 
d="M91 0v700h211c180 0 302 -136 302 -349c0 -231 -117 -351 -306 -351h-207zM152 58h142c159 0 249 98 249 293c0 183 -93 291 -245 291h-146v-584zM-1 327v51h343v-51h-343z" />
    <glyph glyph-name="Dcaron" unicode="&#x10e;" horiz-adv-x="651" 
d="M91 0v700h211c180 0 302 -136 302 -349c0 -231 -117 -351 -306 -351h-207zM152 58h142c159 0 249 98 249 293c0 183 -93 291 -245 291h-146v-584zM365 864l37 -29l-67 -85h-82l-67 85l37 29l71 -88z" />
    <glyph glyph-name="Dcroat" unicode="&#x110;" horiz-adv-x="651" 
d="M91 0v700h211c180 0 302 -136 302 -349c0 -231 -117 -351 -306 -351h-207zM152 58h142c159 0 249 98 249 293c0 183 -93 291 -245 291h-146v-584zM-1 327v51h343v-51h-343z" />
    <glyph glyph-name="uni1E0C" unicode="&#x1e0c;" horiz-adv-x="651" 
d="M91 0v700h211c180 0 302 -136 302 -349c0 -231 -117 -351 -306 -351h-207zM152 58h142c159 0 249 98 249 293c0 183 -93 291 -245 291h-146v-584zM283 -132v83h84v-83h-84z" />
    <glyph glyph-name="E" unicode="E" horiz-adv-x="560" 
d="M91 0v700h412v-58h-351v-253h323v-55h-323v-276h351v-58h-412z" />
    <glyph glyph-name="Eacute" unicode="&#xc9;" horiz-adv-x="560" 
d="M91 0v700h412v-58h-351v-253h323v-55h-323v-276h351v-58h-412zM269 760l69 110h82l-96 -110h-55z" />
    <glyph glyph-name="Ebreve" unicode="&#x114;" horiz-adv-x="560" 
d="M91 0v700h412v-58h-351v-253h323v-55h-323v-276h351v-58h-412zM192 861h38c7 -37 34 -59 78 -59c43 0 70 22 77 59h38c-4 -68 -47 -111 -115 -111c-69 0 -113 43 -116 111z" />
    <glyph glyph-name="Ecaron" unicode="&#x11a;" horiz-adv-x="560" 
d="M91 0v700h412v-58h-351v-253h323v-55h-323v-276h351v-58h-412zM378 864l37 -29l-67 -85h-82l-67 85l37 29l71 -88z" />
    <glyph glyph-name="uni0228" unicode="&#x228;" horiz-adv-x="560" 
d="M91 0v700h412v-58h-351v-253h323v-55h-323v-276h351v-58h-412zM414 -123c0 -52 -41 -87 -97 -87c-38 0 -70 13 -97 40l28 32c21 -21 44 -32 69 -32c31 0 54 20 54 48s-21 45 -52 45c-25 0 -44 -9 -59 -28l-34 16l60 111l35 -13l-35 -60c12 6 26 9 41 9
c49 0 87 -34 87 -81z" />
    <glyph glyph-name="Ecircumflex" unicode="&#xca;" horiz-adv-x="560" 
d="M91 0v700h412v-58h-351v-253h323v-55h-323v-276h351v-58h-412zM415 769l-37 -29l-71 89l-71 -89l-37 29l67 85h82z" />
    <glyph glyph-name="uni1EC6" unicode="&#x1ec6;" horiz-adv-x="560" 
d="M91 0v700h412v-58h-351v-253h323v-55h-323v-276h351v-58h-412zM415 769l-37 -29l-71 89l-71 -89l-37 29l67 85h82zM255 -132v83h84v-83h-84z" />
    <glyph glyph-name="Edieresis" unicode="&#xcb;" horiz-adv-x="560" 
d="M91 0v700h412v-58h-351v-253h323v-55h-323v-276h351v-58h-412zM179 750v83h84v-83h-84zM351 750v83h84v-83h-84z" />
    <glyph glyph-name="Edotaccent" unicode="&#x116;" horiz-adv-x="560" 
d="M91 0v700h412v-58h-351v-253h323v-55h-323v-276h351v-58h-412zM265 760v83h84v-83h-84z" />
    <glyph glyph-name="uni1EB8" unicode="&#x1eb8;" horiz-adv-x="560" 
d="M91 0v700h412v-58h-351v-253h323v-55h-323v-276h351v-58h-412zM255 -132v83h84v-83h-84z" />
    <glyph glyph-name="Egrave" unicode="&#xc8;" horiz-adv-x="560" 
d="M91 0v700h412v-58h-351v-253h323v-55h-323v-276h351v-58h-412zM289 760l-96 110h82l69 -110h-55z" />
    <glyph glyph-name="Emacron" unicode="&#x112;" horiz-adv-x="560" 
d="M91 0v700h412v-58h-351v-253h323v-55h-323v-276h351v-58h-412zM181 760v48h252v-48h-252z" />
    <glyph glyph-name="Eogonek" unicode="&#x118;" horiz-adv-x="560" 
d="M91 0v700h412v-58h-351v-253h323v-55h-323v-276h351v-58h-412zM319 -115c0 44 38 91 101 127l32 -12c-55 -31 -82 -65 -82 -103c0 -24 13 -36 38 -36c19 0 39 6 60 19l19 -46c-28 -16 -57 -24 -86 -24c-52 0 -82 27 -82 75z" />
    <glyph glyph-name="uni018E" unicode="&#x18e;" horiz-adv-x="560" 
d="M469 0h-412v58h351v276h-323v55h323v253h-351v58h412v-700z" />
    <glyph glyph-name="uni1EBC" unicode="&#x1ebc;" horiz-adv-x="560" 
d="M91 0v700h412v-58h-351v-253h323v-55h-323v-276h351v-58h-412zM297 778c-24 12 -35 18 -50 18c-20 0 -32 -12 -37 -36h-36c4 52 32 83 76 83c23 0 41 -8 66 -23c24 -12 35 -18 50 -18c20 0 32 12 36 36h37c-4 -52 -32 -83 -76 -83c-23 0 -41 8 -66 23z" />
    <glyph glyph-name="F" unicode="F" horiz-adv-x="551" 
d="M91 0v700h413v-58h-352v-277h324v-55h-324v-310h-61z" />
    <glyph glyph-name="G" unicode="G" horiz-adv-x="656" 
d="M47 350c0 220 117 365 294 365c69 0 128 -20 175 -61c48 -41 78 -96 90 -165l-61 -11c-23 116 -96 179 -204 179c-141 0 -233 -120 -233 -307s92 -307 233 -307c135 0 211 86 208 234h-199v58h259v-57c0 -183 -101 -293 -268 -293c-177 0 -294 145 -294 365z" />
    <glyph glyph-name="Gbreve" unicode="&#x11e;" horiz-adv-x="656" 
d="M47 350c0 220 117 365 294 365c69 0 128 -20 175 -61c48 -41 78 -96 90 -165l-61 -11c-23 116 -96 179 -204 179c-141 0 -233 -120 -233 -307s92 -307 233 -307c135 0 211 86 208 234h-199v58h259v-57c0 -183 -101 -293 -268 -293c-177 0 -294 145 -294 365zM226 876h38
c7 -37 34 -59 78 -59c43 0 70 22 77 59h38c-4 -68 -47 -111 -115 -111c-69 0 -113 43 -116 111z" />
    <glyph glyph-name="Gcircumflex" unicode="&#x11c;" horiz-adv-x="656" 
d="M47 350c0 220 117 365 294 365c69 0 128 -20 175 -61c48 -41 78 -96 90 -165l-61 -11c-23 116 -96 179 -204 179c-141 0 -233 -120 -233 -307s92 -307 233 -307c135 0 211 86 208 234h-199v58h259v-57c0 -183 -101 -293 -268 -293c-177 0 -294 145 -294 365zM449 784
l-37 -29l-71 89l-71 -89l-37 29l67 85h82z" />
    <glyph glyph-name="uni0122" unicode="&#x122;" horiz-adv-x="656" 
d="M47 350c0 220 117 365 294 365c69 0 128 -20 175 -61c48 -41 78 -96 90 -165l-61 -11c-23 116 -96 179 -204 179c-141 0 -233 -120 -233 -307s92 -307 233 -307c135 0 211 86 208 234h-199v58h259v-57c0 -183 -101 -293 -268 -293c-177 0 -294 145 -294 365zM301 -221v32
c24 5 34 17 34 44h-38v81h88v-71c0 -52 -29 -82 -84 -86z" />
    <glyph glyph-name="Gdotaccent" unicode="&#x120;" horiz-adv-x="656" 
d="M47 350c0 220 117 365 294 365c69 0 128 -20 175 -61c48 -41 78 -96 90 -165l-61 -11c-23 116 -96 179 -204 179c-141 0 -233 -120 -233 -307s92 -307 233 -307c135 0 211 86 208 234h-199v58h259v-57c0 -183 -101 -293 -268 -293c-177 0 -294 145 -294 365zM299 775v83
h84v-83h-84z" />
    <glyph glyph-name="H" unicode="H" horiz-adv-x="651" 
d="M91 0v700h61v-312h347v312h61v-700h-61v335h-347v-335h-61z" />
    <glyph glyph-name="Hbar" unicode="&#x126;" horiz-adv-x="645" 
d="M645 572v-51h-88v-521h-61v334h-347v-334h-62v521h-87v51h87v128h62v-128h347v128h61v-128h88zM496 388v133h-347v-133h347z" />
    <glyph glyph-name="Hcircumflex" unicode="&#x124;" horiz-adv-x="651" 
d="M91 0v700h61v-312h347v312h61v-700h-61v335h-347v-335h-61zM434 769l-37 -29l-71 89l-71 -89l-37 29l67 85h82z" />
    <glyph glyph-name="uni1E24" unicode="&#x1e24;" horiz-adv-x="651" 
d="M91 0v700h61v-312h347v312h61v-700h-61v335h-347v-335h-61zM284 -132v83h84v-83h-84z" />
    <glyph glyph-name="I" unicode="I" horiz-adv-x="243" 
d="M91 0v700h61v-700h-61z" />
    <glyph glyph-name="Iacute" unicode="&#xcd;" horiz-adv-x="243" 
d="M91 0v700h61v-700h-61zM84 760l69 110h82l-96 -110h-55z" />
    <glyph glyph-name="Ibreve" unicode="&#x12c;" horiz-adv-x="243" 
d="M91 0v700h61v-700h-61zM7 861h38c7 -37 34 -59 78 -59c43 0 70 22 77 59h38c-4 -68 -47 -111 -115 -111c-69 0 -113 43 -116 111z" />
    <glyph glyph-name="uni01CF" unicode="&#x1cf;" horiz-adv-x="243" 
d="M91 0v700h61v-700h-61zM193 864l37 -29l-67 -85h-82l-67 85l37 29l71 -88z" />
    <glyph glyph-name="Icircumflex" unicode="&#xce;" horiz-adv-x="243" 
d="M91 0v700h61v-700h-61zM230 769l-37 -29l-71 89l-71 -89l-37 29l67 85h82z" />
    <glyph glyph-name="Idieresis" unicode="&#xcf;" horiz-adv-x="243" 
d="M91 0v700h61v-700h-61zM-6 750v83h84v-83h-84zM166 750v83h84v-83h-84z" />
    <glyph glyph-name="Idotaccent" unicode="&#x130;" horiz-adv-x="243" 
d="M91 0v700h61v-700h-61zM80 760v83h84v-83h-84z" />
    <glyph glyph-name="uni1ECA" unicode="&#x1eca;" horiz-adv-x="243" 
d="M91 0v700h61v-700h-61zM80 -132v83h84v-83h-84z" />
    <glyph glyph-name="Igrave" unicode="&#xcc;" horiz-adv-x="243" 
d="M91 0v700h61v-700h-61zM104 760l-96 110h82l69 -110h-55z" />
    <glyph glyph-name="Imacron" unicode="&#x12a;" horiz-adv-x="243" 
d="M91 0v700h61v-700h-61zM-4 760v48h252v-48h-252z" />
    <glyph glyph-name="Iogonek" unicode="&#x12e;" horiz-adv-x="243" 
d="M91 0v700h61v-700h-61zM14 -115c0 44 38 91 101 127l32 -12c-55 -31 -82 -65 -82 -103c0 -24 13 -36 38 -36c19 0 39 6 60 19l19 -46c-28 -16 -57 -24 -86 -24c-52 0 -82 27 -82 75z" />
    <glyph glyph-name="Itilde" unicode="&#x128;" horiz-adv-x="243" 
d="M91 0v700h61v-700h-61zM112 778c-24 12 -35 18 -50 18c-20 0 -32 -12 -37 -36h-36c4 52 32 83 76 83c23 0 41 -8 66 -23c24 -12 35 -18 50 -18c20 0 32 12 36 36h37c-4 -52 -32 -83 -76 -83c-23 0 -41 8 -66 23z" />
    <glyph glyph-name="J" unicode="J" horiz-adv-x="507" 
d="M30 189l59 7c8 -105 51 -153 136 -153c89 0 135 59 135 175v482h61v-485c0 -147 -73 -230 -196 -230c-120 0 -186 68 -195 204z" />
    <glyph glyph-name="Jcircumflex" unicode="&#x134;" horiz-adv-x="507" 
d="M30 189l59 7c8 -105 51 -153 136 -153c89 0 135 59 135 175v482h61v-485c0 -147 -73 -230 -196 -230c-120 0 -186 68 -195 204zM499 769l-37 -29l-71 89l-71 -89l-37 29l67 85h82z" />
    <glyph glyph-name="K" unicode="K" horiz-adv-x="582" 
d="M91 0v700h61v-384h2l323 384h76l-263 -309l286 -391h-76l-249 344h-2l-97 -115v-229h-61z" />
    <glyph glyph-name="uni0136" unicode="&#x136;" horiz-adv-x="582" 
d="M91 0v700h61v-384h2l323 384h76l-263 -309l286 -391h-76l-249 344h-2l-97 -115v-229h-61zM284 -206v32c24 5 34 17 34 44h-38v81h88v-71c0 -52 -29 -82 -84 -86z" />
    <glyph glyph-name="L" unicode="L" horiz-adv-x="514" 
d="M91 0v700h61v-642h327v-58h-388z" />
    <glyph glyph-name="Lacute" unicode="&#x139;" horiz-adv-x="514" 
d="M91 0v700h61v-642h327v-58h-388zM84 760l69 110h82l-96 -110h-55z" />
    <glyph glyph-name="Lcaron" unicode="&#x13d;" horiz-adv-x="487" 
d="M91 0v700h61v-642h327v-58h-388zM384 543v32c24 5 34 17 34 44h-38v81h88v-71c0 -52 -29 -82 -84 -86z" />
    <glyph glyph-name="uni013B" unicode="&#x13b;" horiz-adv-x="514" 
d="M91 0v700h61v-642h327v-58h-388zM245 -206v32c24 5 34 17 34 44h-38v81h88v-71c0 -52 -29 -82 -84 -86z" />
    <glyph glyph-name="Ldot" unicode="&#x13f;" horiz-adv-x="514" 
d="M91 0v700h61v-642h327v-58h-388zM312 341v98h101v-98h-101z" />
    <glyph glyph-name="uni1E36" unicode="&#x1e36;" horiz-adv-x="514" 
d="M91 0v700h61v-642h327v-58h-388zM243 -132v83h84v-83h-84z" />
    <glyph glyph-name="Lslash" unicode="&#x141;" horiz-adv-x="553" 
d="M154 0v700h61v-642h327v-58h-388zM179 284l221 200l-27 30l-175 -160v3l-198 -186l26 -28l153 146v-5z" />
    <glyph glyph-name="M" unicode="M" horiz-adv-x="841" 
d="M91 0v700h83l246 -594h2l246 594h83v-700h-62v603h-2l-252 -603h-29l-252 603h-2v-603h-61z" />
    <glyph glyph-name="N" unicode="N" horiz-adv-x="667" 
d="M91 0v700h73l348 -605h2v605h62v-700h-74l-348 605h-2v-605h-61z" />
    <glyph glyph-name="Nacute" unicode="&#x143;" horiz-adv-x="667" 
d="M91 0v700h73l348 -605h2v605h62v-700h-74l-348 605h-2v-605h-61zM295 760l69 110h82l-96 -110h-55z" />
    <glyph glyph-name="Ncaron" unicode="&#x147;" horiz-adv-x="667" 
d="M91 0v700h73l348 -605h2v605h62v-700h-74l-348 605h-2v-605h-61zM404 864l37 -29l-67 -85h-82l-67 85l37 29l71 -88z" />
    <glyph glyph-name="uni0145" unicode="&#x145;" horiz-adv-x="667" 
d="M91 0v700h73l348 -605h2v605h62v-700h-74l-348 605h-2v-605h-61zM301 -206v32c24 5 34 17 34 44h-38v81h88v-71c0 -52 -29 -82 -84 -86z" />
    <glyph glyph-name="uni1E44" unicode="&#x1e44;" horiz-adv-x="667" 
d="M91 0v700h73l348 -605h2v605h62v-700h-74l-348 605h-2v-605h-61zM291 760v83h84v-83h-84z" />
    <glyph glyph-name="uni1E46" unicode="&#x1e46;" horiz-adv-x="667" 
d="M91 0v700h73l348 -605h2v605h62v-700h-74l-348 605h-2v-605h-61zM299 -132v83h84v-83h-84z" />
    <glyph glyph-name="Eng" unicode="&#x14a;" horiz-adv-x="664" 
d="M512 700h61v-764c0 -69 -32 -99 -108 -99h-37v55h37c35 0 50 14 50 47v61l-361 597h-2v-597h-61v700h66l353 -585h2v585z" />
    <glyph glyph-name="Ntilde" unicode="&#xd1;" horiz-adv-x="667" 
d="M91 0v700h73l348 -605h2v605h62v-700h-74l-348 605h-2v-605h-61zM323 778c-24 12 -35 18 -50 18c-20 0 -32 -12 -37 -36h-36c4 52 32 83 76 83c23 0 41 -8 66 -23c24 -12 35 -18 50 -18c20 0 32 12 36 36h37c-4 -52 -32 -83 -76 -83c-23 0 -41 8 -66 23z" />
    <glyph glyph-name="O" unicode="O" horiz-adv-x="682" 
d="M47 350c0 218 117 365 294 365s294 -147 294 -365s-117 -365 -294 -365s-294 147 -294 365zM574 350c0 187 -91 307 -233 307c-141 0 -233 -120 -233 -307s92 -307 233 -307c142 0 233 120 233 307z" />
    <glyph glyph-name="Oacute" unicode="&#xd3;" horiz-adv-x="682" 
d="M47 350c0 218 117 365 294 365s294 -147 294 -365s-117 -365 -294 -365s-294 147 -294 365zM574 350c0 187 -91 307 -233 307c-141 0 -233 -120 -233 -307s92 -307 233 -307c142 0 233 120 233 307zM303 775l69 110h82l-96 -110h-55z" />
    <glyph glyph-name="Obreve" unicode="&#x14e;" horiz-adv-x="682" 
d="M47 350c0 218 117 365 294 365s294 -147 294 -365s-117 -365 -294 -365s-294 147 -294 365zM574 350c0 187 -91 307 -233 307c-141 0 -233 -120 -233 -307s92 -307 233 -307c142 0 233 120 233 307zM226 876h38c7 -37 34 -59 78 -59c43 0 70 22 77 59h38
c-4 -68 -47 -111 -115 -111c-69 0 -113 43 -116 111z" />
    <glyph glyph-name="uni01D1" unicode="&#x1d1;" horiz-adv-x="682" 
d="M47 350c0 218 117 365 294 365s294 -147 294 -365s-117 -365 -294 -365s-294 147 -294 365zM574 350c0 187 -91 307 -233 307c-141 0 -233 -120 -233 -307s92 -307 233 -307c142 0 233 120 233 307zM412 879l37 -29l-67 -85h-82l-67 85l37 29l71 -88z" />
    <glyph glyph-name="Ocircumflex" unicode="&#xd4;" horiz-adv-x="682" 
d="M47 350c0 218 117 365 294 365s294 -147 294 -365s-117 -365 -294 -365s-294 147 -294 365zM574 350c0 187 -91 307 -233 307c-141 0 -233 -120 -233 -307s92 -307 233 -307c142 0 233 120 233 307zM449 784l-37 -29l-71 89l-71 -89l-37 29l67 85h82z" />
    <glyph glyph-name="uni1ED8" unicode="&#x1ed8;" horiz-adv-x="682" 
d="M47 350c0 218 117 365 294 365s294 -147 294 -365s-117 -365 -294 -365s-294 147 -294 365zM574 350c0 187 -91 307 -233 307c-141 0 -233 -120 -233 -307s92 -307 233 -307c142 0 233 120 233 307zM449 784l-37 -29l-71 89l-71 -89l-37 29l67 85h82zM299 -147v83h84v-83
h-84z" />
    <glyph glyph-name="Odieresis" unicode="&#xd6;" horiz-adv-x="682" 
d="M47 350c0 218 117 365 294 365s294 -147 294 -365s-117 -365 -294 -365s-294 147 -294 365zM574 350c0 187 -91 307 -233 307c-141 0 -233 -120 -233 -307s92 -307 233 -307c142 0 233 120 233 307zM213 765v83h84v-83h-84zM385 765v83h84v-83h-84z" />
    <glyph glyph-name="uni1ECC" unicode="&#x1ecc;" horiz-adv-x="682" 
d="M47 350c0 218 117 365 294 365s294 -147 294 -365s-117 -365 -294 -365s-294 147 -294 365zM574 350c0 187 -91 307 -233 307c-141 0 -233 -120 -233 -307s92 -307 233 -307c142 0 233 120 233 307zM299 -147v83h84v-83h-84z" />
    <glyph glyph-name="Ograve" unicode="&#xd2;" horiz-adv-x="682" 
d="M47 350c0 218 117 365 294 365s294 -147 294 -365s-117 -365 -294 -365s-294 147 -294 365zM574 350c0 187 -91 307 -233 307c-141 0 -233 -120 -233 -307s92 -307 233 -307c142 0 233 120 233 307zM323 775l-96 110h82l69 -110h-55z" />
    <glyph glyph-name="Ohungarumlaut" unicode="&#x150;" horiz-adv-x="682" 
d="M47 350c0 218 117 365 294 365s294 -147 294 -365s-117 -365 -294 -365s-294 147 -294 365zM574 350c0 187 -91 307 -233 307c-141 0 -233 -120 -233 -307s92 -307 233 -307c142 0 233 120 233 307zM228 775l69 110h82l-96 -110h-55zM364 775l69 110h82l-97 -110h-54z
" />
    <glyph glyph-name="Omacron" unicode="&#x14c;" horiz-adv-x="682" 
d="M47 350c0 218 117 365 294 365s294 -147 294 -365s-117 -365 -294 -365s-294 147 -294 365zM574 350c0 187 -91 307 -233 307c-141 0 -233 -120 -233 -307s92 -307 233 -307c142 0 233 120 233 307zM215 775v48h252v-48h-252z" />
    <glyph glyph-name="Oslash" unicode="&#xd8;" horiz-adv-x="686" 
d="M637 350c0 -218 -117 -365 -294 -365c-57 0 -108 15 -153 45l-30 -53l-38 21l33 60c-68 64 -106 167 -106 292c0 218 117 365 294 365c57 0 109 -15 154 -45l29 52l37 -21l-32 -58c68 -65 106 -168 106 -293zM185 111l283 507c-37 26 -78 39 -125 39
c-142 0 -233 -120 -233 -307c0 -103 27 -184 75 -239zM576 350c0 103 -27 184 -75 239l-283 -508c35 -25 77 -38 125 -38c141 0 233 120 233 307z" />
    <glyph glyph-name="Oslashacute" unicode="&#x1fe;" horiz-adv-x="686" 
d="M637 350c0 -218 -117 -365 -294 -365c-57 0 -108 15 -153 45l-30 -53l-38 21l33 60c-68 64 -106 167 -106 292c0 218 117 365 294 365c57 0 109 -15 154 -45l29 52l37 -21l-32 -58c68 -65 106 -168 106 -293zM185 111l283 507c-37 26 -78 39 -125 39
c-142 0 -233 -120 -233 -307c0 -103 27 -184 75 -239zM576 350c0 103 -27 184 -75 239l-283 -508c35 -25 77 -38 125 -38c141 0 233 120 233 307zM305 775l69 110h82l-96 -110h-55z" />
    <glyph glyph-name="Otilde" unicode="&#xd5;" horiz-adv-x="682" 
d="M47 350c0 218 117 365 294 365s294 -147 294 -365s-117 -365 -294 -365s-294 147 -294 365zM574 350c0 187 -91 307 -233 307c-141 0 -233 -120 -233 -307s92 -307 233 -307c142 0 233 120 233 307zM331 793c-24 12 -35 18 -50 18c-20 0 -32 -12 -37 -36h-36
c4 52 32 83 76 83c23 0 41 -8 66 -23c24 -12 35 -18 50 -18c20 0 32 12 36 36h37c-4 -52 -32 -83 -76 -83c-23 0 -41 8 -66 23z" />
    <glyph glyph-name="uni1E4C" unicode="&#x1e4c;" horiz-adv-x="682" 
d="M47 350c0 218 117 365 294 365s294 -147 294 -365s-117 -365 -294 -365s-294 147 -294 365zM574 350c0 187 -91 307 -233 307c-141 0 -233 -120 -233 -307s92 -307 233 -307c142 0 233 120 233 307zM331 793c-24 12 -35 18 -50 18c-20 0 -32 -12 -37 -36h-36
c4 52 32 83 76 83c23 0 41 -8 66 -23c24 -12 35 -18 50 -18c20 0 32 12 36 36h37c-4 -52 -32 -83 -76 -83c-23 0 -41 8 -66 23zM303 888l69 110h82l-96 -110h-55z" />
    <glyph glyph-name="OE" unicode="&#x152;" horiz-adv-x="947" 
d="M47 350c0 218 117 365 294 365c64 0 119 -19 166 -56h2v41h381v-58h-319v-253h291v-56h-291v-275h319v-58h-381v41h-2c-45 -37 -101 -56 -166 -56c-177 0 -294 147 -294 365zM509 118v464c-41 50 -97 75 -168 75c-141 0 -233 -120 -233 -307s92 -307 233 -307
c71 0 127 25 168 75z" />
    <glyph glyph-name="P" unicode="P" horiz-adv-x="606" 
d="M91 0v700h256c145 0 233 -80 233 -212c0 -133 -85 -211 -233 -211h-195v-277h-61zM152 335h192c116 0 174 51 174 153c0 101 -59 154 -174 154h-192v-307z" />
    <glyph glyph-name="Thorn" unicode="&#xde;" horiz-adv-x="606" 
d="M580 353c0 -133 -86 -211 -233 -211h-195v-142h-61v700h61v-135h195c144 0 233 -80 233 -212zM518 353c0 101 -59 154 -174 154h-192v-307h192c116 0 174 51 174 153z" />
    <glyph glyph-name="Q" unicode="Q" horiz-adv-x="682" 
d="M558 90l66 -70l-38 -35l-64 67c-50 -45 -110 -67 -181 -67c-177 0 -294 147 -294 365s117 365 294 365s294 -147 294 -365c0 -105 -28 -196 -77 -260zM482 94l-159 166l39 35l154 -162c39 55 58 128 58 217c0 187 -91 307 -233 307c-141 0 -233 -120 -233 -307
s92 -307 233 -307c55 0 102 17 141 51z" />
    <glyph glyph-name="R" unicode="R" horiz-adv-x="603" 
d="M385 299v-2l158 -297h-72l-153 295h-166v-295h-61v700h247c144 0 228 -74 228 -201c0 -113 -66 -185 -181 -200zM152 353h181c112 0 171 50 171 146c0 93 -59 143 -171 143h-181v-289z" />
    <glyph glyph-name="Racute" unicode="&#x154;" horiz-adv-x="603" 
d="M385 299v-2l158 -297h-72l-153 295h-166v-295h-61v700h247c144 0 228 -74 228 -201c0 -113 -66 -185 -181 -200zM152 353h181c112 0 171 50 171 146c0 93 -59 143 -171 143h-181v-289zM263 760l69 110h82l-96 -110h-55z" />
    <glyph glyph-name="Rcaron" unicode="&#x158;" horiz-adv-x="603" 
d="M385 299v-2l158 -297h-72l-153 295h-166v-295h-61v700h247c144 0 228 -74 228 -201c0 -113 -66 -185 -181 -200zM152 353h181c112 0 171 50 171 146c0 93 -59 143 -171 143h-181v-289zM372 864l37 -29l-67 -85h-82l-67 85l37 29l71 -88z" />
    <glyph glyph-name="uni0156" unicode="&#x156;" horiz-adv-x="603" 
d="M385 299v-2l158 -297h-72l-153 295h-166v-295h-61v700h247c144 0 228 -74 228 -201c0 -113 -66 -185 -181 -200zM152 353h181c112 0 171 50 171 146c0 93 -59 143 -171 143h-181v-289zM271 -206v32c24 5 34 17 34 44h-38v81h88v-71c0 -52 -29 -82 -84 -86z" />
    <glyph glyph-name="S" unicode="S" horiz-adv-x="592" 
d="M37 228l61 9c11 -128 85 -194 218 -194c108 0 178 51 178 128c0 80 -51 122 -205 170c-167 52 -220 99 -220 192c0 107 89 182 218 182c65 0 119 -18 164 -55c45 -36 73 -84 82 -145l-60 -12c-19 97 -88 154 -187 154c-93 0 -156 -51 -156 -124c0 -62 42 -95 180 -137
c183 -56 245 -115 245 -224c0 -113 -97 -187 -239 -187c-167 0 -268 87 -279 243z" />
    <glyph glyph-name="Sacute" unicode="&#x15a;" horiz-adv-x="592" 
d="M37 228l61 9c11 -128 85 -194 218 -194c108 0 178 51 178 128c0 80 -51 122 -205 170c-167 52 -220 99 -220 192c0 107 89 182 218 182c65 0 119 -18 164 -55c45 -36 73 -84 82 -145l-60 -12c-19 97 -88 154 -187 154c-93 0 -156 -51 -156 -124c0 -62 42 -95 180 -137
c183 -56 245 -115 245 -224c0 -113 -97 -187 -239 -187c-167 0 -268 87 -279 243zM249 775l69 110h82l-96 -110h-55z" />
    <glyph glyph-name="Scaron" unicode="&#x160;" horiz-adv-x="592" 
d="M37 228l61 9c11 -128 85 -194 218 -194c108 0 178 51 178 128c0 80 -51 122 -205 170c-167 52 -220 99 -220 192c0 107 89 182 218 182c65 0 119 -18 164 -55c45 -36 73 -84 82 -145l-60 -12c-19 97 -88 154 -187 154c-93 0 -156 -51 -156 -124c0 -62 42 -95 180 -137
c183 -56 245 -115 245 -224c0 -113 -97 -187 -239 -187c-167 0 -268 87 -279 243zM358 879l37 -29l-67 -85h-82l-67 85l37 29l71 -88z" />
    <glyph glyph-name="Scedilla" unicode="&#x15e;" horiz-adv-x="592" 
d="M37 228l61 9c11 -128 85 -194 218 -194c108 0 178 51 178 128c0 80 -51 122 -205 170c-167 52 -220 99 -220 192c0 107 89 182 218 182c65 0 119 -18 164 -55c45 -36 73 -84 82 -145l-60 -12c-19 97 -88 154 -187 154c-93 0 -156 -51 -156 -124c0 -62 42 -95 180 -137
c183 -56 245 -115 245 -224c0 -113 -97 -187 -239 -187c-167 0 -268 87 -279 243zM433 -137c0 -52 -41 -87 -97 -87c-38 0 -70 13 -97 40l28 32c21 -21 44 -32 69 -32c31 0 54 20 54 48s-21 45 -52 45c-25 0 -44 -9 -59 -28l-34 16l60 111l35 -13l-35 -60c12 6 26 9 41 9
c49 0 87 -34 87 -81z" />
    <glyph glyph-name="Scircumflex" unicode="&#x15c;" horiz-adv-x="592" 
d="M37 228l61 9c11 -128 85 -194 218 -194c108 0 178 51 178 128c0 80 -51 122 -205 170c-167 52 -220 99 -220 192c0 107 89 182 218 182c65 0 119 -18 164 -55c45 -36 73 -84 82 -145l-60 -12c-19 97 -88 154 -187 154c-93 0 -156 -51 -156 -124c0 -62 42 -95 180 -137
c183 -56 245 -115 245 -224c0 -113 -97 -187 -239 -187c-167 0 -268 87 -279 243zM395 784l-37 -29l-71 89l-71 -89l-37 29l67 85h82z" />
    <glyph glyph-name="uni0218" unicode="&#x218;" horiz-adv-x="592" 
d="M37 228l61 9c11 -128 85 -194 218 -194c108 0 178 51 178 128c0 80 -51 122 -205 170c-167 52 -220 99 -220 192c0 107 89 182 218 182c65 0 119 -18 164 -55c45 -36 73 -84 82 -145l-60 -12c-19 97 -88 154 -187 154c-93 0 -156 -51 -156 -124c0 -62 42 -95 180 -137
c183 -56 245 -115 245 -224c0 -113 -97 -187 -239 -187c-167 0 -268 87 -279 243zM276 -221v32c24 5 34 17 34 44h-38v81h88v-71c0 -52 -29 -82 -84 -86z" />
    <glyph glyph-name="uni1E62" unicode="&#x1e62;" horiz-adv-x="592" 
d="M37 228l61 9c11 -128 85 -194 218 -194c108 0 178 51 178 128c0 80 -51 122 -205 170c-167 52 -220 99 -220 192c0 107 89 182 218 182c65 0 119 -18 164 -55c45 -36 73 -84 82 -145l-60 -12c-19 97 -88 154 -187 154c-93 0 -156 -51 -156 -124c0 -62 42 -95 180 -137
c183 -56 245 -115 245 -224c0 -113 -97 -187 -239 -187c-167 0 -268 87 -279 243zM274 -147v83h84v-83h-84z" />
    <glyph glyph-name="uni018F" unicode="&#x18f;" horiz-adv-x="673" 
d="M47 348v23h517c-2 177 -92 286 -228 286c-101 0 -177 -58 -213 -169l-58 19c45 133 144 208 271 208c176 0 291 -145 291 -366c0 -219 -116 -364 -291 -364s-289 140 -289 363zM564 316h-453c2 -168 92 -273 225 -273s219 102 228 273z" />
    <glyph glyph-name="T" unicode="T" horiz-adv-x="575" 
d="M257 0v642h-222v58h505v-58h-221v-642h-62z" />
    <glyph glyph-name="_123" horiz-adv-x="575" 
d="M257 0v642h-222v58h505v-58h-221v-642h-62z" />
    <glyph glyph-name="Tbar" unicode="&#x166;" horiz-adv-x="575" 
d="M257 0v642h-222v58h505v-58h-221v-642h-62zM116 327v51h343v-51h-343z" />
    <glyph glyph-name="_125" horiz-adv-x="575" 
d="M257 0v642h-222v58h505v-58h-221v-642h-62zM116 327v51h343v-51h-343z" />
    <glyph glyph-name="Tcaron" unicode="&#x164;" horiz-adv-x="575" 
d="M257 0v642h-222v58h505v-58h-221v-642h-62zM359 864l37 -29l-67 -85h-82l-67 85l37 29l71 -88z" />
    <glyph glyph-name="_127" horiz-adv-x="575" 
d="M257 0v642h-222v58h505v-58h-221v-642h-62zM359 864l37 -29l-67 -85h-82l-67 85l37 29l71 -88z" />
    <glyph glyph-name="uni0162" unicode="&#x162;" horiz-adv-x="575" 
d="M257 0v642h-222v58h505v-58h-221v-642h-62zM405 -123c0 -52 -41 -87 -97 -87c-38 0 -70 13 -97 40l28 32c21 -21 44 -32 69 -32c31 0 54 20 54 48s-21 45 -52 45c-25 0 -44 -9 -59 -28l-34 16l60 111l35 -13l-35 -60c12 6 26 9 41 9c49 0 87 -34 87 -81z" />
    <glyph glyph-name="_129" horiz-adv-x="575" 
d="M257 0v642h-222v58h505v-58h-221v-642h-62zM405 -123c0 -52 -41 -87 -97 -87c-38 0 -70 13 -97 40l28 32c21 -21 44 -32 69 -32c31 0 54 20 54 48s-21 45 -52 45c-25 0 -44 -9 -59 -28l-34 16l60 111l35 -13l-35 -60c12 6 26 9 41 9c49 0 87 -34 87 -81z" />
    <glyph glyph-name="uni021A" unicode="&#x21a;" horiz-adv-x="575" 
d="M257 0v642h-222v58h505v-58h-221v-642h-62zM248 -206v32c24 5 34 17 34 44h-38v81h88v-71c0 -52 -29 -82 -84 -86z" />
    <glyph glyph-name="_131" horiz-adv-x="575" 
d="M257 0v642h-222v58h505v-58h-221v-642h-62zM248 -206v32c24 5 34 17 34 44h-38v81h88v-71c0 -52 -29 -82 -84 -86z" />
    <glyph glyph-name="uni1E6C" unicode="&#x1e6c;" horiz-adv-x="575" 
d="M257 0v642h-222v58h505v-58h-221v-642h-62zM246 -132v83h84v-83h-84z" />
    <glyph glyph-name="_133" horiz-adv-x="575" 
d="M257 0v642h-222v58h505v-58h-221v-642h-62zM246 -132v83h84v-83h-84z" />
    <glyph glyph-name="U" unicode="U" horiz-adv-x="662" 
d="M86 229v471h61v-467c0 -127 61 -190 183 -190c123 0 185 63 185 188v469h62v-471c0 -159 -86 -244 -247 -244c-160 0 -244 85 -244 244z" />
    <glyph glyph-name="Uacute" unicode="&#xda;" horiz-adv-x="662" 
d="M86 229v471h61v-467c0 -127 61 -190 183 -190c123 0 185 63 185 188v469h62v-471c0 -159 -86 -244 -247 -244c-160 0 -244 85 -244 244zM293 760l69 110h82l-96 -110h-55z" />
    <glyph glyph-name="Ubreve" unicode="&#x16c;" horiz-adv-x="662" 
d="M86 229v471h61v-467c0 -127 61 -190 183 -190c123 0 185 63 185 188v469h62v-471c0 -159 -86 -244 -247 -244c-160 0 -244 85 -244 244zM216 861h38c7 -37 34 -59 78 -59c43 0 70 22 77 59h38c-4 -68 -47 -111 -115 -111c-69 0 -113 43 -116 111z" />
    <glyph glyph-name="uni01D3" unicode="&#x1d3;" horiz-adv-x="662" 
d="M86 229v471h61v-467c0 -127 61 -190 183 -190c123 0 185 63 185 188v469h62v-471c0 -159 -86 -244 -247 -244c-160 0 -244 85 -244 244zM402 864l37 -29l-67 -85h-82l-67 85l37 29l71 -88z" />
    <glyph glyph-name="Ucircumflex" unicode="&#xdb;" horiz-adv-x="662" 
d="M86 229v471h61v-467c0 -127 61 -190 183 -190c123 0 185 63 185 188v469h62v-471c0 -159 -86 -244 -247 -244c-160 0 -244 85 -244 244zM439 769l-37 -29l-71 89l-71 -89l-37 29l67 85h82z" />
    <glyph glyph-name="Udieresis" unicode="&#xdc;" horiz-adv-x="662" 
d="M86 229v471h61v-467c0 -127 61 -190 183 -190c123 0 185 63 185 188v469h62v-471c0 -159 -86 -244 -247 -244c-160 0 -244 85 -244 244zM203 750v83h84v-83h-84zM375 750v83h84v-83h-84z" />
    <glyph glyph-name="uni01D7" unicode="&#x1d7;" horiz-adv-x="662" 
d="M86 229v471h61v-467c0 -127 61 -190 183 -190c123 0 185 63 185 188v469h62v-471c0 -159 -86 -244 -247 -244c-160 0 -244 85 -244 244zM203 750v83h84v-83h-84zM375 750v83h84v-83h-84zM293 873l69 110h82l-96 -110h-55z" />
    <glyph glyph-name="uni01D9" unicode="&#x1d9;" horiz-adv-x="662" 
d="M86 229v471h61v-467c0 -127 61 -190 183 -190c123 0 185 63 185 188v469h62v-471c0 -159 -86 -244 -247 -244c-160 0 -244 85 -244 244zM203 750v83h84v-83h-84zM375 750v83h84v-83h-84zM402 977l37 -29l-67 -85h-82l-67 85l37 29l71 -88z" />
    <glyph glyph-name="uni01DB" unicode="&#x1db;" horiz-adv-x="662" 
d="M86 229v471h61v-467c0 -127 61 -190 183 -190c123 0 185 63 185 188v469h62v-471c0 -159 -86 -244 -247 -244c-160 0 -244 85 -244 244zM203 750v83h84v-83h-84zM375 750v83h84v-83h-84zM313 873l-96 110h82l69 -110h-55z" />
    <glyph glyph-name="uni01D5" unicode="&#x1d5;" horiz-adv-x="662" 
d="M86 229v471h61v-467c0 -127 61 -190 183 -190c123 0 185 63 185 188v469h62v-471c0 -159 -86 -244 -247 -244c-160 0 -244 85 -244 244zM203 750v83h84v-83h-84zM375 750v83h84v-83h-84zM205 873v48h252v-48h-252z" />
    <glyph glyph-name="uni1EE4" unicode="&#x1ee4;" horiz-adv-x="662" 
d="M86 229v471h61v-467c0 -127 61 -190 183 -190c123 0 185 63 185 188v469h62v-471c0 -159 -86 -244 -247 -244c-160 0 -244 85 -244 244zM288 -147v83h84v-83h-84z" />
    <glyph glyph-name="Ugrave" unicode="&#xd9;" horiz-adv-x="662" 
d="M86 229v471h61v-467c0 -127 61 -190 183 -190c123 0 185 63 185 188v469h62v-471c0 -159 -86 -244 -247 -244c-160 0 -244 85 -244 244zM313 760l-96 110h82l69 -110h-55z" />
    <glyph glyph-name="Uhungarumlaut" unicode="&#x170;" horiz-adv-x="662" 
d="M86 229v471h61v-467c0 -127 61 -190 183 -190c123 0 185 63 185 188v469h62v-471c0 -159 -86 -244 -247 -244c-160 0 -244 85 -244 244zM218 760l69 110h82l-96 -110h-55zM354 760l69 110h82l-97 -110h-54z" />
    <glyph glyph-name="Umacron" unicode="&#x16a;" horiz-adv-x="662" 
d="M86 229v471h61v-467c0 -127 61 -190 183 -190c123 0 185 63 185 188v469h62v-471c0 -159 -86 -244 -247 -244c-160 0 -244 85 -244 244zM205 760v48h252v-48h-252z" />
    <glyph glyph-name="Uogonek" unicode="&#x172;" horiz-adv-x="662" 
d="M86 229v471h61v-467c0 -127 61 -190 183 -190c123 0 185 63 185 188v469h62v-471c0 -159 -86 -244 -247 -244c-160 0 -244 85 -244 244zM301 -115c0 44 38 91 101 127l32 -12c-55 -31 -82 -65 -82 -103c0 -24 13 -36 38 -36c19 0 39 6 60 19l19 -46
c-28 -16 -57 -24 -86 -24c-52 0 -82 27 -82 75z" />
    <glyph glyph-name="Uring" unicode="&#x16e;" horiz-adv-x="662" 
d="M86 229v471h61v-467c0 -127 61 -190 183 -190c123 0 185 63 185 188v469h62v-471c0 -159 -86 -244 -247 -244c-160 0 -244 85 -244 244zM217 770c0 61 47 107 114 107s114 -46 114 -107c0 -63 -49 -108 -114 -108s-114 45 -114 108zM401 770c0 40 -30 70 -70 70
c-41 0 -70 -30 -70 -70c0 -41 29 -70 70 -70c40 0 70 29 70 70z" />
    <glyph glyph-name="Utilde" unicode="&#x168;" horiz-adv-x="662" 
d="M86 229v471h61v-467c0 -127 61 -190 183 -190c123 0 185 63 185 188v469h62v-471c0 -159 -86 -244 -247 -244c-160 0 -244 85 -244 244zM321 778c-24 12 -35 18 -50 18c-20 0 -32 -12 -37 -36h-36c4 52 32 83 76 83c23 0 41 -8 66 -23c24 -12 35 -18 50 -18
c20 0 32 12 36 36h37c-4 -52 -32 -83 -76 -83c-23 0 -41 8 -66 23z" />
    <glyph glyph-name="V" unicode="V" horiz-adv-x="586" 
d="M260 0l-255 700h65l222 -619h2l222 619h65l-255 -700h-66z" />
    <glyph glyph-name="W" unicode="W" horiz-adv-x="834" 
d="M154 0l-134 700h63l114 -602h2l189 602h58l189 -602h2l113 602h64l-135 -700h-73l-188 598h-2l-189 -598h-73z" />
    <glyph glyph-name="Wacute" unicode="&#x1e82;" horiz-adv-x="834" 
d="M154 0l-134 700h63l114 -602h2l189 602h58l189 -602h2l113 602h64l-135 -700h-73l-188 598h-2l-189 -598h-73zM379 760l69 110h82l-96 -110h-55z" />
    <glyph glyph-name="Wcircumflex" unicode="&#x174;" horiz-adv-x="834" 
d="M154 0l-134 700h63l114 -602h2l189 602h58l189 -602h2l113 602h64l-135 -700h-73l-188 598h-2l-189 -598h-73zM525 769l-37 -29l-71 89l-71 -89l-37 29l67 85h82z" />
    <glyph glyph-name="Wdieresis" unicode="&#x1e84;" horiz-adv-x="834" 
d="M154 0l-134 700h63l114 -602h2l189 602h58l189 -602h2l113 602h64l-135 -700h-73l-188 598h-2l-189 -598h-73zM289 750v83h84v-83h-84zM461 750v83h84v-83h-84z" />
    <glyph glyph-name="Wgrave" unicode="&#x1e80;" horiz-adv-x="834" 
d="M154 0l-134 700h63l114 -602h2l189 602h58l189 -602h2l113 602h64l-135 -700h-73l-188 598h-2l-189 -598h-73zM399 760l-96 110h82l69 -110h-55z" />
    <glyph glyph-name="X" unicode="X" horiz-adv-x="537" 
d="M10 0l221 355l-215 345h72l180 -297h2l180 297h72l-215 -345l220 -355h-71l-186 307h-2l-186 -307h-72z" />
    <glyph glyph-name="Y" unicode="Y" horiz-adv-x="559" 
d="M249 0v289l-249 411h71l208 -350h2l207 350h71l-248 -411v-289h-62z" />
    <glyph glyph-name="Yacute" unicode="&#xdd;" horiz-adv-x="559" 
d="M249 0v289l-249 411h71l208 -350h2l207 350h71l-248 -411v-289h-62zM242 760l69 110h82l-96 -110h-55z" />
    <glyph glyph-name="Ycircumflex" unicode="&#x176;" horiz-adv-x="559" 
d="M249 0v289l-249 411h71l208 -350h2l207 350h71l-248 -411v-289h-62zM388 769l-37 -29l-71 89l-71 -89l-37 29l67 85h82z" />
    <glyph glyph-name="Ydieresis" unicode="&#x178;" horiz-adv-x="559" 
d="M249 0v289l-249 411h71l208 -350h2l207 350h71l-248 -411v-289h-62zM152 750v83h84v-83h-84zM324 750v83h84v-83h-84z" />
    <glyph glyph-name="uni1EF4" unicode="&#x1ef4;" horiz-adv-x="559" 
d="M249 0v289l-249 411h71l208 -350h2l207 350h71l-248 -411v-289h-62zM238 -132v83h84v-83h-84z" />
    <glyph glyph-name="Ygrave" unicode="&#x1ef2;" horiz-adv-x="559" 
d="M249 0v289l-249 411h71l208 -350h2l207 350h71l-248 -411v-289h-62zM262 760l-96 110h82l69 -110h-55z" />
    <glyph glyph-name="uni1EF8" unicode="&#x1ef8;" horiz-adv-x="559" 
d="M249 0v289l-249 411h71l208 -350h2l207 350h71l-248 -411v-289h-62zM270 778c-24 12 -35 18 -50 18c-20 0 -32 -12 -37 -36h-36c4 52 32 83 76 83c23 0 41 -8 66 -23c24 -12 35 -18 50 -18c20 0 32 12 36 36h37c-4 -52 -32 -83 -76 -83c-23 0 -41 8 -66 23z" />
    <glyph glyph-name="Z" unicode="Z" horiz-adv-x="608" 
d="M47 0v52l438 588v2h-417v58h493v-52l-438 -588v-2h423v-58h-499z" />
    <glyph glyph-name="Zacute" unicode="&#x179;" horiz-adv-x="608" 
d="M47 0v52l438 588v2h-417v58h493v-52l-438 -588v-2h423v-58h-499zM277 760l69 110h82l-96 -110h-55z" />
    <glyph glyph-name="Zcaron" unicode="&#x17d;" horiz-adv-x="608" 
d="M47 0v52l438 588v2h-417v58h493v-52l-438 -588v-2h423v-58h-499zM386 864l37 -29l-67 -85h-82l-67 85l37 29l71 -88z" />
    <glyph glyph-name="Zdotaccent" unicode="&#x17b;" horiz-adv-x="608" 
d="M47 0v52l438 588v2h-417v58h493v-52l-438 -588v-2h423v-58h-499zM273 760v83h84v-83h-84z" />
    <glyph glyph-name="uni1E92" unicode="&#x1e92;" horiz-adv-x="608" 
d="M47 0v52l438 588v2h-417v58h493v-52l-438 -588v-2h423v-58h-499zM266 -132v83h84v-83h-84z" />
    <glyph glyph-name="a" unicode="a" horiz-adv-x="509" 
d="M51 132c0 89 53 135 190 168c107 27 141 51 141 98c0 59 -46 94 -121 94c-80 0 -137 -48 -150 -127l-58 11c16 103 97 169 208 169c113 0 183 -61 183 -161v-384h-55v69h-2c-28 -51 -94 -84 -166 -84c-105 0 -170 56 -170 147zM386 174v144h-2c-13 -29 -50 -48 -127 -67
c-108 -28 -148 -59 -148 -116c0 -61 41 -96 116 -96c91 0 161 58 161 135z" />
    <glyph glyph-name="aacute" unicode="&#xe1;" horiz-adv-x="509" 
d="M51 132c0 89 53 135 190 168c107 27 141 51 141 98c0 59 -46 94 -121 94c-80 0 -137 -48 -150 -127l-58 11c16 103 97 169 208 169c113 0 183 -61 183 -161v-384h-55v69h-2c-28 -51 -94 -84 -166 -84c-105 0 -170 56 -170 147zM386 174v144h-2c-13 -29 -50 -48 -127 -67
c-108 -28 -148 -59 -148 -116c0 -61 41 -96 116 -96c91 0 161 58 161 135zM223 605l69 110h82l-96 -110h-55z" />
    <glyph glyph-name="abreve" unicode="&#x103;" horiz-adv-x="509" 
d="M51 132c0 89 53 135 190 168c107 27 141 51 141 98c0 59 -46 94 -121 94c-80 0 -137 -48 -150 -127l-58 11c16 103 97 169 208 169c113 0 183 -61 183 -161v-384h-55v69h-2c-28 -51 -94 -84 -166 -84c-105 0 -170 56 -170 147zM386 174v144h-2c-13 -29 -50 -48 -127 -67
c-108 -28 -148 -59 -148 -116c0 -61 41 -96 116 -96c91 0 161 58 161 135zM146 706h38c7 -37 34 -59 78 -59c43 0 70 22 77 59h38c-4 -68 -47 -111 -115 -111c-69 0 -113 43 -116 111z" />
    <glyph glyph-name="uni01CE" unicode="&#x1ce;" horiz-adv-x="509" 
d="M51 132c0 89 53 135 190 168c107 27 141 51 141 98c0 59 -46 94 -121 94c-80 0 -137 -48 -150 -127l-58 11c16 103 97 169 208 169c113 0 183 -61 183 -161v-384h-55v69h-2c-28 -51 -94 -84 -166 -84c-105 0 -170 56 -170 147zM386 174v144h-2c-13 -29 -50 -48 -127 -67
c-108 -28 -148 -59 -148 -116c0 -61 41 -96 116 -96c91 0 161 58 161 135zM332 709l37 -29l-67 -85h-82l-67 85l37 29l71 -88z" />
    <glyph glyph-name="acircumflex" unicode="&#xe2;" horiz-adv-x="509" 
d="M51 132c0 89 53 135 190 168c107 27 141 51 141 98c0 59 -46 94 -121 94c-80 0 -137 -48 -150 -127l-58 11c16 103 97 169 208 169c113 0 183 -61 183 -161v-384h-55v69h-2c-28 -51 -94 -84 -166 -84c-105 0 -170 56 -170 147zM386 174v144h-2c-13 -29 -50 -48 -127 -67
c-108 -28 -148 -59 -148 -116c0 -61 41 -96 116 -96c91 0 161 58 161 135zM369 614l-37 -29l-71 89l-71 -89l-37 29l67 85h82z" />
    <glyph glyph-name="uni1EAD" unicode="&#x1ead;" horiz-adv-x="509" 
d="M51 132c0 89 53 135 190 168c107 27 141 51 141 98c0 59 -46 94 -121 94c-80 0 -137 -48 -150 -127l-58 11c16 103 97 169 208 169c113 0 183 -61 183 -161v-384h-55v69h-2c-28 -51 -94 -84 -166 -84c-105 0 -170 56 -170 147zM386 174v144h-2c-13 -29 -50 -48 -127 -67
c-108 -28 -148 -59 -148 -116c0 -61 41 -96 116 -96c91 0 161 58 161 135zM369 614l-37 -29l-71 89l-71 -89l-37 29l67 85h82zM216 -147v83h84v-83h-84z" />
    <glyph glyph-name="adieresis" unicode="&#xe4;" horiz-adv-x="509" 
d="M51 132c0 89 53 135 190 168c107 27 141 51 141 98c0 59 -46 94 -121 94c-80 0 -137 -48 -150 -127l-58 11c16 103 97 169 208 169c113 0 183 -61 183 -161v-384h-55v69h-2c-28 -51 -94 -84 -166 -84c-105 0 -170 56 -170 147zM386 174v144h-2c-13 -29 -50 -48 -127 -67
c-108 -28 -148 -59 -148 -116c0 -61 41 -96 116 -96c91 0 161 58 161 135zM133 595v83h84v-83h-84zM305 595v83h84v-83h-84z" />
    <glyph glyph-name="uni01DF" unicode="&#x1df;" horiz-adv-x="509" 
d="M51 132c0 89 53 135 190 168c107 27 141 51 141 98c0 59 -46 94 -121 94c-80 0 -137 -48 -150 -127l-58 11c16 103 97 169 208 169c113 0 183 -61 183 -161v-384h-55v69h-2c-28 -51 -94 -84 -166 -84c-105 0 -170 56 -170 147zM386 174v144h-2c-13 -29 -50 -48 -127 -67
c-108 -28 -148 -59 -148 -116c0 -61 41 -96 116 -96c91 0 161 58 161 135zM133 595v83h84v-83h-84zM305 595v83h84v-83h-84zM135 718v48h252v-48h-252z" />
    <glyph glyph-name="uni1EA1" unicode="&#x1ea1;" horiz-adv-x="509" 
d="M51 132c0 89 53 135 190 168c107 27 141 51 141 98c0 59 -46 94 -121 94c-80 0 -137 -48 -150 -127l-58 11c16 103 97 169 208 169c113 0 183 -61 183 -161v-384h-55v69h-2c-28 -51 -94 -84 -166 -84c-105 0 -170 56 -170 147zM386 174v144h-2c-13 -29 -50 -48 -127 -67
c-108 -28 -148 -59 -148 -116c0 -61 41 -96 116 -96c91 0 161 58 161 135zM216 -147v83h84v-83h-84z" />
    <glyph glyph-name="agrave" unicode="&#xe0;" horiz-adv-x="509" 
d="M51 132c0 89 53 135 190 168c107 27 141 51 141 98c0 59 -46 94 -121 94c-80 0 -137 -48 -150 -127l-58 11c16 103 97 169 208 169c113 0 183 -61 183 -161v-384h-55v69h-2c-28 -51 -94 -84 -166 -84c-105 0 -170 56 -170 147zM386 174v144h-2c-13 -29 -50 -48 -127 -67
c-108 -28 -148 -59 -148 -116c0 -61 41 -96 116 -96c91 0 161 58 161 135zM243 605l-96 110h82l69 -110h-55z" />
    <glyph glyph-name="amacron" unicode="&#x101;" horiz-adv-x="509" 
d="M51 132c0 89 53 135 190 168c107 27 141 51 141 98c0 59 -46 94 -121 94c-80 0 -137 -48 -150 -127l-58 11c16 103 97 169 208 169c113 0 183 -61 183 -161v-384h-55v69h-2c-28 -51 -94 -84 -166 -84c-105 0 -170 56 -170 147zM386 174v144h-2c-13 -29 -50 -48 -127 -67
c-108 -28 -148 -59 -148 -116c0 -61 41 -96 116 -96c91 0 161 58 161 135zM135 605v48h252v-48h-252z" />
    <glyph glyph-name="aogonek" unicode="&#x105;" horiz-adv-x="509" 
d="M51 132c0 89 53 135 190 168c107 27 141 51 141 98c0 59 -46 94 -121 94c-80 0 -137 -48 -150 -127l-58 11c16 103 97 169 208 169c113 0 183 -61 183 -161v-384h-55v69h-2c-28 -51 -94 -84 -166 -84c-105 0 -170 56 -170 147zM386 174v144h-2c-13 -29 -50 -48 -127 -67
c-108 -28 -148 -59 -148 -116c0 -61 41 -96 116 -96c91 0 161 58 161 135zM306 -115c0 44 38 91 101 127l32 -12c-55 -31 -82 -65 -82 -103c0 -24 13 -36 38 -36c19 0 39 6 60 19l19 -46c-28 -16 -57 -24 -86 -24c-52 0 -82 27 -82 75z" />
    <glyph glyph-name="aring" unicode="&#xe5;" horiz-adv-x="509" 
d="M153 671c0 57 44 98 105 98c60 0 104 -41 104 -98s-44 -99 -104 -99c-61 0 -105 42 -105 99zM322 671c0 37 -28 64 -64 64c-37 0 -65 -27 -65 -64s26 -64 65 -64c36 0 64 27 64 64zM51 132c0 89 53 135 190 168c107 27 141 51 141 98c0 59 -46 94 -121 94
c-80 0 -137 -48 -150 -127l-58 11c16 103 97 169 208 169c113 0 183 -61 183 -161v-384h-55v69h-2c-28 -51 -94 -84 -166 -84c-105 0 -170 56 -170 147zM386 174v144h-2c-13 -29 -50 -48 -127 -67c-108 -28 -148 -59 -148 -116c0 -61 41 -96 116 -96c91 0 161 58 161 135z
" />
    <glyph glyph-name="aringacute" unicode="&#x1fb;" horiz-adv-x="513" 
d="M153 678c0 44 27 80 68 93l64 101h82l-86 -98c48 -9 81 -47 81 -96c0 -57 -44 -99 -104 -99c-61 0 -105 42 -105 99zM193 678c0 -37 26 -64 65 -64c36 0 64 27 64 64s-28 64 -64 64c-37 0 -65 -27 -65 -64zM444 384v-384h-55v69h-2c-28 -51 -94 -84 -166 -84
c-105 0 -170 56 -170 147c0 89 53 135 190 168c107 27 141 51 141 98c0 59 -46 94 -121 94c-80 0 -137 -48 -150 -127l-58 11c16 103 97 169 208 169c113 0 183 -61 183 -161zM386 174v144h-2c-13 -29 -50 -48 -127 -67c-108 -28 -148 -59 -148 -116c0 -61 41 -96 116 -96
c91 0 161 58 161 135z" />
    <glyph glyph-name="atilde" unicode="&#xe3;" horiz-adv-x="509" 
d="M51 132c0 89 53 135 190 168c107 27 141 51 141 98c0 59 -46 94 -121 94c-80 0 -137 -48 -150 -127l-58 11c16 103 97 169 208 169c113 0 183 -61 183 -161v-384h-55v69h-2c-28 -51 -94 -84 -166 -84c-105 0 -170 56 -170 147zM386 174v144h-2c-13 -29 -50 -48 -127 -67
c-108 -28 -148 -59 -148 -116c0 -61 41 -96 116 -96c91 0 161 58 161 135zM251 623c-24 12 -35 18 -50 18c-20 0 -32 -12 -37 -36h-36c4 52 32 83 76 83c23 0 41 -8 66 -23c24 -12 35 -18 50 -18c20 0 32 12 36 36h37c-4 -52 -32 -83 -76 -83c-23 0 -41 8 -66 23z" />
    <glyph glyph-name="ae" unicode="&#xe6;" horiz-adv-x="901" 
d="M850 277v-27h-406c1 -65 17 -117 49 -156s75 -58 128 -58c81 0 130 33 170 117l47 -28c-41 -92 -116 -140 -215 -140c-88 0 -162 44 -201 121c-28 -75 -101 -121 -200 -121c-105 0 -169 56 -169 147c0 37 9 66 27 88c37 44 86 61 167 82c89 23 133 38 138 97
c0 59 -45 95 -124 95c-81 0 -140 -48 -153 -127l-55 10c17 103 98 168 207 168c91 0 156 -39 173 -106c39 67 108 106 188 106c135 0 229 -109 229 -268zM445 297h348c-1 59 -17 107 -49 143s-73 54 -123 54c-98 0 -174 -81 -176 -197zM388 173v147h-2
c-16 -33 -55 -47 -127 -67c-92 -25 -146 -45 -151 -118c0 -64 41 -99 118 -99c93 0 162 61 162 137z" />
    <glyph glyph-name="aeacute" unicode="&#x1fd;" horiz-adv-x="901" 
d="M850 277v-27h-406c1 -65 17 -117 49 -156s75 -58 128 -58c81 0 130 33 170 117l47 -28c-41 -92 -116 -140 -215 -140c-88 0 -162 44 -201 121c-28 -75 -101 -121 -200 -121c-105 0 -169 56 -169 147c0 37 9 66 27 88c37 44 86 61 167 82c89 23 133 38 138 97
c0 59 -45 95 -124 95c-81 0 -140 -48 -153 -127l-55 10c17 103 98 168 207 168c91 0 156 -39 173 -106c39 67 108 106 188 106c135 0 229 -109 229 -268zM445 297h348c-1 59 -17 107 -49 143s-73 54 -123 54c-98 0 -174 -81 -176 -197zM388 173v147h-2
c-16 -33 -55 -47 -127 -67c-92 -25 -146 -45 -151 -118c0 -64 41 -99 118 -99c93 0 162 61 162 137zM413 590l69 110h82l-96 -110h-55z" />
    <glyph glyph-name="b" unicode="b" horiz-adv-x="583" 
d="M129 66h-2v-66h-56v730h58v-267h2c35 51 95 82 166 82c138 0 236 -116 236 -280c0 -165 -98 -280 -236 -280c-71 0 -133 30 -168 81zM475 265c0 133 -73 226 -178 226c-93 0 -168 -72 -168 -158v-134c0 -87 74 -160 164 -160c109 0 182 92 182 226z" />
    <glyph glyph-name="uni1E05" unicode="&#x1e05;" horiz-adv-x="583" 
d="M129 66h-2v-66h-56v730h58v-267h2c35 51 95 82 166 82c138 0 236 -116 236 -280c0 -165 -98 -280 -236 -280c-71 0 -133 30 -168 81zM475 265c0 133 -73 226 -178 226c-93 0 -168 -72 -168 -158v-134c0 -87 74 -160 164 -160c109 0 182 92 182 226zM258 -147v83h84v-83
h-84z" />
    <glyph glyph-name="c" unicode="c" horiz-adv-x="563" 
d="M51 265c0 165 100 280 241 280c117 0 205 -74 225 -190l-56 -12c-17 95 -80 148 -169 148c-108 0 -183 -93 -183 -226s75 -226 183 -226c89 0 152 53 169 148l56 -12c-20 -116 -108 -190 -225 -190c-141 0 -241 115 -241 280z" />
    <glyph glyph-name="cacute" unicode="&#x107;" horiz-adv-x="563" 
d="M51 265c0 165 100 280 241 280c117 0 205 -74 225 -190l-56 -12c-17 95 -80 148 -169 148c-108 0 -183 -93 -183 -226s75 -226 183 -226c89 0 152 53 169 148l56 -12c-20 -116 -108 -190 -225 -190c-141 0 -241 115 -241 280zM254 605l69 110h82l-96 -110h-55z" />
    <glyph glyph-name="ccaron" unicode="&#x10d;" horiz-adv-x="563" 
d="M51 265c0 165 100 280 241 280c117 0 205 -74 225 -190l-56 -12c-17 95 -80 148 -169 148c-108 0 -183 -93 -183 -226s75 -226 183 -226c89 0 152 53 169 148l56 -12c-20 -116 -108 -190 -225 -190c-141 0 -241 115 -241 280zM363 709l37 -29l-67 -85h-82l-67 85l37 29
l71 -88z" />
    <glyph glyph-name="ccedilla" unicode="&#xe7;" horiz-adv-x="563" 
d="M51 265c0 165 100 280 241 280c117 0 205 -74 225 -190l-56 -12c-17 95 -80 148 -169 148c-108 0 -183 -93 -183 -226s75 -226 183 -226c89 0 152 53 169 148l56 -12c-20 -116 -108 -190 -225 -190c-141 0 -241 115 -241 280zM409 -137c0 -52 -41 -87 -97 -87
c-38 0 -70 13 -97 40l28 32c21 -21 44 -32 69 -32c31 0 54 20 54 48s-21 45 -52 45c-25 0 -44 -9 -59 -28l-34 16l60 111l35 -13l-35 -60c12 6 26 9 41 9c49 0 87 -34 87 -81z" />
    <glyph glyph-name="ccircumflex" unicode="&#x109;" horiz-adv-x="563" 
d="M51 265c0 165 100 280 241 280c117 0 205 -74 225 -190l-56 -12c-17 95 -80 148 -169 148c-108 0 -183 -93 -183 -226s75 -226 183 -226c89 0 152 53 169 148l56 -12c-20 -116 -108 -190 -225 -190c-141 0 -241 115 -241 280zM400 614l-37 -29l-71 89l-71 -89l-37 29
l67 85h82z" />
    <glyph glyph-name="cdotaccent" unicode="&#x10b;" horiz-adv-x="563" 
d="M51 265c0 165 100 280 241 280c117 0 205 -74 225 -190l-56 -12c-17 95 -80 148 -169 148c-108 0 -183 -93 -183 -226s75 -226 183 -226c89 0 152 53 169 148l56 -12c-20 -116 -108 -190 -225 -190c-141 0 -241 115 -241 280zM250 605v83h84v-83h-84z" />
    <glyph glyph-name="d" unicode="d" horiz-adv-x="583" 
d="M50 265c0 164 98 280 236 280c71 0 131 -31 166 -82h2v267h58v-730h-56v66h-2c-35 -51 -97 -81 -168 -81c-138 0 -236 115 -236 280zM454 199v134c0 86 -75 158 -168 158c-105 0 -178 -93 -178 -226c0 -134 73 -226 182 -226c90 0 164 73 164 160z" />
    <glyph glyph-name="eth" unicode="&#xf0;" horiz-adv-x="593" 
d="M542 265c0 -167 -98 -280 -245 -280c-145 0 -246 115 -246 280c0 166 99 280 242 280c64 0 120 -27 156 -72h2c-21 58 -53 116 -96 175l-142 -48l-12 34l131 44c-18 23 -46 54 -84 95v2h65c27 -28 50 -55 69 -81l141 47l12 -34l-130 -43c91 -128 137 -261 137 -399z
M484 265c0 135 -74 226 -187 226c-112 0 -188 -92 -188 -226s76 -226 188 -226c113 0 187 91 187 226z" />
    <glyph glyph-name="dcaron" unicode="&#x10f;" horiz-adv-x="633" 
d="M50 265c0 164 98 280 236 280c71 0 131 -31 166 -82h2v267h58v-730h-56v66h-2c-35 -51 -97 -81 -168 -81c-138 0 -236 115 -236 280zM454 199v134c0 86 -75 158 -168 158c-105 0 -178 -93 -178 -226c0 -134 73 -226 182 -226c90 0 164 73 164 160zM563 573v32
c24 5 34 17 34 44h-38v81h88v-71c0 -52 -29 -82 -84 -86z" />
    <glyph glyph-name="dcroat" unicode="&#x111;" horiz-adv-x="583" 
d="M50 265c0 164 98 280 236 280c71 0 131 -31 166 -82h2v267h58v-730h-56v66h-2c-35 -51 -97 -81 -168 -81c-138 0 -236 115 -236 280zM454 199v134c0 86 -75 158 -168 158c-105 0 -178 -93 -178 -226c0 -134 73 -226 182 -226c90 0 164 73 164 160zM310 618v45h265v-45
h-265z" />
    <glyph glyph-name="uni1E0D" unicode="&#x1e0d;" horiz-adv-x="583" 
d="M50 265c0 164 98 280 236 280c71 0 131 -31 166 -82h2v267h58v-730h-56v66h-2c-35 -51 -97 -81 -168 -81c-138 0 -236 115 -236 280zM454 199v134c0 86 -75 158 -168 158c-105 0 -178 -93 -178 -226c0 -134 73 -226 182 -226c90 0 164 73 164 160zM248 -137v83h84v-83
h-84z" />
    <glyph glyph-name="e" unicode="e" horiz-adv-x="576" 
d="M51 265c0 164 97 280 239 280c141 0 235 -106 235 -268v-27h-415c1 -62 17 -113 50 -153c33 -39 76 -59 131 -59c81 0 132 33 173 116l48 -28c-41 -93 -117 -141 -220 -141c-144 0 -241 111 -241 280zM111 298h355c-1 57 -18 103 -50 139c-32 37 -74 55 -126 55
c-101 0 -177 -89 -179 -194z" />
    <glyph glyph-name="eacute" unicode="&#xe9;" horiz-adv-x="576" 
d="M51 265c0 164 97 280 239 280c141 0 235 -106 235 -268v-27h-415c1 -62 17 -113 50 -153c33 -39 76 -59 131 -59c81 0 132 33 173 116l48 -28c-41 -93 -117 -141 -220 -141c-144 0 -241 111 -241 280zM111 298h355c-1 57 -18 103 -50 139c-32 37 -74 55 -126 55
c-101 0 -177 -89 -179 -194zM252 605l69 110h82l-96 -110h-55z" />
    <glyph glyph-name="ebreve" unicode="&#x115;" horiz-adv-x="576" 
d="M51 265c0 164 97 280 239 280c141 0 235 -106 235 -268v-27h-415c1 -62 17 -113 50 -153c33 -39 76 -59 131 -59c81 0 132 33 173 116l48 -28c-41 -93 -117 -141 -220 -141c-144 0 -241 111 -241 280zM111 298h355c-1 57 -18 103 -50 139c-32 37 -74 55 -126 55
c-101 0 -177 -89 -179 -194zM175 706h38c7 -37 34 -59 78 -59c43 0 70 22 77 59h38c-4 -68 -47 -111 -115 -111c-69 0 -113 43 -116 111z" />
    <glyph glyph-name="ecaron" unicode="&#x11b;" horiz-adv-x="576" 
d="M51 265c0 164 97 280 239 280c141 0 235 -106 235 -268v-27h-415c1 -62 17 -113 50 -153c33 -39 76 -59 131 -59c81 0 132 33 173 116l48 -28c-41 -93 -117 -141 -220 -141c-144 0 -241 111 -241 280zM111 298h355c-1 57 -18 103 -50 139c-32 37 -74 55 -126 55
c-101 0 -177 -89 -179 -194zM361 709l37 -29l-67 -85h-82l-67 85l37 29l71 -88z" />
    <glyph glyph-name="uni0229" unicode="&#x229;" horiz-adv-x="576" 
d="M51 265c0 164 97 280 239 280c141 0 235 -106 235 -268v-27h-415c1 -62 17 -113 50 -153c33 -39 76 -59 131 -59c81 0 132 33 173 116l48 -28c-41 -93 -117 -141 -220 -141c-144 0 -241 111 -241 280zM111 298h355c-1 57 -18 103 -50 139c-32 37 -74 55 -126 55
c-101 0 -177 -89 -179 -194zM409 -137c0 -52 -41 -87 -97 -87c-38 0 -70 13 -97 40l28 32c21 -21 44 -32 69 -32c31 0 54 20 54 48s-21 45 -52 45c-25 0 -44 -9 -59 -28l-34 16l60 111l35 -13l-35 -60c12 6 26 9 41 9c49 0 87 -34 87 -81z" />
    <glyph glyph-name="ecircumflex" unicode="&#xea;" horiz-adv-x="576" 
d="M51 265c0 164 97 280 239 280c141 0 235 -106 235 -268v-27h-415c1 -62 17 -113 50 -153c33 -39 76 -59 131 -59c81 0 132 33 173 116l48 -28c-41 -93 -117 -141 -220 -141c-144 0 -241 111 -241 280zM111 298h355c-1 57 -18 103 -50 139c-32 37 -74 55 -126 55
c-101 0 -177 -89 -179 -194zM398 614l-37 -29l-71 89l-71 -89l-37 29l67 85h82z" />
    <glyph glyph-name="uni1EC7" unicode="&#x1ec7;" horiz-adv-x="576" 
d="M51 265c0 164 97 280 239 280c141 0 235 -106 235 -268v-27h-415c1 -62 17 -113 50 -153c33 -39 76 -59 131 -59c81 0 132 33 173 116l48 -28c-41 -93 -117 -141 -220 -141c-144 0 -241 111 -241 280zM111 298h355c-1 57 -18 103 -50 139c-32 37 -74 55 -126 55
c-101 0 -177 -89 -179 -194zM398 614l-37 -29l-71 89l-71 -89l-37 29l67 85h82zM250 -147v83h84v-83h-84z" />
    <glyph glyph-name="edieresis" unicode="&#xeb;" horiz-adv-x="576" 
d="M51 265c0 164 97 280 239 280c141 0 235 -106 235 -268v-27h-415c1 -62 17 -113 50 -153c33 -39 76 -59 131 -59c81 0 132 33 173 116l48 -28c-41 -93 -117 -141 -220 -141c-144 0 -241 111 -241 280zM111 298h355c-1 57 -18 103 -50 139c-32 37 -74 55 -126 55
c-101 0 -177 -89 -179 -194zM162 595v83h84v-83h-84zM334 595v83h84v-83h-84z" />
    <glyph glyph-name="edotaccent" unicode="&#x117;" horiz-adv-x="576" 
d="M51 265c0 164 97 280 239 280c141 0 235 -106 235 -268v-27h-415c1 -62 17 -113 50 -153c33 -39 76 -59 131 -59c81 0 132 33 173 116l48 -28c-41 -93 -117 -141 -220 -141c-144 0 -241 111 -241 280zM111 298h355c-1 57 -18 103 -50 139c-32 37 -74 55 -126 55
c-101 0 -177 -89 -179 -194zM248 605v83h84v-83h-84z" />
    <glyph glyph-name="uni1EB9" unicode="&#x1eb9;" horiz-adv-x="576" 
d="M51 265c0 164 97 280 239 280c141 0 235 -106 235 -268v-27h-415c1 -62 17 -113 50 -153c33 -39 76 -59 131 -59c81 0 132 33 173 116l48 -28c-41 -93 -117 -141 -220 -141c-144 0 -241 111 -241 280zM111 298h355c-1 57 -18 103 -50 139c-32 37 -74 55 -126 55
c-101 0 -177 -89 -179 -194zM250 -147v83h84v-83h-84z" />
    <glyph glyph-name="egrave" unicode="&#xe8;" horiz-adv-x="576" 
d="M51 265c0 164 97 280 239 280c141 0 235 -106 235 -268v-27h-415c1 -62 17 -113 50 -153c33 -39 76 -59 131 -59c81 0 132 33 173 116l48 -28c-41 -93 -117 -141 -220 -141c-144 0 -241 111 -241 280zM111 298h355c-1 57 -18 103 -50 139c-32 37 -74 55 -126 55
c-101 0 -177 -89 -179 -194zM272 605l-96 110h82l69 -110h-55z" />
    <glyph glyph-name="emacron" unicode="&#x113;" horiz-adv-x="576" 
d="M51 265c0 164 97 280 239 280c141 0 235 -106 235 -268v-27h-415c1 -62 17 -113 50 -153c33 -39 76 -59 131 -59c81 0 132 33 173 116l48 -28c-41 -93 -117 -141 -220 -141c-144 0 -241 111 -241 280zM111 298h355c-1 57 -18 103 -50 139c-32 37 -74 55 -126 55
c-101 0 -177 -89 -179 -194zM164 605v48h252v-48h-252z" />
    <glyph glyph-name="eogonek" unicode="&#x119;" horiz-adv-x="576" 
d="M51 265c0 164 97 280 239 280c141 0 235 -106 235 -268v-27h-415c1 -62 17 -113 50 -153c33 -39 76 -59 131 -59c81 0 132 33 173 116l48 -28c-41 -93 -117 -141 -220 -141c-144 0 -241 111 -241 280zM111 298h355c-1 57 -18 103 -50 139c-32 37 -74 55 -126 55
c-101 0 -177 -89 -179 -194zM249 -115c0 44 38 91 101 127l32 -12c-55 -31 -82 -65 -82 -103c0 -24 13 -36 38 -36c19 0 39 6 60 19l19 -46c-28 -16 -57 -24 -86 -24c-52 0 -82 27 -82 75z" />
    <glyph glyph-name="uni0258" unicode="&#x258;" horiz-adv-x="576" 
d="M64 126l48 28c41 -83 92 -116 173 -116c55 0 98 20 131 59c33 40 49 91 50 153h-415v27c0 162 94 268 235 268c142 0 239 -116 239 -280c0 -169 -97 -280 -241 -280c-103 0 -179 48 -220 141zM286 492c-52 0 -94 -18 -126 -55c-32 -36 -49 -82 -50 -139h355
c-2 105 -78 194 -179 194z" />
    <glyph glyph-name="uni1EBD" unicode="&#x1ebd;" horiz-adv-x="576" 
d="M51 265c0 164 97 280 239 280c141 0 235 -106 235 -268v-27h-415c1 -62 17 -113 50 -153c33 -39 76 -59 131 -59c81 0 132 33 173 116l48 -28c-41 -93 -117 -141 -220 -141c-144 0 -241 111 -241 280zM111 298h355c-1 57 -18 103 -50 139c-32 37 -74 55 -126 55
c-101 0 -177 -89 -179 -194zM280 623c-24 12 -35 18 -50 18c-20 0 -32 -12 -37 -36h-36c4 52 32 83 76 83c23 0 41 -8 66 -23c24 -12 35 -18 50 -18c20 0 32 12 36 36h37c-4 -52 -32 -83 -76 -83c-23 0 -41 8 -66 23z" />
    <glyph glyph-name="uni0259" unicode="&#x259;" horiz-adv-x="576" 
d="M51 253v27h415c-1 62 -18 113 -51 152c-32 40 -75 60 -130 60c-80 0 -130 -36 -173 -119l-48 26c43 93 119 146 219 146c146 0 242 -111 242 -280c0 -164 -97 -280 -240 -280c-141 0 -234 106 -234 268zM465 232h-355c2 -112 72 -194 175 -194c100 0 178 89 180 194z" />
    <glyph glyph-name="f" unicode="f" horiz-adv-x="318" 
d="M111 0v478h-89v52h89v61c0 65 41 105 110 105h72v-54h-66c-40 0 -58 -18 -58 -59v-53h136v-52h-136v-478h-58z" />
    <glyph glyph-name="g" unicode="g" horiz-adv-x="578" 
d="M94 -96l53 23c31 -79 79 -113 156 -113c95 0 152 66 152 171v83h-2c-35 -53 -94 -83 -170 -83c-135 0 -232 118 -232 280c0 164 98 280 235 280c69 0 131 -30 167 -82h2v67h58v-548c0 -133 -84 -222 -210 -222c-101 0 -178 53 -209 144zM455 199v134
c0 86 -76 158 -169 158c-104 0 -177 -93 -177 -226c0 -132 73 -225 178 -225c93 0 168 72 168 159z" />
    <glyph glyph-name="gbreve" unicode="&#x11f;" horiz-adv-x="578" 
d="M94 -96l53 23c31 -79 79 -113 156 -113c95 0 152 66 152 171v83h-2c-35 -53 -94 -83 -170 -83c-135 0 -232 118 -232 280c0 164 98 280 235 280c69 0 131 -30 167 -82h2v67h58v-548c0 -133 -84 -222 -210 -222c-101 0 -178 53 -209 144zM455 199v134
c0 86 -76 158 -169 158c-104 0 -177 -93 -177 -226c0 -132 73 -225 178 -225c93 0 168 72 168 159zM171 706h38c7 -37 34 -59 78 -59c43 0 70 22 77 59h38c-4 -68 -47 -111 -115 -111c-69 0 -113 43 -116 111z" />
    <glyph glyph-name="gcircumflex" unicode="&#x11d;" horiz-adv-x="578" 
d="M94 -96l53 23c31 -79 79 -113 156 -113c95 0 152 66 152 171v83h-2c-35 -53 -94 -83 -170 -83c-135 0 -232 118 -232 280c0 164 98 280 235 280c69 0 131 -30 167 -82h2v67h58v-548c0 -133 -84 -222 -210 -222c-101 0 -178 53 -209 144zM455 199v134
c0 86 -76 158 -169 158c-104 0 -177 -93 -177 -226c0 -132 73 -225 178 -225c93 0 168 72 168 159zM394 614l-37 -29l-71 89l-71 -89l-37 29l67 85h82z" />
    <glyph glyph-name="uni0123" unicode="&#x123;" horiz-adv-x="578" 
d="M94 -96l53 23c31 -79 79 -113 156 -113c95 0 152 66 152 171v83h-2c-35 -53 -94 -83 -170 -83c-135 0 -232 118 -232 280c0 164 98 280 235 280c69 0 131 -30 167 -82h2v67h58v-548c0 -133 -84 -222 -210 -222c-101 0 -178 53 -209 144zM455 199v134
c0 86 -76 158 -169 158c-104 0 -177 -93 -177 -226c0 -132 73 -225 178 -225c93 0 168 72 168 159zM330 762v-32c-25 -5 -36 -17 -36 -44h40v-81h-93v71c0 52 32 82 89 86z" />
    <glyph glyph-name="gdotaccent" unicode="&#x121;" horiz-adv-x="578" 
d="M94 -96l53 23c31 -79 79 -113 156 -113c95 0 152 66 152 171v83h-2c-35 -53 -94 -83 -170 -83c-135 0 -232 118 -232 280c0 164 98 280 235 280c69 0 131 -30 167 -82h2v67h58v-548c0 -133 -84 -222 -210 -222c-101 0 -178 53 -209 144zM455 199v134
c0 86 -76 158 -169 158c-104 0 -177 -93 -177 -226c0 -132 73 -225 178 -225c93 0 168 72 168 159zM244 605v83h84v-83h-84z" />
    <glyph glyph-name="h" unicode="h" horiz-adv-x="554" 
d="M71 0v730h58v-265h2c31 49 93 80 160 80c59 0 107 -18 143 -54c37 -36 55 -83 55 -142v-349h-58v338c0 95 -57 153 -146 153c-92 0 -156 -62 -156 -153v-338h-58z" />
    <glyph glyph-name="hbar" unicode="&#x127;" horiz-adv-x="554" 
d="M71 0v730h58v-265h2c31 49 93 80 160 80c59 0 107 -18 143 -54c37 -36 55 -83 55 -142v-349h-58v338c0 95 -57 153 -146 153c-92 0 -156 -62 -156 -153v-338h-58zM5 618v45h265v-45h-265z" />
    <glyph glyph-name="hcircumflex" unicode="&#x125;" horiz-adv-x="554" 
d="M71 0v730h58v-265h2c31 49 93 80 160 80c59 0 107 -18 143 -54c37 -36 55 -83 55 -142v-349h-58v338c0 95 -57 153 -146 153c-92 0 -156 -62 -156 -153v-338h-58zM396 769l-37 -29l-71 89l-71 -89l-37 29l67 85h82z" />
    <glyph glyph-name="uni1E25" unicode="&#x1e25;" horiz-adv-x="554" 
d="M71 0v730h58v-265h2c31 49 93 80 160 80c59 0 107 -18 143 -54c37 -36 55 -83 55 -142v-349h-58v338c0 95 -57 153 -146 153c-92 0 -156 -62 -156 -153v-338h-58zM238 -132v83h84v-83h-84z" />
    <glyph glyph-name="i" unicode="i" horiz-adv-x="199" 
d="M71 0v530h58v-530h-58zM61 624v74h76v-74h-76z" />
    <glyph glyph-name="dotlessi" unicode="&#x131;" horiz-adv-x="199" 
d="M71 0v530h58v-530h-58z" />
    <glyph glyph-name="iacute" unicode="&#xed;" horiz-adv-x="199" 
d="M71 0v530h58v-530h-58zM62 590l69 110h82l-96 -110h-55z" />
    <glyph glyph-name="ibreve" unicode="&#x12d;" horiz-adv-x="199" 
d="M71 0v530h58v-530h-58zM-15 691h38c7 -37 34 -59 78 -59c43 0 70 22 77 59h38c-4 -68 -47 -111 -115 -111c-69 0 -113 43 -116 111z" />
    <glyph glyph-name="uni01D0" unicode="&#x1d0;" horiz-adv-x="199" 
d="M71 0v530h58v-530h-58zM171 694l37 -29l-67 -85h-82l-67 85l37 29l71 -88z" />
    <glyph glyph-name="icircumflex" unicode="&#xee;" horiz-adv-x="199" 
d="M71 0v530h58v-530h-58zM208 599l-37 -29l-71 89l-71 -89l-37 29l67 85h82z" />
    <glyph glyph-name="idieresis" unicode="&#xef;" horiz-adv-x="193" 
d="M-23 580v83h85v-83h-85zM131 580v83h84v-83h-84zM71 0v530h58v-530h-58z" />
    <glyph glyph-name="i.locl" horiz-adv-x="199" 
d="M71 0v530h58v-530h-58zM62 624v74h76v-74h-76z" />
    <glyph glyph-name="uni1ECB" unicode="&#x1ecb;" horiz-adv-x="199" 
d="M71 0v530h58v-530h-58zM61 624v74h76v-74h-76zM54 -132v83h84v-83h-84z" />
    <glyph glyph-name="igrave" unicode="&#xec;" horiz-adv-x="199" 
d="M71 0v530h58v-530h-58zM82 590l-96 110h82l69 -110h-55z" />
    <glyph glyph-name="imacron" unicode="&#x12b;" horiz-adv-x="199" 
d="M71 0v530h58v-530h-58zM-26 590v48h252v-48h-252z" />
    <glyph glyph-name="iogonek" unicode="&#x12f;" horiz-adv-x="199" 
d="M71 0v530h58v-530h-58zM-10 -115c0 44 38 91 101 127l32 -12c-55 -31 -82 -65 -82 -103c0 -24 13 -36 38 -36c19 0 39 6 60 19l19 -46c-28 -16 -57 -24 -86 -24c-52 0 -82 27 -82 75zM62 624v74h76v-74h-76z" />
    <glyph glyph-name="itilde" unicode="&#x129;" horiz-adv-x="199" 
d="M71 0v530h58v-530h-58zM90 608c-24 12 -35 18 -50 18c-20 0 -32 -12 -37 -36h-36c4 52 32 83 76 83c23 0 41 -8 66 -23c24 -12 35 -18 50 -18c20 0 32 12 36 36h37c-4 -52 -32 -83 -76 -83c-23 0 -41 8 -66 23z" />
    <glyph glyph-name="j" unicode="j" horiz-adv-x="210" 
d="M-10 -163v55h41c35 0 51 14 51 47v591h58v-592c0 -72 -32 -101 -107 -101h-43zM72 624v74h76v-74h-76z" />
    <glyph glyph-name="uni0237" unicode="&#x237;" horiz-adv-x="210" 
d="M-10 -163v55h41c35 0 51 14 51 47v591h58v-592c0 -72 -32 -101 -107 -101h-43z" />
    <glyph glyph-name="jcircumflex" unicode="&#x135;" horiz-adv-x="210" 
d="M-10 -163v55h41c35 0 51 14 51 47v591h58v-592c0 -72 -32 -101 -107 -101h-43zM219 599l-37 -29l-71 89l-71 -89l-37 29l67 85h82z" />
    <glyph glyph-name="k" unicode="k" horiz-adv-x="487" 
d="M71 0v730h58v-459h2l241 259h82l-197 -207l208 -323h-69l-179 282h-2l-86 -93v-189h-58z" />
    <glyph glyph-name="uni0137" unicode="&#x137;" horiz-adv-x="487" 
d="M71 0v730h58v-459h2l241 259h82l-197 -207l208 -323h-69l-179 282h-2l-86 -93v-189h-58zM219 -206v32c24 5 34 17 34 44h-38v81h88v-71c0 -52 -29 -82 -84 -86z" />
    <glyph glyph-name="kgreenlandic" unicode="&#x138;" horiz-adv-x="494" 
d="M71 0v530h58v-259h2l247 259h83l-202 -207l214 -323h-70l-183 282h-2l-89 -93v-189h-58z" />
    <glyph glyph-name="l" unicode="l" horiz-adv-x="199" 
d="M71 0v730h58v-730h-58z" />
    <glyph glyph-name="lacute" unicode="&#x13a;" horiz-adv-x="199" 
d="M71 0v730h58v-730h-58zM62 790l69 110h82l-96 -110h-55z" />
    <glyph glyph-name="lcaron" unicode="&#x13e;" horiz-adv-x="249" 
d="M71 0v730h58v-730h-58zM178 573v32c24 5 34 17 34 44h-38v81h88v-71c0 -52 -29 -82 -84 -86z" />
    <glyph glyph-name="uni013C" unicode="&#x13c;" horiz-adv-x="199" 
d="M71 0v730h58v-730h-58zM61 -206v32c24 5 34 17 34 44h-38v81h88v-71c0 -52 -29 -82 -84 -86z" />
    <glyph glyph-name="ldot" unicode="&#x140;" horiz-adv-x="272" 
d="M71 0v730h58v-730h-58zM178 335v98h101v-98h-101z" />
    <glyph glyph-name="uni1E37" unicode="&#x1e37;" horiz-adv-x="199" 
d="M71 0v730h58v-730h-58zM58 -132v83h84v-83h-84z" />
    <glyph glyph-name="lslash" unicode="&#x142;" horiz-adv-x="279" 
d="M111 0v730h58v-730h-58zM133 359l155 146l-25 27l-130 -124v11l-143 -134l25 -26l118 111v-11z" />
    <glyph glyph-name="m" unicode="m" horiz-adv-x="814" 
d="M71 0v530h57v-54h2c28 43 82 69 138 69c64 0 121 -31 146 -82h2c32 53 86 82 153 82c99 0 179 -67 179 -173v-372h-58v364c0 79 -51 127 -124 127c-79 0 -129 -54 -129 -134v-357h-56v365c0 76 -53 126 -125 126c-76 0 -127 -55 -127 -136v-355h-58z" />
    <glyph glyph-name="n" unicode="n" horiz-adv-x="554" 
d="M71 0v530h56v-65h2c33 49 95 80 162 80c121 0 198 -77 198 -198v-347h-58v338c0 95 -55 153 -146 153c-92 0 -156 -62 -156 -153v-338h-58z" />
    <glyph glyph-name="nacute" unicode="&#x144;" horiz-adv-x="554" 
d="M71 0v530h56v-65h2c33 49 95 80 162 80c121 0 198 -77 198 -198v-347h-58v338c0 95 -55 153 -146 153c-92 0 -156 -62 -156 -153v-338h-58zM249 605l69 110h82l-96 -110h-55z" />
    <glyph glyph-name="ncaron" unicode="&#x148;" horiz-adv-x="554" 
d="M71 0v530h56v-65h2c33 49 95 80 162 80c121 0 198 -77 198 -198v-347h-58v338c0 95 -55 153 -146 153c-92 0 -156 -62 -156 -153v-338h-58zM358 709l37 -29l-67 -85h-82l-67 85l37 29l71 -88z" />
    <glyph glyph-name="uni0146" unicode="&#x146;" horiz-adv-x="554" 
d="M71 0v530h56v-65h2c33 49 95 80 162 80c121 0 198 -77 198 -198v-347h-58v338c0 95 -55 153 -146 153c-92 0 -156 -62 -156 -153v-338h-58zM240 -206v32c24 5 34 17 34 44h-38v81h88v-71c0 -52 -29 -82 -84 -86z" />
    <glyph glyph-name="uni1E45" unicode="&#x1e45;" horiz-adv-x="554" 
d="M71 0v530h56v-65h2c33 49 95 80 162 80c121 0 198 -77 198 -198v-347h-58v338c0 95 -55 153 -146 153c-92 0 -156 -62 -156 -153v-338h-58zM245 605v83h84v-83h-84z" />
    <glyph glyph-name="uni1E47" unicode="&#x1e47;" horiz-adv-x="554" 
d="M71 0v530h56v-65h2c33 49 95 80 162 80c121 0 198 -77 198 -198v-347h-58v338c0 95 -55 153 -146 153c-92 0 -156 -62 -156 -153v-338h-58zM238 -132v83h84v-83h-84z" />
    <glyph glyph-name="eng" unicode="&#x14b;" horiz-adv-x="554" 
d="M489 347v-411c0 -69 -33 -99 -109 -99h-37v55h37c35 0 51 14 51 47v399c0 95 -55 153 -146 153c-92 0 -156 -62 -156 -153v-338h-58v530h56v-65h2c33 49 95 80 162 80c121 0 198 -77 198 -198z" />
    <glyph glyph-name="ntilde" unicode="&#xf1;" horiz-adv-x="554" 
d="M71 0v530h56v-65h2c33 49 95 80 162 80c121 0 198 -77 198 -198v-347h-58v338c0 95 -55 153 -146 153c-92 0 -156 -62 -156 -153v-338h-58zM277 623c-24 12 -35 18 -50 18c-20 0 -32 -12 -37 -36h-36c4 52 32 83 76 83c23 0 41 -8 66 -23c24 -12 35 -18 50 -18
c20 0 32 12 36 36h37c-4 -52 -32 -83 -76 -83c-23 0 -41 8 -66 23z" />
    <glyph glyph-name="o" unicode="o" horiz-adv-x="593" 
d="M51 265c0 165 101 280 245 280c146 0 246 -115 246 -280s-100 -280 -246 -280c-144 0 -245 115 -245 280zM484 265c0 135 -74 226 -188 226c-113 0 -187 -91 -187 -226s74 -226 187 -226c114 0 188 91 188 226z" />
    <glyph glyph-name="oacute" unicode="&#xf3;" horiz-adv-x="593" 
d="M51 265c0 165 101 280 245 280c146 0 246 -115 246 -280s-100 -280 -246 -280c-144 0 -245 115 -245 280zM484 265c0 135 -74 226 -188 226c-113 0 -187 -91 -187 -226s74 -226 187 -226c114 0 188 91 188 226zM258 605l69 110h82l-96 -110h-55z" />
    <glyph glyph-name="obreve" unicode="&#x14f;" horiz-adv-x="593" 
d="M51 265c0 165 101 280 245 280c146 0 246 -115 246 -280s-100 -280 -246 -280c-144 0 -245 115 -245 280zM484 265c0 135 -74 226 -188 226c-113 0 -187 -91 -187 -226s74 -226 187 -226c114 0 188 91 188 226zM181 706h38c7 -37 34 -59 78 -59c43 0 70 22 77 59h38
c-4 -68 -47 -111 -115 -111c-69 0 -113 43 -116 111z" />
    <glyph glyph-name="uni01D2" unicode="&#x1d2;" horiz-adv-x="593" 
d="M51 265c0 165 101 280 245 280c146 0 246 -115 246 -280s-100 -280 -246 -280c-144 0 -245 115 -245 280zM484 265c0 135 -74 226 -188 226c-113 0 -187 -91 -187 -226s74 -226 187 -226c114 0 188 91 188 226zM367 709l37 -29l-67 -85h-82l-67 85l37 29l71 -88z" />
    <glyph glyph-name="ocircumflex" unicode="&#xf4;" horiz-adv-x="593" 
d="M51 265c0 165 101 280 245 280c146 0 246 -115 246 -280s-100 -280 -246 -280c-144 0 -245 115 -245 280zM484 265c0 135 -74 226 -188 226c-113 0 -187 -91 -187 -226s74 -226 187 -226c114 0 188 91 188 226zM404 614l-37 -29l-71 89l-71 -89l-37 29l67 85h82z" />
    <glyph glyph-name="uni1ED9" unicode="&#x1ed9;" horiz-adv-x="593" 
d="M51 265c0 165 101 280 245 280c146 0 246 -115 246 -280s-100 -280 -246 -280c-144 0 -245 115 -245 280zM484 265c0 135 -74 226 -188 226c-113 0 -187 -91 -187 -226s74 -226 187 -226c114 0 188 91 188 226zM404 614l-37 -29l-71 89l-71 -89l-37 29l67 85h82z
M254 -147v83h84v-83h-84z" />
    <glyph glyph-name="odieresis" unicode="&#xf6;" horiz-adv-x="593" 
d="M51 265c0 165 101 280 245 280c146 0 246 -115 246 -280s-100 -280 -246 -280c-144 0 -245 115 -245 280zM484 265c0 135 -74 226 -188 226c-113 0 -187 -91 -187 -226s74 -226 187 -226c114 0 188 91 188 226zM168 595v83h84v-83h-84zM340 595v83h84v-83h-84z" />
    <glyph glyph-name="uni1ECD" unicode="&#x1ecd;" horiz-adv-x="593" 
d="M51 265c0 165 101 280 245 280c146 0 246 -115 246 -280s-100 -280 -246 -280c-144 0 -245 115 -245 280zM484 265c0 135 -74 226 -188 226c-113 0 -187 -91 -187 -226s74 -226 187 -226c114 0 188 91 188 226zM254 -147v83h84v-83h-84z" />
    <glyph glyph-name="ograve" unicode="&#xf2;" horiz-adv-x="593" 
d="M51 265c0 165 101 280 245 280c146 0 246 -115 246 -280s-100 -280 -246 -280c-144 0 -245 115 -245 280zM484 265c0 135 -74 226 -188 226c-113 0 -187 -91 -187 -226s74 -226 187 -226c114 0 188 91 188 226zM278 605l-96 110h82l69 -110h-55z" />
    <glyph glyph-name="ohungarumlaut" unicode="&#x151;" horiz-adv-x="593" 
d="M51 265c0 165 101 280 245 280c146 0 246 -115 246 -280s-100 -280 -246 -280c-144 0 -245 115 -245 280zM484 265c0 135 -74 226 -188 226c-113 0 -187 -91 -187 -226s74 -226 187 -226c114 0 188 91 188 226zM183 605l69 110h82l-96 -110h-55zM319 605l69 110h82
l-97 -110h-54z" />
    <glyph glyph-name="omacron" unicode="&#x14d;" horiz-adv-x="593" 
d="M51 265c0 165 101 280 245 280c146 0 246 -115 246 -280s-100 -280 -246 -280c-144 0 -245 115 -245 280zM484 265c0 135 -74 226 -188 226c-113 0 -187 -91 -187 -226s74 -226 187 -226c114 0 188 91 188 226zM170 605v48h252v-48h-252z" />
    <glyph glyph-name="oslash" unicode="&#xf8;" horiz-adv-x="597" 
d="M545 265c0 -165 -100 -280 -246 -280c-64 0 -119 21 -162 61l-42 -50l-27 22l46 54c-41 51 -61 116 -61 193c0 165 101 280 246 280c65 0 120 -21 163 -62l41 49l27 -22l-45 -53c39 -49 60 -115 60 -192zM150 115l277 327c-35 34 -78 51 -128 51
c-114 0 -190 -93 -190 -228c0 -59 14 -109 41 -150zM489 265c0 61 -13 110 -40 149l-276 -326c33 -34 75 -51 126 -51c115 0 190 93 190 228z" />
    <glyph glyph-name="oslashacute" unicode="&#x1ff;" horiz-adv-x="597" 
d="M545 265c0 -165 -100 -280 -246 -280c-64 0 -119 21 -162 61l-42 -50l-27 22l46 54c-41 51 -61 116 -61 193c0 165 101 280 246 280c65 0 120 -21 163 -62l41 49l27 -22l-45 -53c39 -49 60 -115 60 -192zM150 115l277 327c-35 34 -78 51 -128 51
c-114 0 -190 -93 -190 -228c0 -59 14 -109 41 -150zM489 265c0 61 -13 110 -40 149l-276 -326c33 -34 75 -51 126 -51c115 0 190 93 190 228zM261 605l69 110h82l-96 -110h-55z" />
    <glyph glyph-name="otilde" unicode="&#xf5;" horiz-adv-x="593" 
d="M51 265c0 165 101 280 245 280c146 0 246 -115 246 -280s-100 -280 -246 -280c-144 0 -245 115 -245 280zM484 265c0 135 -74 226 -188 226c-113 0 -187 -91 -187 -226s74 -226 187 -226c114 0 188 91 188 226zM286 623c-24 12 -35 18 -50 18c-20 0 -32 -12 -37 -36h-36
c4 52 32 83 76 83c23 0 41 -8 66 -23c24 -12 35 -18 50 -18c20 0 32 12 36 36h37c-4 -52 -32 -83 -76 -83c-23 0 -41 8 -66 23z" />
    <glyph glyph-name="uni1E4D" unicode="&#x1e4d;" horiz-adv-x="593" 
d="M51 265c0 165 101 280 245 280c146 0 246 -115 246 -280s-100 -280 -246 -280c-144 0 -245 115 -245 280zM484 265c0 135 -74 226 -188 226c-113 0 -187 -91 -187 -226s74 -226 187 -226c114 0 188 91 188 226zM286 623c-24 12 -35 18 -50 18c-20 0 -32 -12 -37 -36h-36
c4 52 32 83 76 83c23 0 41 -8 66 -23c24 -12 35 -18 50 -18c20 0 32 12 36 36h37c-4 -52 -32 -83 -76 -83c-23 0 -41 8 -66 23zM258 718l69 110h82l-96 -110h-55z" />
    <glyph glyph-name="oe" unicode="&#x153;" horiz-adv-x="1010" 
d="M959 277v-27h-415c1 -63 17 -114 50 -153s76 -59 131 -59c81 0 133 33 174 116l47 -28c-41 -93 -117 -141 -220 -141c-99 0 -176 51 -213 140c-40 -88 -117 -140 -216 -140c-145 0 -246 115 -246 280s101 280 246 280c99 0 177 -53 217 -141c37 88 113 141 210 141
c141 0 235 -106 235 -268zM485 265c0 135 -76 227 -188 227c-113 0 -189 -92 -189 -227s76 -227 189 -227c112 0 188 92 188 227zM545 298h356c-1 57 -18 104 -51 140c-32 36 -74 54 -126 54c-101 0 -177 -89 -179 -194z" />
    <glyph glyph-name="p" unicode="p" horiz-adv-x="583" 
d="M71 -225v755h58v-67h2c35 51 96 82 165 82c139 0 237 -115 237 -280c0 -164 -98 -280 -235 -280c-71 0 -134 32 -167 80h-2v-290h-58zM475 265c0 134 -74 226 -179 226c-92 0 -167 -72 -167 -159v-134c0 -87 74 -159 165 -159c108 0 181 93 181 226z" />
    <glyph glyph-name="thorn" unicode="&#xfe;" horiz-adv-x="583" 
d="M533 265c0 -164 -98 -280 -235 -280c-71 0 -134 32 -167 80h-2v-290h-58v955h58v-267h2c35 51 96 82 165 82c139 0 237 -115 237 -280zM475 265c0 134 -74 226 -179 226c-92 0 -167 -72 -167 -159v-134c0 -87 74 -159 165 -159c108 0 181 93 181 226z" />
    <glyph glyph-name="q" unicode="q" horiz-adv-x="583" 
d="M512 -225h-58v290h-2c-33 -48 -96 -80 -167 -80c-137 0 -235 116 -235 280c0 165 98 280 237 280c69 0 130 -31 165 -82h2v67h58v-755zM454 198v134c0 87 -75 159 -167 159c-105 0 -179 -92 -179 -226c0 -133 73 -226 181 -226c91 0 165 72 165 159z" />
    <glyph glyph-name="r" unicode="r" horiz-adv-x="305" 
d="M71 0v530h55v-51h2c20 36 58 60 109 60c12 0 27 -2 46 -7l-12 -59c-16 4 -31 6 -44 6c-65 0 -98 -48 -98 -143v-336h-58z" />
    <glyph glyph-name="racute" unicode="&#x155;" horiz-adv-x="305" 
d="M71 0v530h55v-51h2c20 36 58 60 109 60c12 0 27 -2 46 -7l-12 -59c-16 4 -31 6 -44 6c-65 0 -98 -48 -98 -143v-336h-58zM112 590l69 110h82l-96 -110h-55z" />
    <glyph glyph-name="rcaron" unicode="&#x159;" horiz-adv-x="305" 
d="M71 0v530h55v-51h2c20 36 58 60 109 60c12 0 27 -2 46 -7l-12 -59c-16 4 -31 6 -44 6c-65 0 -98 -48 -98 -143v-336h-58zM221 694l37 -29l-67 -85h-82l-67 85l37 29l71 -88z" />
    <glyph glyph-name="uni0157" unicode="&#x157;" horiz-adv-x="305" 
d="M71 0v530h55v-51h2c20 36 58 60 109 60c12 0 27 -2 46 -7l-12 -59c-16 4 -31 6 -44 6c-65 0 -98 -48 -98 -143v-336h-58zM61 -206v32c24 5 34 17 34 44h-38v81h88v-71c0 -52 -29 -82 -84 -86z" />
    <glyph glyph-name="s" unicode="s" horiz-adv-x="497" 
d="M41 181l56 10c15 -105 67 -152 171 -152c80 0 130 36 130 92c0 59 -36 86 -157 120c-134 38 -177 74 -177 147c0 84 74 147 176 147c105 0 180 -60 199 -157l-57 -13c-16 76 -66 116 -142 116c-69 0 -118 -38 -118 -91c0 -45 32 -69 139 -98c146 -42 195 -84 195 -169
c0 -89 -73 -148 -188 -148c-133 0 -215 69 -227 196z" />
    <glyph glyph-name="sacute" unicode="&#x15b;" horiz-adv-x="497" 
d="M41 181l56 10c15 -105 67 -152 171 -152c80 0 130 36 130 92c0 59 -36 86 -157 120c-134 38 -177 74 -177 147c0 84 74 147 176 147c105 0 180 -60 199 -157l-57 -13c-16 76 -66 116 -142 116c-69 0 -118 -38 -118 -91c0 -45 32 -69 139 -98c146 -42 195 -84 195 -169
c0 -89 -73 -148 -188 -148c-133 0 -215 69 -227 196zM202 605l69 110h82l-96 -110h-55z" />
    <glyph glyph-name="scaron" unicode="&#x161;" horiz-adv-x="497" 
d="M41 181l56 10c15 -105 67 -152 171 -152c80 0 130 36 130 92c0 59 -36 86 -157 120c-134 38 -177 74 -177 147c0 84 74 147 176 147c105 0 180 -60 199 -157l-57 -13c-16 76 -66 116 -142 116c-69 0 -118 -38 -118 -91c0 -45 32 -69 139 -98c146 -42 195 -84 195 -169
c0 -89 -73 -148 -188 -148c-133 0 -215 69 -227 196zM311 709l37 -29l-67 -85h-82l-67 85l37 29l71 -88z" />
    <glyph glyph-name="scedilla" unicode="&#x15f;" horiz-adv-x="497" 
d="M41 181l56 10c15 -105 67 -152 171 -152c80 0 130 36 130 92c0 59 -36 86 -157 120c-134 38 -177 74 -177 147c0 84 74 147 176 147c105 0 180 -60 199 -157l-57 -13c-16 76 -66 116 -142 116c-69 0 -118 -38 -118 -91c0 -45 32 -69 139 -98c146 -42 195 -84 195 -169
c0 -89 -73 -148 -188 -148c-133 0 -215 69 -227 196zM385 -137c0 -52 -41 -87 -97 -87c-38 0 -70 13 -97 40l28 32c21 -21 44 -32 69 -32c31 0 54 20 54 48s-21 45 -52 45c-25 0 -44 -9 -59 -28l-34 16l60 111l35 -13l-35 -60c12 6 26 9 41 9c49 0 87 -34 87 -81z" />
    <glyph glyph-name="scircumflex" unicode="&#x15d;" horiz-adv-x="497" 
d="M41 181l56 10c15 -105 67 -152 171 -152c80 0 130 36 130 92c0 59 -36 86 -157 120c-134 38 -177 74 -177 147c0 84 74 147 176 147c105 0 180 -60 199 -157l-57 -13c-16 76 -66 116 -142 116c-69 0 -118 -38 -118 -91c0 -45 32 -69 139 -98c146 -42 195 -84 195 -169
c0 -89 -73 -148 -188 -148c-133 0 -215 69 -227 196zM348 614l-37 -29l-71 89l-71 -89l-37 29l67 85h82z" />
    <glyph glyph-name="uni0219" unicode="&#x219;" horiz-adv-x="497" 
d="M41 181l56 10c15 -105 67 -152 171 -152c80 0 130 36 130 92c0 59 -36 86 -157 120c-134 38 -177 74 -177 147c0 84 74 147 176 147c105 0 180 -60 199 -157l-57 -13c-16 76 -66 116 -142 116c-69 0 -118 -38 -118 -91c0 -45 32 -69 139 -98c146 -42 195 -84 195 -169
c0 -89 -73 -148 -188 -148c-133 0 -215 69 -227 196zM228 -221v32c24 5 34 17 34 44h-38v81h88v-71c0 -52 -29 -82 -84 -86z" />
    <glyph glyph-name="uni1E63" unicode="&#x1e63;" horiz-adv-x="497" 
d="M41 181l56 10c15 -105 67 -152 171 -152c80 0 130 36 130 92c0 59 -36 86 -157 120c-134 38 -177 74 -177 147c0 84 74 147 176 147c105 0 180 -60 199 -157l-57 -13c-16 76 -66 116 -142 116c-69 0 -118 -38 -118 -91c0 -45 32 -69 139 -98c146 -42 195 -84 195 -169
c0 -89 -73 -148 -188 -148c-133 0 -215 69 -227 196zM226 -147v83h84v-83h-84z" />
    <glyph glyph-name="germandbls" unicode="&#xdf;" horiz-adv-x="551" 
d="M71 0v509c0 127 81 206 205 206c113 0 193 -73 193 -180c0 -64 -35 -115 -95 -143v-2c79 -23 126 -90 126 -178c0 -135 -86 -212 -235 -212h-51v54h51c113 0 177 58 177 159c0 89 -57 144 -153 144h-75v53h57c85 0 140 47 140 122c0 80 -52 129 -135 129
c-95 0 -147 -58 -147 -162v-499h-58z" />
    <glyph glyph-name="longs" unicode="&#x17f;" horiz-adv-x="256" 
d="M101 0v477h-79v53h79v70c0 67 41 105 110 105h72v-54h-66c-40 0 -58 -18 -58 -59v-592h-58z" />
    <glyph glyph-name="t" unicode="t" horiz-adv-x="315" 
d="M287 478h-129v-373c0 -36 14 -51 57 -51h43v-54h-46c-81 0 -112 29 -112 106v372h-78v52h78v116h58v-116h129v-52z" />
    <glyph glyph-name="tbar" unicode="&#x167;" horiz-adv-x="315" 
d="M287 478h-129v-373c0 -36 14 -51 57 -51h43v-54h-46c-81 0 -112 29 -112 106v372h-78v52h78v116h58v-116h129v-52zM22 257v45h265v-45h-265z" />
    <glyph glyph-name="tcaron" unicode="&#x165;" horiz-adv-x="315" 
d="M287 478h-129v-373c0 -36 14 -51 57 -51h43v-54h-46c-81 0 -112 29 -112 106v372h-78v52h78v116h58v-116h129v-52zM228 584v32c24 5 34 17 34 44h-38v81h88v-71c0 -52 -29 -82 -84 -86z" />
    <glyph glyph-name="uni0163" unicode="&#x163;" horiz-adv-x="315" 
d="M287 478h-129v-373c0 -36 14 -51 57 -51h43v-54h-46c-81 0 -112 29 -112 106v372h-78v52h78v116h58v-116h129v-52zM292 -123c0 -52 -41 -87 -97 -87c-38 0 -70 13 -97 40l28 32c21 -21 44 -32 69 -32c31 0 54 20 54 48s-21 45 -52 45c-25 0 -44 -9 -59 -28l-34 16l60 111
l35 -13l-35 -60c12 6 26 9 41 9c49 0 87 -34 87 -81z" />
    <glyph glyph-name="uni021B" unicode="&#x21b;" horiz-adv-x="315" 
d="M287 478h-129v-373c0 -36 14 -51 57 -51h43v-54h-46c-81 0 -112 29 -112 106v372h-78v52h78v116h58v-116h129v-52zM135 -206v32c24 5 34 17 34 44h-38v81h88v-71c0 -52 -29 -82 -84 -86z" />
    <glyph glyph-name="uni1E6D" unicode="&#x1e6d;" horiz-adv-x="315" 
d="M287 478h-129v-373c0 -36 14 -51 57 -51h43v-54h-46c-81 0 -112 29 -112 106v372h-78v52h78v116h58v-116h129v-52zM133 -132v83h84v-83h-84z" />
    <glyph glyph-name="u" unicode="u" horiz-adv-x="542" 
d="M61 181v349h58v-338c0 -102 48 -153 144 -153c89 0 150 62 150 153v338h58v-530h-56v65h-2c-33 -49 -94 -80 -165 -80c-119 0 -187 72 -187 196z" />
    <glyph glyph-name="uacute" unicode="&#xfa;" horiz-adv-x="542" 
d="M61 181v349h58v-338c0 -102 48 -153 144 -153c89 0 150 62 150 153v338h58v-530h-56v65h-2c-33 -49 -94 -80 -165 -80c-119 0 -187 72 -187 196zM228 590l69 110h82l-96 -110h-55z" />
    <glyph glyph-name="ubreve" unicode="&#x16d;" horiz-adv-x="542" 
d="M61 181v349h58v-338c0 -102 48 -153 144 -153c89 0 150 62 150 153v338h58v-530h-56v65h-2c-33 -49 -94 -80 -165 -80c-119 0 -187 72 -187 196zM151 691h38c7 -37 34 -59 78 -59c43 0 70 22 77 59h38c-4 -68 -47 -111 -115 -111c-69 0 -113 43 -116 111z" />
    <glyph glyph-name="uni01D4" unicode="&#x1d4;" horiz-adv-x="542" 
d="M61 181v349h58v-338c0 -102 48 -153 144 -153c89 0 150 62 150 153v338h58v-530h-56v65h-2c-33 -49 -94 -80 -165 -80c-119 0 -187 72 -187 196zM337 694l37 -29l-67 -85h-82l-67 85l37 29l71 -88z" />
    <glyph glyph-name="ucircumflex" unicode="&#xfb;" horiz-adv-x="542" 
d="M61 181v349h58v-338c0 -102 48 -153 144 -153c89 0 150 62 150 153v338h58v-530h-56v65h-2c-33 -49 -94 -80 -165 -80c-119 0 -187 72 -187 196zM374 599l-37 -29l-71 89l-71 -89l-37 29l67 85h82z" />
    <glyph glyph-name="udieresis" unicode="&#xfc;" horiz-adv-x="542" 
d="M61 181v349h58v-338c0 -102 48 -153 144 -153c89 0 150 62 150 153v338h58v-530h-56v65h-2c-33 -49 -94 -80 -165 -80c-119 0 -187 72 -187 196zM138 580v83h84v-83h-84zM310 580v83h84v-83h-84z" />
    <glyph glyph-name="uni01D8" unicode="&#x1d8;" horiz-adv-x="542" 
d="M61 181v349h58v-338c0 -102 48 -153 144 -153c89 0 150 62 150 153v338h58v-530h-56v65h-2c-33 -49 -94 -80 -165 -80c-119 0 -187 72 -187 196zM138 580v83h84v-83h-84zM310 580v83h84v-83h-84zM228 703l69 110h82l-96 -110h-55z" />
    <glyph glyph-name="uni01DA" unicode="&#x1da;" horiz-adv-x="542" 
d="M61 181v349h58v-338c0 -102 48 -153 144 -153c89 0 150 62 150 153v338h58v-530h-56v65h-2c-33 -49 -94 -80 -165 -80c-119 0 -187 72 -187 196zM138 580v83h84v-83h-84zM310 580v83h84v-83h-84zM337 807l37 -29l-67 -85h-82l-67 85l37 29l71 -88z" />
    <glyph glyph-name="uni01DC" unicode="&#x1dc;" horiz-adv-x="542" 
d="M61 181v349h58v-338c0 -102 48 -153 144 -153c89 0 150 62 150 153v338h58v-530h-56v65h-2c-33 -49 -94 -80 -165 -80c-119 0 -187 72 -187 196zM138 580v83h84v-83h-84zM310 580v83h84v-83h-84zM248 703l-96 110h82l69 -110h-55z" />
    <glyph glyph-name="uni01D6" unicode="&#x1d6;" horiz-adv-x="542" 
d="M61 181v349h58v-338c0 -102 48 -153 144 -153c89 0 150 62 150 153v338h58v-530h-56v65h-2c-33 -49 -94 -80 -165 -80c-119 0 -187 72 -187 196zM138 580v83h84v-83h-84zM310 580v83h84v-83h-84zM140 703v48h252v-48h-252z" />
    <glyph glyph-name="uni1EE5" unicode="&#x1ee5;" horiz-adv-x="542" 
d="M61 181v349h58v-338c0 -102 48 -153 144 -153c89 0 150 62 150 153v338h58v-530h-56v65h-2c-33 -49 -94 -80 -165 -80c-119 0 -187 72 -187 196zM206 -147v83h84v-83h-84z" />
    <glyph glyph-name="ugrave" unicode="&#xf9;" horiz-adv-x="542" 
d="M61 181v349h58v-338c0 -102 48 -153 144 -153c89 0 150 62 150 153v338h58v-530h-56v65h-2c-33 -49 -94 -80 -165 -80c-119 0 -187 72 -187 196zM248 590l-96 110h82l69 -110h-55z" />
    <glyph glyph-name="uhungarumlaut" unicode="&#x171;" horiz-adv-x="542" 
d="M61 181v349h58v-338c0 -102 48 -153 144 -153c89 0 150 62 150 153v338h58v-530h-56v65h-2c-33 -49 -94 -80 -165 -80c-119 0 -187 72 -187 196zM153 590l69 110h82l-96 -110h-55zM289 590l69 110h82l-97 -110h-54z" />
    <glyph glyph-name="umacron" unicode="&#x16b;" horiz-adv-x="542" 
d="M61 181v349h58v-338c0 -102 48 -153 144 -153c89 0 150 62 150 153v338h58v-530h-56v65h-2c-33 -49 -94 -80 -165 -80c-119 0 -187 72 -187 196zM140 590v48h252v-48h-252z" />
    <glyph glyph-name="uogonek" unicode="&#x173;" horiz-adv-x="542" 
d="M61 181v349h58v-338c0 -102 48 -153 144 -153c89 0 150 62 150 153v338h58v-530h-56v65h-2c-33 -49 -94 -80 -165 -80c-119 0 -187 72 -187 196zM333 -115c0 44 38 91 101 127l32 -12c-55 -31 -82 -65 -82 -103c0 -24 13 -36 38 -36c19 0 39 6 60 19l19 -46
c-28 -16 -57 -24 -86 -24c-52 0 -82 27 -82 75z" />
    <glyph glyph-name="uring" unicode="&#x16f;" horiz-adv-x="542" 
d="M61 181v349h58v-338c0 -102 48 -153 144 -153c89 0 150 62 150 153v338h58v-530h-56v65h-2c-33 -49 -94 -80 -165 -80c-119 0 -187 72 -187 196zM156 632c0 61 47 107 114 107s114 -46 114 -107c0 -63 -49 -108 -114 -108s-114 45 -114 108zM340 632c0 40 -30 70 -70 70
c-41 0 -70 -30 -70 -70c0 -41 29 -70 70 -70c40 0 70 29 70 70z" />
    <glyph glyph-name="utilde" unicode="&#x169;" horiz-adv-x="542" 
d="M61 181v349h58v-338c0 -102 48 -153 144 -153c89 0 150 62 150 153v338h58v-530h-56v65h-2c-33 -49 -94 -80 -165 -80c-119 0 -187 72 -187 196zM256 608c-24 12 -35 18 -50 18c-20 0 -32 -12 -37 -36h-36c4 52 32 83 76 83c23 0 41 -8 66 -23c24 -12 35 -18 50 -18
c20 0 32 12 36 36h37c-4 -52 -32 -83 -76 -83c-23 0 -41 8 -66 23z" />
    <glyph glyph-name="v" unicode="v" horiz-adv-x="517" 
d="M233 0l-223 530h63l184 -449h2l185 449h63l-224 -530h-50z" />
    <glyph glyph-name="w" unicode="w" horiz-adv-x="729" 
d="M153 0l-126 530h58l102 -441h2l148 441h55l148 -441h2l102 441h58l-126 -530h-56l-155 457h-2l-154 -457h-56z" />
    <glyph glyph-name="wacute" unicode="&#x1e83;" horiz-adv-x="729" 
d="M153 0l-126 530h58l102 -441h2l148 441h55l148 -441h2l102 441h58l-126 -530h-56l-155 457h-2l-154 -457h-56zM326 590l69 110h82l-96 -110h-55z" />
    <glyph glyph-name="wcircumflex" unicode="&#x175;" horiz-adv-x="729" 
d="M153 0l-126 530h58l102 -441h2l148 441h55l148 -441h2l102 441h58l-126 -530h-56l-155 457h-2l-154 -457h-56zM472 599l-37 -29l-71 89l-71 -89l-37 29l67 85h82z" />
    <glyph glyph-name="wdieresis" unicode="&#x1e85;" horiz-adv-x="729" 
d="M153 0l-126 530h58l102 -441h2l148 441h55l148 -441h2l102 441h58l-126 -530h-56l-155 457h-2l-154 -457h-56zM236 580v83h84v-83h-84zM408 580v83h84v-83h-84z" />
    <glyph glyph-name="wgrave" unicode="&#x1e81;" horiz-adv-x="729" 
d="M153 0l-126 530h58l102 -441h2l148 441h55l148 -441h2l102 441h58l-126 -530h-56l-155 457h-2l-154 -457h-56zM346 590l-96 110h82l69 -110h-55z" />
    <glyph glyph-name="x" unicode="x" horiz-adv-x="448" 
d="M7 0l181 270l-175 260h68l141 -215h2l143 215h68l-177 -260l183 -270h-68l-149 225h-2l-147 -225h-68z" />
    <glyph glyph-name="y" unicode="y" horiz-adv-x="492" 
d="M102 -225l114 270l-206 485h62l173 -418h2l173 418h62l-319 -755h-61z" />
    <glyph glyph-name="yacute" unicode="&#xfd;" horiz-adv-x="492" 
d="M102 -225l114 270l-206 485h62l173 -418h2l173 418h62l-319 -755h-61zM208 590l69 110h82l-96 -110h-55z" />
    <glyph glyph-name="ycircumflex" unicode="&#x177;" horiz-adv-x="492" 
d="M102 -225l114 270l-206 485h62l173 -418h2l173 418h62l-319 -755h-61zM354 599l-37 -29l-71 89l-71 -89l-37 29l67 85h82z" />
    <glyph glyph-name="ydieresis" unicode="&#xff;" horiz-adv-x="492" 
d="M102 -225l114 270l-206 485h62l173 -418h2l173 418h62l-319 -755h-61zM118 580v83h84v-83h-84zM290 580v83h84v-83h-84z" />
    <glyph glyph-name="uni1EF5" unicode="&#x1ef5;" horiz-adv-x="492" 
d="M102 -225l114 270l-206 485h62l173 -418h2l173 418h62l-319 -755h-61zM290 -132v83h84v-83h-84z" />
    <glyph glyph-name="ygrave" unicode="&#x1ef3;" horiz-adv-x="492" 
d="M102 -225l114 270l-206 485h62l173 -418h2l173 418h62l-319 -755h-61zM228 590l-96 110h82l69 -110h-55z" />
    <glyph glyph-name="uni1EF9" unicode="&#x1ef9;" horiz-adv-x="492" 
d="M102 -225l114 270l-206 485h62l173 -418h2l173 418h62l-319 -755h-61zM236 608c-24 12 -35 18 -50 18c-20 0 -32 -12 -37 -36h-36c4 52 32 83 76 83c23 0 41 -8 66 -23c24 -12 35 -18 50 -18c20 0 32 12 36 36h37c-4 -52 -32 -83 -76 -83c-23 0 -41 8 -66 23z" />
    <glyph glyph-name="z" unicode="z" horiz-adv-x="489" 
d="M28 0v51l356 424v2h-339v53h411v-51l-356 -424v-2h359v-53h-431z" />
    <glyph glyph-name="zacute" unicode="&#x17a;" horiz-adv-x="489" 
d="M28 0v51l356 424v2h-339v53h411v-51l-356 -424v-2h359v-53h-431zM207 590l69 110h82l-96 -110h-55z" />
    <glyph glyph-name="zcaron" unicode="&#x17e;" horiz-adv-x="489" 
d="M28 0v51l356 424v2h-339v53h411v-51l-356 -424v-2h359v-53h-431zM316 694l37 -29l-67 -85h-82l-67 85l37 29l71 -88z" />
    <glyph glyph-name="zdotaccent" unicode="&#x17c;" horiz-adv-x="489" 
d="M28 0v51l356 424v2h-339v53h411v-51l-356 -424v-2h359v-53h-431zM207 624v74h76v-74h-76z" />
    <glyph glyph-name="uni1E93" unicode="&#x1e93;" horiz-adv-x="489" 
d="M28 0v51l356 424v2h-339v53h411v-51l-356 -424v-2h359v-53h-431zM202 -132v83h84v-83h-84z" />
    <glyph glyph-name="A.ordn" horiz-adv-x="273" 
d="M18 494c0 47 31 71 108 90c51 12 68 23 68 42c0 27 -21 42 -57 42c-40 0 -66 -22 -73 -61l-46 7c8 56 56 93 119 93c64 0 104 -35 104 -90v-193h-42v33h-1c-15 -24 -50 -40 -89 -40c-56 0 -91 29 -91 77zM195 519v60h-1c-7 -13 -24 -21 -60 -30c-52 -13 -69 -27 -69 -52
s18 -40 53 -40c43 0 77 27 77 62z" />
    <glyph glyph-name="B.ccmp" horiz-adv-x="310" 
d="M293 562c0 -87 -52 -145 -128 -145c-36 0 -69 14 -86 38h-1v-31h-46v380h48v-133h1c17 23 49 36 84 36c76 0 128 -58 128 -145zM246 562c0 61 -36 103 -88 103c-43 0 -78 -33 -78 -69v-68c0 -36 35 -68 78 -68c52 0 88 41 88 102z" />
    <glyph glyph-name="C.ccmp" horiz-adv-x="294" 
d="M17 562c0 85 55 145 134 145c64 0 117 -41 126 -101l-47 -8c-9 43 -38 66 -79 66c-51 0 -86 -42 -86 -102s35 -102 86 -102c41 0 70 23 79 66l47 -8c-9 -60 -62 -101 -126 -101c-79 0 -134 60 -134 145z" />
    <glyph glyph-name="D.ccmp" horiz-adv-x="310" 
d="M229 671h1v133h48v-380h-46v31h-1c-17 -24 -50 -38 -86 -38c-76 0 -128 58 -128 145s52 145 128 145c35 0 67 -13 84 -36zM230 528v68c0 36 -35 69 -78 69c-52 0 -88 -42 -88 -103s36 -102 88 -102c43 0 78 32 78 68z" />
    <glyph glyph-name="E.ccmp" horiz-adv-x="298" 
d="M282 564v-20h-217c5 -53 38 -84 87 -84c36 0 59 15 82 51l38 -27c-27 -45 -67 -67 -121 -67c-81 0 -134 57 -134 145c0 84 56 145 133 145c79 0 132 -58 132 -143zM66 584h168c-1 48 -36 80 -84 80c-47 0 -79 -31 -84 -80z" />
    <glyph glyph-name="F.ccmp" horiz-adv-x="182" 
d="M53 424v233h-46v43h46v30c0 43 26 67 73 67h41v-41h-38c-20 0 -28 -9 -28 -28v-28h74v-43h-74v-233h-48z" />
    <glyph glyph-name="G.ccmp" horiz-adv-x="308" 
d="M38 368l38 23c16 -35 42 -52 79 -52c45 0 74 28 74 80v33h-1c-17 -23 -48 -35 -84 -35c-76 0 -127 58 -127 145c0 41 12 76 36 103c25 28 56 42 94 42c33 0 65 -13 82 -36h1v29h46v-278c0 -79 -48 -126 -121 -126c-52 0 -97 25 -117 72zM228 521v81c0 35 -34 62 -75 62
c-53 0 -88 -41 -88 -102s34 -102 87 -102c43 0 76 26 76 61z" />
    <glyph glyph-name="H.ccmp" horiz-adv-x="302" 
d="M32 424v380h48v-139h1c19 27 51 42 88 42c63 0 107 -40 107 -101v-182h-48v164c0 47 -28 77 -73 77s-75 -32 -75 -76v-165h-48z" />
    <glyph glyph-name="I.ordn" horiz-adv-x="120" 
d="M32 747v53h56v-53h-56zM37 424v276h47v-276h-47z" />
    <glyph glyph-name="J.ordn" horiz-adv-x="124" 
d="M35 747v53h57v-53h-57zM-16 332v43h25c23 0 31 8 31 29v296h48v-301c0 -48 -21 -67 -73 -67h-31z" />
    <glyph glyph-name="K.ccmp" horiz-adv-x="260" 
d="M32 424v380h48v-224h1l111 120h64l-104 -109l106 -167h-56l-81 132h-1l-40 -42v-90h-48z" />
    <glyph glyph-name="L.ccmp" horiz-adv-x="111" 
d="M32 424v380h48v-380h-48z" />
    <glyph glyph-name="M.ccmp" horiz-adv-x="445" 
d="M32 424v276h46v-30h1c17 24 45 37 76 37c35 0 66 -16 81 -43h1c17 27 48 43 83 43c59 0 99 -40 99 -97v-186h-48v181c0 36 -24 59 -60 59c-37 0 -63 -24 -63 -61v-179h-45v181c0 36 -25 59 -61 59s-62 -25 -62 -62v-178h-48z" />
    <glyph glyph-name="N.ccmp" horiz-adv-x="302" 
d="M32 424v276h46v-37h1c20 28 53 44 90 44c63 0 107 -40 107 -101v-182h-48v164c0 45 -26 76 -73 76c-45 0 -75 -31 -75 -75v-165h-48z" />
    <glyph glyph-name="O.ordn" horiz-adv-x="307" 
d="M17 562c0 85 56 145 137 145c80 0 136 -60 136 -145s-56 -145 -136 -145c-81 0 -137 60 -137 145zM242 562c0 61 -35 102 -88 102s-89 -41 -89 -102s36 -102 89 -102s88 41 88 102z" />
    <glyph glyph-name="P.ccmp" horiz-adv-x="312" 
d="M295 562c0 -85 -53 -145 -129 -145c-35 0 -68 14 -85 37h-1v-151h-48v397h46v-32h1c16 24 50 39 87 39c76 0 129 -60 129 -145zM248 562c0 61 -35 103 -90 103c-41 0 -78 -33 -78 -69v-68c0 -36 37 -68 78 -68c55 0 90 41 90 102z" />
    <glyph glyph-name="Q.ccmp" horiz-adv-x="312" 
d="M233 668h1v32h46v-397h-48v151h-1c-17 -23 -50 -37 -85 -37c-76 0 -129 60 -129 145s53 145 129 145c37 0 71 -15 87 -39zM232 528v68c0 36 -37 69 -78 69c-55 0 -90 -42 -90 -103s35 -102 90 -102c41 0 78 32 78 68z" />
    <glyph glyph-name="R.ccmp" horiz-adv-x="178" 
d="M176 701l-8 -45c-11 3 -20 4 -27 4c-40 0 -61 -27 -61 -79v-157h-48v276h45v-26h1c12 19 37 31 65 31c10 0 21 -1 33 -4z" />
    <glyph glyph-name="S.ccmp" horiz-adv-x="287" 
d="M27 516l43 11c9 -47 35 -70 83 -70c41 0 61 15 61 44c0 23 -17 34 -74 49c-73 17 -102 40 -102 79c0 45 40 78 99 78s102 -30 115 -81l-43 -11c-8 33 -34 52 -71 52c-32 0 -54 -15 -54 -36c0 -19 16 -30 69 -43c79 -20 107 -44 107 -85c0 -53 -42 -86 -107 -86
c-69 0 -117 36 -126 99z" />
    <glyph glyph-name="T.ccmp" horiz-adv-x="175" 
d="M168 657h-72v-162c0 -19 7 -25 30 -25h32v-46h-35c-53 0 -75 20 -75 67v166h-41v43h41v63h48v-63h72v-43z" />
    <glyph glyph-name="U.ccmp" horiz-adv-x="294" 
d="M215 700h48v-276h-46v31h-1c-19 -24 -49 -38 -85 -38c-65 0 -104 36 -104 108v175h48v-171c0 -46 22 -69 67 -69c43 0 73 30 73 75v165z" />
    <glyph glyph-name="V.ccmp" horiz-adv-x="295" 
d="M127 424l-115 276h52l84 -209h1l83 209h51l-115 -276h-41z" />
    <glyph glyph-name="W.ccmp" horiz-adv-x="414" 
d="M79 424l-67 276h50l48 -209h1l72 209h48l72 -209h1l48 209h50l-67 -276h-50l-77 217h-1l-78 -217h-50z" />
    <glyph glyph-name="X.ccmp" horiz-adv-x="292" 
d="M12 424l104 140l-101 136h58l72 -102h1l72 102h59l-102 -136l105 -140h-60l-74 106h-1l-73 -106h-60z" />
    <glyph glyph-name="Y.ccmp" horiz-adv-x="294" 
d="M229 700h53l-170 -397h-52l62 147l-110 250h54l81 -193h1z" />
    <glyph glyph-name="Z.ccmp" horiz-adv-x="274" 
d="M12 424v39l179 193v1h-174v43h241v-39l-179 -193v-1h183v-43h-250z" />
    <glyph glyph-name="a.salt" horiz-adv-x="575" 
d="M449 530h56v-530h-56v58h-2c-32 -44 -95 -73 -160 -73c-138 0 -236 111 -236 280s98 280 236 280c65 0 128 -29 160 -73h2v58zM447 172v186c0 69 -68 133 -157 133c-109 0 -181 -86 -181 -226s72 -226 181 -226c89 0 157 64 157 133z" />
    <glyph glyph-name="aacute.salt" horiz-adv-x="575" 
d="M449 530h56v-530h-56v58h-2c-32 -44 -95 -73 -160 -73c-138 0 -236 111 -236 280s98 280 236 280c65 0 128 -29 160 -73h2v58zM447 172v186c0 69 -68 133 -157 133c-109 0 -181 -86 -181 -226s72 -226 181 -226c89 0 157 64 157 133zM257 605l69 110h82l-96 -110h-55z
" />
    <glyph glyph-name="abreve.salt" horiz-adv-x="575" 
d="M449 530h56v-530h-56v58h-2c-32 -44 -95 -73 -160 -73c-138 0 -236 111 -236 280s98 280 236 280c65 0 128 -29 160 -73h2v58zM447 172v186c0 69 -68 133 -157 133c-109 0 -181 -86 -181 -226s72 -226 181 -226c89 0 157 64 157 133zM180 706h38c7 -37 34 -59 78 -59
c43 0 70 22 77 59h38c-4 -68 -47 -111 -115 -111c-69 0 -113 43 -116 111z" />
    <glyph glyph-name="uni01CE.salt" horiz-adv-x="575" 
d="M449 530h56v-530h-56v58h-2c-32 -44 -95 -73 -160 -73c-138 0 -236 111 -236 280s98 280 236 280c65 0 128 -29 160 -73h2v58zM447 172v186c0 69 -68 133 -157 133c-109 0 -181 -86 -181 -226s72 -226 181 -226c89 0 157 64 157 133zM366 709l37 -29l-67 -85h-82l-67 85
l37 29l71 -88z" />
    <glyph glyph-name="acircumflex.salt" horiz-adv-x="575" 
d="M449 530h56v-530h-56v58h-2c-32 -44 -95 -73 -160 -73c-138 0 -236 111 -236 280s98 280 236 280c65 0 128 -29 160 -73h2v58zM447 172v186c0 69 -68 133 -157 133c-109 0 -181 -86 -181 -226s72 -226 181 -226c89 0 157 64 157 133zM403 614l-37 -29l-71 89l-71 -89
l-37 29l67 85h82z" />
    <glyph glyph-name="uni1EAD.salt" horiz-adv-x="575" 
d="M449 530h56v-530h-56v58h-2c-32 -44 -95 -73 -160 -73c-138 0 -236 111 -236 280s98 280 236 280c65 0 128 -29 160 -73h2v58zM447 172v186c0 69 -68 133 -157 133c-109 0 -181 -86 -181 -226s72 -226 181 -226c89 0 157 64 157 133zM403 614l-37 -29l-71 89l-71 -89
l-37 29l67 85h82zM253 -147v83h84v-83h-84z" />
    <glyph glyph-name="adieresis.salt" horiz-adv-x="575" 
d="M449 530h56v-530h-56v58h-2c-32 -44 -95 -73 -160 -73c-138 0 -236 111 -236 280s98 280 236 280c65 0 128 -29 160 -73h2v58zM447 172v186c0 69 -68 133 -157 133c-109 0 -181 -86 -181 -226s72 -226 181 -226c89 0 157 64 157 133zM167 595v83h84v-83h-84zM339 595v83
h84v-83h-84z" />
    <glyph glyph-name="uni01DF.salt" horiz-adv-x="575" 
d="M449 530h56v-530h-56v58h-2c-32 -44 -95 -73 -160 -73c-138 0 -236 111 -236 280s98 280 236 280c65 0 128 -29 160 -73h2v58zM447 172v186c0 69 -68 133 -157 133c-109 0 -181 -86 -181 -226s72 -226 181 -226c89 0 157 64 157 133zM167 595v83h84v-83h-84zM339 595v83
h84v-83h-84zM169 718v48h252v-48h-252z" />
    <glyph glyph-name="uni1EA1.salt" horiz-adv-x="575" 
d="M449 530h56v-530h-56v58h-2c-32 -44 -95 -73 -160 -73c-138 0 -236 111 -236 280s98 280 236 280c65 0 128 -29 160 -73h2v58zM447 172v186c0 69 -68 133 -157 133c-109 0 -181 -86 -181 -226s72 -226 181 -226c89 0 157 64 157 133zM253 -147v83h84v-83h-84z" />
    <glyph glyph-name="agrave.salt" horiz-adv-x="575" 
d="M449 530h56v-530h-56v58h-2c-32 -44 -95 -73 -160 -73c-138 0 -236 111 -236 280s98 280 236 280c65 0 128 -29 160 -73h2v58zM447 172v186c0 69 -68 133 -157 133c-109 0 -181 -86 -181 -226s72 -226 181 -226c89 0 157 64 157 133zM277 605l-96 110h82l69 -110h-55z
" />
    <glyph glyph-name="amacron.salt" horiz-adv-x="575" 
d="M449 530h56v-530h-56v58h-2c-32 -44 -95 -73 -160 -73c-138 0 -236 111 -236 280s98 280 236 280c65 0 128 -29 160 -73h2v58zM447 172v186c0 69 -68 133 -157 133c-109 0 -181 -86 -181 -226s72 -226 181 -226c89 0 157 64 157 133zM169 605v48h252v-48h-252z" />
    <glyph glyph-name="aogonek.salt" horiz-adv-x="575" 
d="M449 530h56v-530h-56v58h-2c-32 -44 -95 -73 -160 -73c-138 0 -236 111 -236 280s98 280 236 280c65 0 128 -29 160 -73h2v58zM447 172v186c0 69 -68 133 -157 133c-109 0 -181 -86 -181 -226s72 -226 181 -226c89 0 157 64 157 133zM368 -115c0 44 38 91 101 127l32 -12
c-55 -31 -82 -65 -82 -103c0 -24 13 -36 38 -36c19 0 39 6 60 19l19 -46c-28 -16 -57 -24 -86 -24c-52 0 -82 27 -82 75z" />
    <glyph glyph-name="aring.salt" horiz-adv-x="579" 
d="M182 678c0 57 44 98 105 98c60 0 104 -41 104 -98s-44 -99 -104 -99c-61 0 -105 42 -105 99zM351 678c0 37 -28 64 -64 64c-37 0 -65 -27 -65 -64s26 -64 65 -64c36 0 64 27 64 64zM449 530h56v-530h-56v58h-2c-32 -44 -95 -73 -160 -73c-138 0 -236 111 -236 280
s98 280 236 280c65 0 128 -29 160 -73h2v58zM447 172v186c0 69 -68 133 -157 133c-109 0 -181 -86 -181 -226s72 -226 181 -226c89 0 157 64 157 133z" />
    <glyph glyph-name="aringacute.salt" horiz-adv-x="575" 
d="M182 678c0 47 30 83 74 94l63 100h82l-86 -99c45 -11 76 -47 76 -95c0 -57 -44 -99 -104 -99c-61 0 -105 42 -105 99zM222 678c0 -37 26 -64 65 -64c36 0 64 27 64 64s-28 64 -64 64c-37 0 -65 -27 -65 -64zM449 530h56v-530h-56v58h-2c-32 -44 -95 -73 -160 -73
c-138 0 -236 111 -236 280s98 280 236 280c65 0 128 -29 160 -73h2v58zM447 172v186c0 69 -68 133 -157 133c-109 0 -181 -86 -181 -226s72 -226 181 -226c89 0 157 64 157 133z" />
    <glyph glyph-name="atilde.salt" horiz-adv-x="575" 
d="M449 530h56v-530h-56v58h-2c-32 -44 -95 -73 -160 -73c-138 0 -236 111 -236 280s98 280 236 280c65 0 128 -29 160 -73h2v58zM447 172v186c0 69 -68 133 -157 133c-109 0 -181 -86 -181 -226s72 -226 181 -226c89 0 157 64 157 133zM285 623c-24 12 -35 18 -50 18
c-20 0 -32 -12 -37 -36h-36c4 52 32 83 76 83c23 0 41 -8 66 -23c24 -12 35 -18 50 -18c20 0 32 12 36 36h37c-4 -52 -32 -83 -76 -83c-23 0 -41 8 -66 23z" />
    <glyph glyph-name="aring.ss02" horiz-adv-x="509" 
d="M51 132c0 89 53 135 190 168c107 27 141 51 141 98c0 59 -46 94 -121 94c-80 0 -137 -48 -150 -127l-58 11c16 103 97 169 208 169c113 0 183 -61 183 -161v-384h-55v69h-2c-28 -51 -94 -84 -166 -84c-105 0 -170 56 -170 147zM386 174v144h-2c-13 -29 -50 -48 -127 -67
c-108 -28 -148 -59 -148 -116c0 -61 41 -96 116 -96c91 0 161 58 161 135zM147 615c0 61 47 107 114 107s114 -46 114 -107c0 -63 -49 -108 -114 -108s-114 45 -114 108zM331 615c0 40 -30 70 -70 70c-41 0 -70 -30 -70 -70c0 -41 29 -70 70 -70c40 0 70 29 70 70z" />
    <glyph glyph-name="aringacute.ss02" horiz-adv-x="509" 
d="M51 132c0 89 53 135 190 168c107 27 141 51 141 98c0 59 -46 94 -121 94c-80 0 -137 -48 -150 -127l-58 11c16 103 97 169 208 169c113 0 183 -61 183 -161v-384h-55v69h-2c-28 -51 -94 -84 -166 -84c-105 0 -170 56 -170 147zM386 174v144h-2c-13 -29 -50 -48 -127 -67
c-108 -28 -148 -59 -148 -116c0 -61 41 -96 116 -96c91 0 161 58 161 135zM147 615c0 61 47 107 114 107s114 -46 114 -107c0 -63 -49 -108 -114 -108s-114 45 -114 108zM331 615c0 40 -30 70 -70 70c-41 0 -70 -30 -70 -70c0 -41 29 -70 70 -70c40 0 70 29 70 70zM223 712
l69 110h82l-96 -110h-55z" />
    <glyph glyph-name="f.ss03" horiz-adv-x="294" 
d="M111 0v477h-89v53h89v61c0 65 41 105 110 105h72v-54h-66c-40 0 -58 -18 -58 -59v-53h106v-53h-106v-477h-58z" />
    <glyph glyph-name="j.ss03" horiz-adv-x="199" 
d="M61 624v74h76v-74h-76zM71 -225v755h58v-755h-58z" />
    <glyph glyph-name="t.ss03" horiz-adv-x="303" 
d="M275 478h-117v-373c0 -36 14 -51 57 -51h43v-54h-46c-81 0 -112 29 -112 106v372h-78v52h78v116h58v-116h117v-52z" />
    <glyph glyph-name="ordfeminine" unicode="&#xaa;" horiz-adv-x="273" 
d="M18 494c0 47 31 71 108 90c51 12 68 23 68 42c0 27 -21 42 -57 42c-40 0 -66 -22 -73 -61l-46 7c8 56 56 93 119 93c64 0 104 -35 104 -90v-193h-42v33h-1c-15 -24 -50 -40 -89 -40c-56 0 -91 29 -91 77zM195 519v60h-1c-7 -13 -24 -21 -60 -30c-52 -13 -69 -27 -69 -52
s18 -40 53 -40c43 0 77 27 77 62z" />
    <glyph glyph-name="ordmasculine" unicode="&#xba;" horiz-adv-x="307" 
d="M17 562c0 85 56 145 137 145c80 0 136 -60 136 -145s-56 -145 -136 -145c-81 0 -137 60 -137 145zM242 562c0 61 -35 102 -88 102s-89 -41 -89 -102s36 -102 89 -102s88 41 88 102z" />
    <glyph glyph-name="uni0394" unicode="&#x394;" horiz-adv-x="584" 
d="M323 700l256 -700h-574l257 700h61zM89 55h406l-202 562h-2z" />
    <glyph glyph-name="uni03A9" unicode="&#x3a9;" horiz-adv-x="682" 
d="M474 54v-2h151v-52h-243v51c109 22 192 158 192 309c0 180 -93 297 -233 297c-139 0 -233 -117 -233 -297c0 -151 84 -287 191 -309v-51h-243v52h150v2c-47 23 -86 63 -115 119s-44 118 -44 187c0 210 120 355 294 355s294 -145 294 -355c0 -69 -15 -131 -44 -187
s-68 -96 -117 -119z" />
    <glyph glyph-name="uni03BC" unicode="&#x3bc;" horiz-adv-x="552" 
d="M423 530h58v-530h-56v65h-2c-31 -49 -89 -80 -156 -80c-61 0 -107 20 -136 60h-2v-270h-58v755h58v-338c0 -102 48 -153 144 -153c89 0 150 62 150 153v338z" />
    <glyph glyph-name="pi" unicode="&#x3c0;" horiz-adv-x="641" 
d="M592 476h-102v-365c0 -43 14 -57 57 -57h43v-54h-52c-73 0 -106 33 -106 105v371h-248v-476h-58v476h-104v54h570v-54z" />
    <glyph glyph-name="zero" unicode="0" horiz-adv-x="641" 
d="M47 336c0 216 112 350 274 350s273 -134 273 -350c0 -215 -112 -350 -273 -350c-162 0 -274 134 -274 350zM536 336c0 184 -87 296 -215 296c-129 0 -216 -112 -216 -296s87 -296 216 -296c128 0 215 112 215 296z" />
    <glyph glyph-name="one" unicode="1" horiz-adv-x="360" 
d="M196 0v605l-161 -101v62l167 106h52v-672h-58z" />
    <glyph glyph-name="two" unicode="2" horiz-adv-x="599" 
d="M131 54h398v-54h-459v51c0 64 9 104 28 136c13 21 32 41 58 59c27 19 71 43 133 73c145 71 189 113 189 185c0 75 -67 128 -163 128c-115 0 -188 -65 -195 -176l-58 4c8 138 108 226 253 226c127 0 221 -77 221 -182c0 -96 -51 -150 -206 -224c-63 -31 -107 -54 -130 -69
s-40 -32 -50 -49c-13 -24 -18 -49 -19 -108z" />
    <glyph glyph-name="three" unicode="3" horiz-adv-x="591" 
d="M52 219l58 9c9 -124 75 -188 191 -188c103 0 169 57 169 146c0 101 -62 149 -187 149h-41v52h41c99 0 168 51 168 123c0 75 -58 122 -149 122c-96 0 -162 -51 -175 -138l-57 9c16 113 105 183 232 183c61 0 111 -16 149 -47c39 -31 58 -73 58 -125
c0 -67 -41 -122 -113 -147v-2c81 -23 132 -87 132 -179c0 -121 -90 -200 -227 -200c-147 0 -238 84 -249 233z" />
    <glyph glyph-name="four" unicode="4" horiz-adv-x="562" 
d="M373 0v138h-359v53l329 481h88v-480h94v-54h-94v-138h-58zM74 192h300v434h-2z" />
    <glyph glyph-name="five" unicode="5" horiz-adv-x="580" 
d="M44 175l55 14c21 -99 85 -149 194 -149c57 0 103 17 138 51s53 79 53 134c0 53 -17 97 -52 130s-81 50 -139 50c-73 0 -133 -27 -181 -82l-52 14l68 335h356v-54h-311l-46 -220l2 -1c44 37 103 59 172 59c140 0 241 -94 241 -231c0 -142 -102 -239 -249 -239
c-136 0 -226 69 -249 189z" />
    <glyph glyph-name="six" unicode="6" horiz-adv-x="605" 
d="M568 218c0 -141 -102 -232 -241 -232c-177 0 -280 129 -280 339c0 213 122 361 283 361c117 0 201 -64 226 -176l-56 -13c-23 90 -80 135 -169 135c-129 0 -223 -124 -223 -309v-9h4c31 80 115 133 218 133c138 0 238 -93 238 -229zM510 218c0 108 -75 178 -186 178
c-107 0 -190 -76 -190 -178s76 -178 193 -178c53 0 96 16 131 47c35 32 52 76 52 131z" />
    <glyph glyph-name="seven" unicode="7" horiz-adv-x="504" 
d="M105 0l297 616v2h-383v54h448v-52l-297 -620h-65z" />
    <glyph glyph-name="eight" unicode="8" horiz-adv-x="566" 
d="M29 182c0 87 54 153 145 181v2c-71 31 -106 77 -106 146c0 99 90 175 215 175s215 -76 215 -175c0 -67 -35 -116 -106 -146v-2c91 -28 145 -94 145 -181c0 -118 -101 -197 -254 -197s-254 79 -254 197zM441 509c0 72 -65 124 -158 124s-157 -52 -157 -124
c0 -73 61 -121 157 -121s158 48 158 121zM477 186c0 43 -18 79 -54 106c-35 27 -82 41 -140 41c-116 0 -194 -59 -194 -147c0 -89 75 -145 194 -145s194 56 194 145z" />
    <glyph glyph-name="nine" unicode="9" horiz-adv-x="585" 
d="M539 372c0 -267 -80 -387 -253 -387c-112 0 -193 63 -218 171l57 15c21 -87 78 -130 161 -130c127 0 187 88 190 288v19h-1c-28 -72 -100 -116 -200 -116c-147 0 -238 88 -238 229c0 132 102 225 241 225c163 0 261 -111 261 -314zM460 458c0 104 -71 172 -182 172
c-109 0 -181 -66 -181 -169c0 -108 70 -175 181 -175s182 68 182 172z" />
    <glyph glyph-name="zero.ccmp" horiz-adv-x="641" 
d="M47 350c0 225 112 365 274 365s273 -140 273 -365s-111 -365 -273 -365s-274 140 -274 365zM533 350c0 192 -86 307 -212 307c-128 0 -213 -115 -213 -307s85 -307 213 -307c126 0 212 115 212 307z" />
    <glyph glyph-name="one.ccmp" horiz-adv-x="362" 
d="M195 0v630l-160 -105v64l167 111h55v-700h-62z" />
    <glyph glyph-name="two.ccmp" horiz-adv-x="600" 
d="M134 58h395v-58h-459v53c0 60 9 107 28 140c13 23 32 45 58 64c27 19 71 44 132 75c148 77 185 117 188 194c0 77 -66 131 -161 131c-113 0 -184 -67 -191 -182l-62 5c8 142 108 235 253 235c127 0 223 -81 223 -189c0 -100 -51 -158 -206 -236
c-63 -31 -106 -54 -129 -71c-23 -16 -39 -33 -49 -52c-15 -23 -19 -49 -20 -109z" />
    <glyph glyph-name="three.ccmp" horiz-adv-x="593" 
d="M52 229l61 9c10 -130 73 -195 189 -195c103 0 168 58 168 150c0 107 -62 156 -186 156h-41v54h41c49 0 88 12 119 36c31 25 47 56 47 93c0 77 -57 126 -148 126c-95 0 -159 -54 -172 -143l-60 9c16 117 107 191 232 191c123 0 210 -72 210 -180c0 -69 -41 -126 -112 -153
v-2c81 -24 131 -91 131 -187c0 -126 -92 -208 -229 -208c-148 0 -238 88 -250 244z" />
    <glyph glyph-name="four.ccmp" horiz-adv-x="564" 
d="M373 0v146h-359v53l327 501h93v-500h92v-54h-92v-146h-61zM76 200h297v451h-2z" />
    <glyph glyph-name="five.ccmp" horiz-adv-x="585" 
d="M44 182l60 14c19 -100 83 -153 191 -153c113 0 190 75 190 191c0 112 -74 188 -190 188c-71 0 -131 -28 -179 -85l-54 14l68 349h356v-58h-309l-46 -226l2 -1c46 40 103 60 171 60c141 0 242 -100 242 -241c0 -149 -102 -249 -251 -249c-136 0 -228 73 -251 197z" />
    <glyph glyph-name="six.ccmp" horiz-adv-x="606" 
d="M569 227c0 -147 -103 -242 -241 -242c-178 0 -281 135 -281 354c-2 219 124 379 283 376c117 0 202 -67 227 -183l-58 -15c-22 94 -78 141 -167 141c-129 0 -222 -126 -222 -318v-9c33 81 119 135 222 135c137 0 237 -98 237 -239zM509 227c0 113 -74 185 -183 185
c-108 0 -191 -79 -191 -185s77 -185 193 -185c102 0 181 70 181 185z" />
    <glyph glyph-name="seven.ccmp" horiz-adv-x="505" 
d="M103 0l295 640v2h-379v58h449v-54l-296 -646h-69z" />
    <glyph glyph-name="eight.ccmp" horiz-adv-x="567" 
d="M29 191c0 89 54 159 143 188v2c-69 31 -104 82 -104 152c0 102 92 182 216 182s215 -80 215 -182c0 -71 -33 -120 -104 -152v-2c89 -29 143 -99 143 -188c0 -123 -101 -206 -254 -206c-154 0 -255 82 -255 206zM438 530c0 75 -63 129 -154 129c-92 0 -155 -54 -155 -129
c0 -77 60 -125 155 -125c93 0 154 49 154 125zM475 195c0 91 -76 152 -191 152c-116 0 -193 -61 -193 -152c0 -92 76 -151 193 -151c116 0 191 59 191 151z" />
    <glyph glyph-name="nine.ccmp" horiz-adv-x="585" 
d="M539 388c0 -277 -80 -403 -253 -403c-111 0 -193 66 -218 178l57 15c23 -91 80 -136 161 -136c128 0 186 93 190 308h-2c-33 -65 -102 -107 -199 -107c-147 0 -238 90 -238 237c0 137 101 235 241 235c163 0 261 -115 261 -327zM460 477c0 109 -73 181 -182 181
s-181 -71 -181 -178c0 -113 70 -183 181 -183s182 71 182 180z" />
    <glyph glyph-name="zero.tnum" 
d="M51 350c0 225 112 365 274 365s274 -140 274 -365s-112 -365 -274 -365s-274 140 -274 365zM537 350c0 192 -86 307 -212 307s-212 -115 -212 -307s86 -307 212 -307s212 115 212 307z" />
    <glyph glyph-name="one.tnum" 
d="M360 58h158v-58h-386v58h166v572l-160 -105v64l167 111h55v-642z" />
    <glyph glyph-name="two.tnum" 
d="M159 58h395v-58h-459v53c0 60 9 107 28 140c13 23 32 45 58 64c27 19 71 44 132 75c148 77 185 117 188 194c0 77 -66 131 -161 131c-113 0 -184 -67 -191 -182l-62 5c8 142 108 235 253 235c127 0 223 -81 223 -189c0 -100 -51 -158 -206 -236
c-63 -31 -106 -54 -129 -71c-23 -16 -39 -33 -49 -52c-15 -23 -19 -49 -20 -109z" />
    <glyph glyph-name="three.tnum" 
d="M85 229l61 9c10 -130 73 -195 189 -195c103 0 168 58 168 150c0 107 -62 156 -186 156h-41v54h41c49 0 88 12 119 36c31 25 47 56 47 93c0 77 -57 126 -148 126c-95 0 -159 -54 -172 -143l-60 9c16 117 107 191 232 191c123 0 210 -72 210 -180c0 -69 -41 -126 -112 -153
v-2c81 -24 131 -91 131 -187c0 -126 -92 -208 -229 -208c-148 0 -238 88 -250 244z" />
    <glyph glyph-name="four.tnum" 
d="M427 0v146h-359v53l327 501h93v-500h92v-54h-92v-146h-61zM130 200h297v451h-2z" />
    <glyph glyph-name="five.tnum" 
d="M74 182l60 14c19 -100 83 -153 191 -153c113 0 190 75 190 191c0 112 -74 188 -190 188c-71 0 -131 -28 -179 -85l-54 14l68 349h356v-58h-309l-46 -226l2 -1c46 40 103 60 171 60c141 0 242 -100 242 -241c0 -149 -102 -249 -251 -249c-136 0 -228 73 -251 197z" />
    <glyph glyph-name="six.tnum" 
d="M588 227c0 -147 -103 -242 -241 -242c-178 0 -281 135 -281 354c-2 219 124 379 283 376c117 0 202 -67 227 -183l-58 -15c-22 94 -78 141 -167 141c-129 0 -222 -126 -222 -318v-9c33 81 119 135 222 135c137 0 237 -98 237 -239zM528 227c0 113 -74 185 -183 185
c-108 0 -191 -79 -191 -185s77 -185 193 -185c102 0 181 70 181 185z" />
    <glyph glyph-name="seven.tnum" 
d="M185 0l295 640v2h-379v58h449v-54l-296 -646h-69z" />
    <glyph glyph-name="eight.tnum" 
d="M71 191c0 89 54 159 143 188v2c-69 31 -104 82 -104 152c0 102 92 182 216 182s215 -80 215 -182c0 -71 -33 -120 -104 -152v-2c89 -29 143 -99 143 -188c0 -123 -101 -206 -254 -206c-154 0 -255 82 -255 206zM480 530c0 75 -63 129 -154 129c-92 0 -155 -54 -155 -129
c0 -77 60 -125 155 -125c93 0 154 49 154 125zM517 195c0 91 -76 152 -191 152c-116 0 -193 -61 -193 -152c0 -92 76 -151 193 -151c116 0 191 59 191 151z" />
    <glyph glyph-name="nine.tnum" 
d="M579 388c0 -277 -80 -403 -253 -403c-111 0 -193 66 -218 178l57 15c23 -91 80 -136 161 -136c128 0 186 93 190 308h-2c-33 -65 -102 -107 -199 -107c-147 0 -238 90 -238 237c0 137 101 235 241 235c163 0 261 -115 261 -327zM500 477c0 109 -73 181 -182 181
s-181 -71 -181 -178c0 -113 70 -183 181 -183s182 71 182 180z" />
    <glyph glyph-name="zero.zero" horiz-adv-x="641" 
d="M594 336c0 -215 -112 -350 -273 -350c-162 0 -274 134 -274 350s112 350 274 350s273 -134 273 -350zM180 98l240 509c-29 17 -62 26 -99 26c-130 0 -217 -112 -217 -297c0 -104 27 -187 76 -238zM538 336c0 107 -29 191 -80 242l-241 -510c31 -19 65 -29 104 -29
c130 0 217 112 217 297z" />
    <glyph glyph-name="zero.ordn" horiz-adv-x="641" 
d="M594 350c0 -225 -111 -365 -273 -365s-274 140 -274 365s112 365 274 365s273 -140 273 -365zM178 104l249 525c-31 21 -66 32 -106 32c-129 0 -215 -116 -215 -311c0 -107 27 -191 72 -246zM535 350c0 107 -27 191 -72 246l-248 -525c31 -21 66 -32 106 -32
c129 0 214 117 214 311z" />
    <glyph glyph-name="zero.tnum_zero" 
d="M598 350c0 -225 -111 -365 -273 -365s-274 140 -274 365s112 365 274 365s273 -140 273 -365zM182 104l249 525c-31 21 -66 32 -106 32c-129 0 -215 -116 -215 -311c0 -107 27 -191 72 -246zM539 350c0 107 -27 191 -72 246l-248 -525c31 -21 66 -32 106 -32
c129 0 214 117 214 311z" />
    <glyph glyph-name="zero.subs" horiz-adv-x="403" 
d="M32 61c0 135 64 219 169 219s170 -84 170 -219s-65 -219 -170 -219s-169 84 -169 219zM318 61c0 108 -42 171 -117 171c-73 0 -116 -63 -116 -171s43 -171 116 -171c75 0 117 63 117 171z" />
    <glyph glyph-name="one.subs" horiz-adv-x="258" 
d="M131 -149v363l-104 -64v55l107 66h50v-420h-53z" />
    <glyph glyph-name="two.subs" horiz-adv-x="366" 
d="M92 -101h240v-48h-296v42c0 44 6 71 22 91c19 24 49 43 118 74c80 36 106 61 106 102c0 43 -36 73 -91 73c-61 0 -103 -38 -106 -99l-53 3c4 85 68 143 159 143c84 0 144 -49 144 -120c0 -60 -32 -95 -125 -139c-38 -17 -64 -30 -77 -38c-13 -9 -23 -17 -28 -25
c-9 -12 -12 -24 -13 -59z" />
    <glyph glyph-name="three.subs" horiz-adv-x="364" 
d="M27 -11l52 8c5 -71 40 -106 107 -106c59 0 94 31 94 80c0 53 -34 80 -101 80h-31v43h26c57 0 92 26 92 70c0 41 -32 68 -83 68c-53 0 -87 -28 -96 -79l-51 9c11 73 67 118 147 118c79 0 136 -46 136 -111c0 -40 -20 -68 -59 -91v-1c48 -19 72 -56 72 -110
c0 -75 -58 -125 -146 -125c-96 0 -152 52 -159 147z" />
    <glyph glyph-name="four.subs" horiz-adv-x="362" 
d="M235 -149v82h-225v48l193 290h85v-290h57v-48h-57v-82h-53zM65 -19h170v252h-1z" />
    <glyph glyph-name="five.subs" horiz-adv-x="382" 
d="M32 -41l49 15c11 -53 51 -84 111 -84c61 0 106 42 106 101c0 60 -42 100 -106 100c-40 0 -76 -18 -103 -47l-47 13l42 214h227v-49h-188l-23 -119l1 -1c27 21 59 32 97 32c91 0 153 -58 153 -142c0 -88 -66 -150 -159 -150c-84 0 -147 45 -160 117z" />
    <glyph glyph-name="six.subs" horiz-adv-x="393" 
d="M362 -11c0 -88 -63 -148 -155 -148c-112 0 -175 80 -175 216c0 132 73 223 177 223c75 0 127 -39 144 -107l-50 -13c-13 48 -45 72 -94 72c-73 0 -120 -63 -121 -167c23 41 69 67 124 67c88 0 150 -58 150 -143zM308 -10c0 60 -40 99 -100 99c-59 0 -105 -40 -105 -99
c0 -60 39 -100 104 -100c60 0 101 39 101 100z" />
    <glyph glyph-name="seven.subs" horiz-adv-x="296" 
d="M52 -149l179 370v1h-231v49h291v-45l-179 -375h-60z" />
    <glyph glyph-name="eight.subs" horiz-adv-x="390" 
d="M32 -33c0 53 32 93 83 113v1c-36 16 -59 47 -59 87c0 65 58 112 139 112s140 -47 140 -112c0 -40 -23 -71 -60 -87v-1c51 -20 83 -60 83 -113c0 -76 -63 -125 -163 -125s-163 49 -163 125zM286 166c0 41 -38 70 -91 70c-52 0 -89 -29 -89 -70c0 -43 34 -68 89 -68
c56 0 91 27 91 68zM305 -27c0 48 -45 82 -110 82s-110 -34 -110 -82c0 -51 43 -83 110 -83c68 0 110 32 110 83z" />
    <glyph glyph-name="nine.subs" horiz-adv-x="385" 
d="M353 76c0 -156 -54 -234 -161 -234c-76 0 -130 41 -145 109l51 13c11 -49 43 -74 94 -74c68 0 106 56 107 161h-1c-21 -35 -61 -55 -113 -55c-93 0 -153 56 -153 141c0 84 62 143 153 143c107 0 168 -75 168 -204zM288 137c0 57 -42 95 -103 95c-60 0 -100 -39 -100 -95
c0 -59 40 -95 101 -95c63 0 102 36 102 95z" />
    <glyph glyph-name="zero.dnom" horiz-adv-x="403" 
d="M32 210c0 135 64 219 169 219s170 -84 170 -219s-65 -219 -170 -219s-169 84 -169 219zM318 210c0 108 -42 171 -117 171c-73 0 -116 -63 -116 -171s43 -171 116 -171c75 0 117 63 117 171z" />
    <glyph glyph-name="one.dnom" horiz-adv-x="258" 
d="M131 0v363l-104 -64v55l107 66h50v-420h-53z" />
    <glyph glyph-name="two.dnom" horiz-adv-x="366" 
d="M92 48h240v-48h-296v42c0 44 6 71 22 91c19 24 49 43 118 74c80 36 106 61 106 102c0 43 -36 73 -91 73c-61 0 -103 -38 -106 -99l-53 3c4 85 68 143 159 143c84 0 144 -49 144 -120c0 -60 -32 -95 -125 -139c-38 -17 -64 -30 -77 -39c-13 -8 -23 -16 -28 -24
c-9 -12 -12 -24 -13 -59z" />
    <glyph glyph-name="three.dnom" horiz-adv-x="364" 
d="M27 138l52 8c5 -71 40 -106 107 -106c59 0 94 31 94 80c0 53 -34 80 -101 80h-31v43h26c57 0 92 26 92 70c0 41 -32 68 -83 68c-53 0 -87 -28 -96 -79l-51 9c11 73 67 118 147 118c79 0 136 -46 136 -111c0 -40 -20 -68 -59 -91v-1c48 -19 72 -56 72 -110
c0 -75 -58 -125 -146 -125c-96 0 -152 52 -159 147z" />
    <glyph glyph-name="four.dnom" horiz-adv-x="362" 
d="M235 0v82h-225v48l193 290h85v-290h57v-48h-57v-82h-53zM65 130h170v252h-1z" />
    <glyph glyph-name="five.dnom" horiz-adv-x="382" 
d="M32 108l49 15c11 -53 51 -84 111 -84c61 0 106 42 106 101c0 60 -42 100 -106 100c-40 0 -76 -18 -103 -47l-47 13l42 214h227v-49h-188l-23 -119l1 -1c27 21 59 32 97 32c91 0 153 -58 153 -142c0 -88 -66 -150 -159 -150c-84 0 -147 45 -160 117z" />
    <glyph glyph-name="six.dnom" horiz-adv-x="393" 
d="M362 138c0 -88 -63 -148 -155 -148c-112 0 -175 80 -175 216c0 132 73 223 177 223c75 0 127 -39 144 -107l-50 -13c-13 48 -45 72 -94 72c-73 0 -120 -63 -121 -167c23 41 69 67 124 67c88 0 150 -58 150 -143zM308 139c0 60 -40 99 -100 99c-59 0 -105 -40 -105 -99
c0 -60 39 -100 104 -100c60 0 101 39 101 100z" />
    <glyph glyph-name="seven.dnom" horiz-adv-x="296" 
d="M52 0l179 370v1h-231v49h291v-45l-179 -375h-60z" />
    <glyph glyph-name="eight.dnom" horiz-adv-x="390" 
d="M32 116c0 53 32 93 83 113v1c-36 16 -59 47 -59 87c0 65 58 112 139 112s140 -47 140 -112c0 -40 -23 -71 -60 -87v-1c51 -20 83 -60 83 -113c0 -76 -63 -125 -163 -125s-163 49 -163 125zM286 315c0 41 -38 70 -91 70c-52 0 -89 -29 -89 -70c0 -43 34 -68 89 -68
c56 0 91 27 91 68zM305 122c0 48 -45 82 -110 82s-110 -34 -110 -82c0 -51 43 -83 110 -83c68 0 110 32 110 83z" />
    <glyph glyph-name="nine.dnom" horiz-adv-x="385" 
d="M353 225c0 -156 -54 -234 -161 -234c-76 0 -130 41 -145 109l51 13c11 -49 43 -74 94 -74c68 0 106 56 107 161h-1c-21 -35 -61 -55 -113 -55c-93 0 -153 56 -153 141c0 84 62 143 153 143c107 0 168 -75 168 -204zM288 286c0 57 -42 95 -103 95c-60 0 -100 -39 -100 -95
c0 -59 40 -95 101 -95c63 0 102 36 102 95z" />
    <glyph glyph-name="zero.numr" horiz-adv-x="403" 
d="M32 490c0 135 64 219 169 219s170 -84 170 -219s-65 -219 -170 -219s-169 84 -169 219zM318 490c0 108 -42 171 -117 171c-73 0 -116 -63 -116 -171s43 -171 116 -171c75 0 117 63 117 171z" />
    <glyph glyph-name="one.numr" horiz-adv-x="258" 
d="M131 280v363l-104 -64v55l107 66h50v-420h-53z" />
    <glyph glyph-name="two.numr" horiz-adv-x="366" 
d="M92 328h240v-48h-296v42c0 44 6 71 22 91c19 24 49 43 118 74c80 36 106 61 106 102c0 43 -36 73 -91 73c-61 0 -103 -38 -106 -99l-53 3c4 85 68 143 159 143c84 0 144 -49 144 -120c0 -60 -32 -95 -125 -139c-38 -17 -64 -30 -77 -39c-13 -8 -23 -16 -28 -24
c-9 -12 -12 -24 -13 -59z" />
    <glyph glyph-name="three.numr" horiz-adv-x="364" 
d="M27 418l52 8c5 -71 40 -106 107 -106c59 0 94 31 94 80c0 53 -34 80 -101 80h-31v43h26c57 0 92 26 92 70c0 41 -32 68 -83 68c-53 0 -87 -28 -96 -79l-51 9c11 73 67 118 147 118c79 0 136 -46 136 -111c0 -40 -20 -68 -59 -91v-1c48 -19 72 -56 72 -110
c0 -75 -58 -125 -146 -125c-96 0 -152 52 -159 147z" />
    <glyph glyph-name="four.numr" horiz-adv-x="362" 
d="M235 280v82h-225v48l193 290h85v-290h57v-48h-57v-82h-53zM65 410h170v252h-1z" />
    <glyph glyph-name="five.numr" horiz-adv-x="382" 
d="M32 388l49 15c11 -53 51 -84 111 -84c61 0 106 42 106 101c0 60 -42 100 -106 100c-40 0 -76 -18 -103 -47l-47 13l42 214h227v-49h-188l-23 -119l1 -1c27 21 59 32 97 32c91 0 153 -58 153 -142c0 -88 -66 -150 -159 -150c-84 0 -147 45 -160 117z" />
    <glyph glyph-name="six.numr" horiz-adv-x="393" 
d="M362 418c0 -88 -63 -148 -155 -148c-112 0 -175 80 -175 216c0 132 73 223 177 223c75 0 127 -39 144 -107l-50 -13c-13 48 -45 72 -94 72c-73 0 -120 -63 -121 -167c23 41 69 67 124 67c88 0 150 -58 150 -143zM308 419c0 60 -40 99 -100 99c-59 0 -105 -40 -105 -99
c0 -60 39 -100 104 -100c60 0 101 39 101 100z" />
    <glyph glyph-name="seven.numr" horiz-adv-x="296" 
d="M52 280l179 370v1h-231v49h291v-45l-179 -375h-60z" />
    <glyph glyph-name="eight.numr" horiz-adv-x="390" 
d="M32 396c0 53 32 93 83 113v1c-36 16 -59 47 -59 87c0 65 58 112 139 112s140 -47 140 -112c0 -40 -23 -71 -60 -87v-1c51 -20 83 -60 83 -113c0 -76 -63 -125 -163 -125s-163 49 -163 125zM286 595c0 41 -38 70 -91 70c-52 0 -89 -29 -89 -70c0 -43 34 -68 89 -68
c56 0 91 27 91 68zM305 402c0 48 -45 82 -110 82s-110 -34 -110 -82c0 -51 43 -83 110 -83c68 0 110 32 110 83z" />
    <glyph glyph-name="nine.numr" horiz-adv-x="385" 
d="M353 505c0 -156 -54 -234 -161 -234c-76 0 -130 41 -145 109l51 13c11 -49 43 -74 94 -74c68 0 106 56 107 161h-1c-21 -35 -61 -55 -113 -55c-93 0 -153 56 -153 141c0 84 62 143 153 143c107 0 168 -75 168 -204zM288 566c0 57 -42 95 -103 95c-60 0 -100 -39 -100 -95
c0 -59 40 -95 101 -95c63 0 102 36 102 95z" />
    <glyph glyph-name="zero.sups" horiz-adv-x="403" 
d="M32 590c0 135 64 219 169 219s170 -84 170 -219s-65 -219 -170 -219s-169 84 -169 219zM318 590c0 108 -42 171 -117 171c-73 0 -116 -63 -116 -171s43 -171 116 -171c75 0 117 63 117 171z" />
    <glyph glyph-name="one.sups" horiz-adv-x="258" 
d="M131 380v363l-104 -64v55l107 66h50v-420h-53z" />
    <glyph glyph-name="two.sups" horiz-adv-x="366" 
d="M92 428h240v-48h-296v42c0 44 6 71 22 91c19 24 49 43 118 74c80 36 106 61 106 102c0 43 -36 73 -91 73c-61 0 -103 -38 -106 -99l-53 3c4 85 68 143 159 143c84 0 144 -49 144 -120c0 -60 -32 -95 -125 -139c-38 -17 -64 -30 -77 -39c-13 -8 -23 -16 -28 -24
c-9 -12 -12 -24 -13 -59z" />
    <glyph glyph-name="three.sups" horiz-adv-x="364" 
d="M27 518l52 8c5 -71 40 -106 107 -106c59 0 94 31 94 80c0 53 -34 80 -101 80h-31v43h26c57 0 92 26 92 70c0 41 -32 68 -83 68c-53 0 -87 -28 -96 -79l-51 9c11 73 67 118 147 118c79 0 136 -46 136 -111c0 -40 -20 -68 -59 -91v-1c48 -19 72 -56 72 -110
c0 -75 -58 -125 -146 -125c-96 0 -152 52 -159 147z" />
    <glyph glyph-name="four.sups" horiz-adv-x="362" 
d="M235 380v82h-225v48l193 290h85v-290h57v-48h-57v-82h-53zM65 510h170v252h-1z" />
    <glyph glyph-name="five.sups" horiz-adv-x="382" 
d="M32 488l49 15c11 -53 51 -84 111 -84c61 0 106 42 106 101c0 60 -42 100 -106 100c-40 0 -76 -18 -103 -47l-47 13l42 214h227v-49h-188l-23 -119l1 -1c27 21 59 32 97 32c91 0 153 -58 153 -142c0 -88 -66 -150 -159 -150c-84 0 -147 45 -160 117z" />
    <glyph glyph-name="six.sups" horiz-adv-x="393" 
d="M362 518c0 -88 -63 -148 -155 -148c-112 0 -175 80 -175 216c0 132 73 223 177 223c75 0 127 -39 144 -107l-50 -13c-13 48 -45 72 -94 72c-73 0 -120 -63 -121 -167c23 41 69 67 124 67c88 0 150 -58 150 -143zM308 519c0 60 -40 99 -100 99c-59 0 -105 -40 -105 -99
c0 -60 39 -100 104 -100c60 0 101 39 101 100z" />
    <glyph glyph-name="seven.sups" horiz-adv-x="296" 
d="M52 380l179 370v1h-231v49h291v-45l-179 -375h-60z" />
    <glyph glyph-name="eight.sups" horiz-adv-x="390" 
d="M32 496c0 53 32 93 83 113v1c-36 16 -59 47 -59 87c0 65 58 112 139 112s140 -47 140 -112c0 -40 -23 -71 -60 -87v-1c51 -20 83 -60 83 -113c0 -76 -63 -125 -163 -125s-163 49 -163 125zM286 695c0 41 -38 70 -91 70c-52 0 -89 -29 -89 -70c0 -43 34 -68 89 -68
c56 0 91 27 91 68zM305 502c0 48 -45 82 -110 82s-110 -34 -110 -82c0 -51 43 -83 110 -83c68 0 110 32 110 83z" />
    <glyph glyph-name="nine.sups" horiz-adv-x="385" 
d="M353 605c0 -156 -54 -234 -161 -234c-76 0 -130 41 -145 109l51 13c11 -49 43 -74 94 -74c68 0 106 56 107 161h-1c-21 -35 -61 -55 -113 -55c-93 0 -153 56 -153 141c0 84 62 143 153 143c107 0 168 -75 168 -204zM288 666c0 57 -42 95 -103 95c-60 0 -100 -39 -100 -95
c0 -59 40 -95 101 -95c63 0 102 36 102 95z" />
    <glyph glyph-name="fraction" unicode="&#x2044;" horiz-adv-x="207" 
d="M-118 -66l-45 25l489 813l43 -26z" />
    <glyph glyph-name="onehalf" unicode="&#xbd;" horiz-adv-x="831" 
d="M131 280v363l-104 -64v55l107 66h50v-420h-53zM140 -66l-45 25l489 813l43 -26zM557 48h240v-48h-296v42c0 44 6 71 22 91c19 24 49 43 118 74c80 36 106 61 106 102c0 43 -36 73 -91 73c-61 0 -103 -38 -106 -99l-53 3c4 85 68 143 159 143c84 0 144 -49 144 -120
c0 -60 -32 -95 -125 -139c-38 -17 -64 -30 -77 -39c-13 -8 -23 -16 -28 -24c-9 -12 -12 -24 -13 -59z" />
    <glyph glyph-name="onequarter" unicode="&#xbc;" horiz-adv-x="797" 
d="M131 280v363l-104 -64v55l107 66h50v-420h-53zM140 -66l-45 25l489 813l43 -26zM670 0v82h-225v48l193 290h85v-290h57v-48h-57v-82h-53zM500 130h170v252h-1z" />
    <glyph glyph-name="threequarters" unicode="&#xbe;" horiz-adv-x="903" 
d="M27 418l52 8c5 -71 40 -106 107 -106c59 0 94 31 94 80c0 53 -34 80 -101 80h-31v43h26c57 0 92 26 92 70c0 41 -32 68 -83 68c-53 0 -87 -28 -96 -79l-51 9c11 73 67 118 147 118c79 0 136 -46 136 -111c0 -40 -20 -68 -59 -91v-1c48 -19 72 -56 72 -110
c0 -75 -58 -125 -146 -125c-96 0 -152 52 -159 147zM246 -66l-45 25l489 813l43 -26zM776 0v82h-225v48l193 290h85v-290h57v-48h-57v-82h-53zM606 130h170v252h-1z" />
    <glyph glyph-name="oneeighth" unicode="&#x215b;" horiz-adv-x="855" 
d="M131 280v363l-104 -64v55l107 66h50v-420h-53zM140 -66l-45 25l489 813l43 -26zM497 116c0 53 32 93 83 113v1c-36 16 -59 47 -59 87c0 65 58 112 139 112s140 -47 140 -112c0 -40 -23 -71 -60 -87v-1c51 -20 83 -60 83 -113c0 -76 -63 -125 -163 -125s-163 49 -163 125z
M751 315c0 41 -38 70 -91 70c-52 0 -89 -29 -89 -70c0 -43 34 -68 89 -68c56 0 91 27 91 68zM770 122c0 48 -45 82 -110 82s-110 -34 -110 -82c0 -51 43 -83 110 -83c68 0 110 32 110 83z" />
    <glyph glyph-name="threeeighths" unicode="&#x215c;" horiz-adv-x="961" 
d="M27 418l52 8c5 -71 40 -106 107 -106c59 0 94 31 94 80c0 53 -34 80 -101 80h-31v43h26c57 0 92 26 92 70c0 41 -32 68 -83 68c-53 0 -87 -28 -96 -79l-51 9c11 73 67 118 147 118c79 0 136 -46 136 -111c0 -40 -20 -68 -59 -91v-1c48 -19 72 -56 72 -110
c0 -75 -58 -125 -146 -125c-96 0 -152 52 -159 147zM246 -66l-45 25l489 813l43 -26zM603 116c0 53 32 93 83 113v1c-36 16 -59 47 -59 87c0 65 58 112 139 112s140 -47 140 -112c0 -40 -23 -71 -60 -87v-1c51 -20 83 -60 83 -113c0 -76 -63 -125 -163 -125
s-163 49 -163 125zM857 315c0 41 -38 70 -91 70c-52 0 -89 -29 -89 -70c0 -43 34 -68 89 -68c56 0 91 27 91 68zM876 122c0 48 -45 82 -110 82s-110 -34 -110 -82c0 -51 43 -83 110 -83c68 0 110 32 110 83z" />
    <glyph glyph-name="fiveeighths" unicode="&#x215d;" horiz-adv-x="979" 
d="M32 388l49 15c11 -53 51 -84 111 -84c61 0 106 42 106 101c0 60 -42 100 -106 100c-40 0 -76 -18 -103 -47l-47 13l42 214h227v-49h-188l-23 -119l1 -1c27 21 59 32 97 32c91 0 153 -58 153 -142c0 -88 -66 -150 -159 -150c-84 0 -147 45 -160 117zM264 -66l-45 25
l489 813l43 -26zM621 116c0 53 32 93 83 113v1c-36 16 -59 47 -59 87c0 65 58 112 139 112s140 -47 140 -112c0 -40 -23 -71 -60 -87v-1c51 -20 83 -60 83 -113c0 -76 -63 -125 -163 -125s-163 49 -163 125zM875 315c0 41 -38 70 -91 70c-52 0 -89 -29 -89 -70
c0 -43 34 -68 89 -68c56 0 91 27 91 68zM894 122c0 48 -45 82 -110 82s-110 -34 -110 -82c0 -51 43 -83 110 -83c68 0 110 32 110 83z" />
    <glyph glyph-name="seveneighths" unicode="&#x215e;" horiz-adv-x="863" 
d="M52 280l179 370v1h-231v49h291v-45l-179 -375h-60zM148 -66l-45 25l489 813l43 -26zM505 116c0 53 32 93 83 113v1c-36 16 -59 47 -59 87c0 65 58 112 139 112s140 -47 140 -112c0 -40 -23 -71 -60 -87v-1c51 -20 83 -60 83 -113c0 -76 -63 -125 -163 -125
s-163 49 -163 125zM759 315c0 41 -38 70 -91 70c-52 0 -89 -29 -89 -70c0 -43 34 -68 89 -68c56 0 91 27 91 68zM778 122c0 48 -45 82 -110 82s-110 -34 -110 -82c0 -51 43 -83 110 -83c68 0 110 32 110 83z" />
    <glyph glyph-name="asterisk" unicode="*" horiz-adv-x="479" 
d="M134 347l-38 33l98 118l-127 76l26 40l122 -71v150h49v-150l122 71l26 -40l-127 -76l98 -118l-38 -33l-105 131z" />
    <glyph glyph-name="backslash" unicode="\" horiz-adv-x="442" 
d="M377 -34l-355 748l43 20l355 -750z" />
    <glyph glyph-name="periodcentered" unicode="&#xb7;" horiz-adv-x="236" 
d="M68 335v98h101v-98h-101z" />
    <glyph glyph-name="bullet" unicode="&#x2022;" horiz-adv-x="340" 
d="M97 384c0 43 29 74 73 74s73 -31 73 -74c0 -44 -29 -74 -73 -74s-73 30 -73 74z" />
    <glyph glyph-name="colon" unicode=":" horiz-adv-x="296" 
d="M97 352v98h101v-98h-101zM97 0v98h101v-98h-101z" />
    <glyph glyph-name="comma" unicode="," horiz-adv-x="298" 
d="M101 -89v37c28 7 40 20 40 52h-44v95h103v-83c0 -61 -35 -97 -99 -101z" />
    <glyph glyph-name="ellipsis" unicode="&#x2026;" horiz-adv-x="729" 
d="M314 0v98h101v-98h-101zM97 0v98h101v-98h-101zM531 0v98h101v-98h-101z" />
    <glyph glyph-name="exclam" unicode="!" horiz-adv-x="382" 
d="M160 193v507h62v-507h-62zM140 0v98h101v-98h-101z" />
    <glyph glyph-name="exclamdown" unicode="&#xa1;" horiz-adv-x="302" 
d="M100 530h101v-98h-101v98zM120 337h62v-507h-62v507z" />
    <glyph glyph-name="numbersign" unicode="#" horiz-adv-x="796" 
d="M720 459h-163l-37 -213h163l-9 -52h-164l-34 -194h-57l34 194h-167l-34 -194h-57l34 194h-162l9 52h163l37 213h-163l9 51h163l34 190h57l-34 -190h167l34 190h57l-34 -190h163zM463 246l37 213h-167l-37 -213h167z" />
    <glyph glyph-name="period" unicode="." horiz-adv-x="296" 
d="M97 0v98h101v-98h-101z" />
    <glyph glyph-name="question" unicode="?" horiz-adv-x="583" 
d="M226 179v69c0 65 25 103 102 151c79 51 106 86 106 143c0 68 -55 115 -132 115c-101 0 -158 -60 -165 -163l-61 3c2 129 92 218 226 218c107 0 194 -72 194 -173c0 -79 -38 -126 -134 -186c-31 -20 -52 -37 -62 -52s-15 -35 -15 -61v-64h-59zM208 0v98h101v-98h-101z" />
    <glyph glyph-name="questiondown" unicode="&#xbf;" horiz-adv-x="583" 
d="M375 530v-98h-101v98h101zM357 351v-69c0 -65 -25 -103 -102 -151c-79 -51 -106 -86 -106 -143c0 -68 55 -115 132 -115c101 0 158 60 165 163l61 -3c-2 -129 -92 -218 -226 -218c-107 0 -194 72 -194 173c0 79 38 126 134 186c31 20 52 37 62 52s15 35 15 61v64h59z" />
    <glyph glyph-name="quotedbl" unicode="&#x22;" horiz-adv-x="372" 
d="M97 487v213h56v-213h-56zM219 487v213h56v-213h-56z" />
    <glyph glyph-name="quotesingle" unicode="'" horiz-adv-x="250" 
d="M97 487v213h56v-213h-56z" />
    <glyph glyph-name="semicolon" unicode=";" horiz-adv-x="298" 
d="M101 -89v37c28 7 40 20 40 52h-44v95h103v-83c0 -61 -35 -97 -99 -101zM99 352v98h101v-98h-101z" />
    <glyph glyph-name="slash" unicode="/" horiz-adv-x="442" 
d="M65 -33l-43 18l355 750l43 -20z" />
    <glyph glyph-name="underscore" unicode="_" horiz-adv-x="609" 
d="M57 -134v50h495v-50h-495z" />
    <glyph glyph-name="braceleft" unicode="{" horiz-adv-x="358" 
d="M148 -50v240c0 47 -13 62 -53 62h-28v66h28c40 0 53 14 53 62v220c0 91 36 131 116 131h67v-59h-58c-47 0 -65 -24 -65 -84v-219c0 -53 -27 -82 -63 -83v-2c36 -1 63 -31 63 -84v-238c0 -60 18 -85 65 -85h58v-58h-67c-80 0 -116 40 -116 131z" />
    <glyph glyph-name="braceright" unicode="}" horiz-adv-x="358" 
d="M94 -181h-67v58h58c47 0 65 25 65 85v238c0 53 27 83 63 84v2c-36 1 -63 30 -63 83v219c0 60 -18 84 -65 84h-58v59h67c80 0 116 -40 116 -131v-220c0 -48 13 -62 53 -62h28v-66h-28c-40 0 -53 -15 -53 -62v-240c0 -91 -36 -131 -116 -131z" />
    <glyph glyph-name="bracketleft" unicode="[" horiz-adv-x="300" 
d="M91 -181v912h182v-55h-123v-802h123v-55h-182z" />
    <glyph glyph-name="bracketright" unicode="]" horiz-adv-x="300" 
d="M209 -181h-182v55h123v802h-123v55h182v-912z" />
    <glyph glyph-name="parenleft" unicode="(" horiz-adv-x="363" 
d="M97 295c0 184 64 342 199 489l40 -33c-123 -141 -177 -283 -177 -456c0 -175 54 -316 177 -457l-40 -32c-135 147 -199 305 -199 489z" />
    <glyph glyph-name="parenright" unicode=")" horiz-adv-x="363" 
d="M67 -194l-40 32c123 141 177 282 177 457c0 173 -54 315 -177 456l40 33c135 -147 199 -305 199 -489s-64 -342 -199 -489z" />
    <glyph glyph-name="braceleft.case" horiz-adv-x="358" 
d="M148 0v240c0 47 -13 62 -53 62h-28v66h28c40 0 53 14 53 62v220c0 91 36 131 116 131h67v-59h-58c-47 0 -65 -24 -65 -84v-219c0 -53 -27 -82 -63 -83v-2c36 -1 63 -31 63 -84v-238c0 -60 18 -85 65 -85h58v-58h-67c-80 0 -116 40 -116 131z" />
    <glyph glyph-name="braceright.case" horiz-adv-x="358" 
d="M94 -131h-67v58h58c47 0 65 25 65 85v238c0 53 27 83 63 84v2c-36 1 -63 30 -63 83v219c0 60 -18 84 -65 84h-58v59h67c80 0 116 -40 116 -131v-220c0 -48 13 -62 53 -62h28v-66h-28c-40 0 -53 -15 -53 -62v-240c0 -91 -36 -131 -116 -131z" />
    <glyph glyph-name="bracketleft.case" horiz-adv-x="300" 
d="M91 -131v912h182v-55h-123v-802h123v-55h-182z" />
    <glyph glyph-name="bracketright.case" horiz-adv-x="300" 
d="M209 -131h-182v55h123v802h-123v55h182v-912z" />
    <glyph glyph-name="parenleft.case" horiz-adv-x="363" 
d="M97 345c0 184 64 342 199 489l40 -33c-123 -141 -177 -283 -177 -456c0 -175 54 -316 177 -457l-40 -32c-135 147 -199 305 -199 489z" />
    <glyph glyph-name="parenright.case" horiz-adv-x="363" 
d="M67 -144l-40 32c123 141 177 282 177 457c0 173 -54 315 -177 456l40 33c135 -147 199 -305 199 -489s-64 -342 -199 -489z" />
    <glyph glyph-name="emdash" unicode="&#x2014;" horiz-adv-x="845" 
d="M57 269v56h730v-56h-730z" />
    <glyph glyph-name="endash" unicode="&#x2013;" horiz-adv-x="560" 
d="M57 269v56h445v-56h-445z" />
    <glyph glyph-name="hyphen" unicode="-" horiz-adv-x="362" 
d="M57 269v56h248v-56h-248z" />
    <glyph glyph-name="uni00AD" unicode="&#xad;" horiz-adv-x="362" 
d="M57 269v56h248v-56h-248z" />
    <glyph glyph-name="emdash.ccmp" horiz-adv-x="845" 
d="M57 334v56h730v-56h-730z" />
    <glyph glyph-name="endash.ccmp" horiz-adv-x="560" 
d="M57 334v56h445v-56h-445z" />
    <glyph glyph-name="hyphen.ccmp" horiz-adv-x="362" 
d="M57 334v56h248v-56h-248z" />
    <glyph glyph-name="uni00AD.ccmp" horiz-adv-x="362" 
d="M57 334v56h248v-56h-248z" />
    <glyph glyph-name="guillemotleft" unicode="&#xab;" horiz-adv-x="462" 
d="M333 97l-109 185l109 185h61l-111 -185l111 -185h-61zM186 97l-109 185l109 185h61l-111 -185l111 -185h-61z" />
    <glyph glyph-name="guillemotright" unicode="&#xbb;" horiz-adv-x="462" 
d="M129 97h-61l111 185l-111 185h61l109 -185zM276 97h-61l111 185l-111 185h61l109 -185z" />
    <glyph glyph-name="guilsinglleft" unicode="&#x2039;" horiz-adv-x="315" 
d="M186 97l-109 185l109 185h61l-111 -185l111 -185h-61z" />
    <glyph glyph-name="guilsinglright" unicode="&#x203a;" horiz-adv-x="315" 
d="M129 97h-61l111 185l-111 185h61l109 -185z" />
    <glyph glyph-name="quotedblbase" unicode="&#x201e;" horiz-adv-x="442" 
d="M101 -89v37c28 7 40 20 40 52h-44v95h103v-83c0 -61 -35 -97 -99 -101zM245 -89v37c28 7 40 20 40 52h-44v95h103v-83c0 -61 -35 -97 -99 -101z" />
    <glyph glyph-name="quotedblleft" unicode="&#x201c;" horiz-adv-x="442" 
d="M197 700v-37c-28 -7 -40 -20 -40 -52h44v-95h-103v83c0 61 35 97 99 101zM341 700v-37c-28 -7 -40 -20 -40 -52h44v-95h-103v83c0 61 35 97 99 101z" />
    <glyph glyph-name="quotedblright" unicode="&#x201d;" horiz-adv-x="442" 
d="M101 516v37c28 7 40 20 40 52h-44v95h103v-83c0 -61 -35 -97 -99 -101zM245 516v37c28 7 40 20 40 52h-44v95h103v-83c0 -61 -35 -97 -99 -101z" />
    <glyph glyph-name="quoteleft" unicode="&#x2018;" horiz-adv-x="258" 
d="M177 700v-37c-28 -7 -40 -20 -40 -52h44v-95h-103v83c0 61 35 97 99 101z" />
    <glyph glyph-name="quoteright" unicode="&#x2019;" horiz-adv-x="258" 
d="M81 516v37c28 7 40 20 40 52h-44v95h103v-83c0 -61 -35 -97 -99 -101z" />
    <glyph glyph-name="quotesinglbase" unicode="&#x201a;" horiz-adv-x="298" 
d="M101 -89v37c28 7 40 20 40 52h-44v95h103v-83c0 -61 -35 -97 -99 -101z" />
    <glyph glyph-name="guillemotleft.case" horiz-adv-x="462" 
d="M333 147l-109 185l109 185h61l-111 -185l111 -185h-61zM186 147l-109 185l109 185h61l-111 -185l111 -185h-61z" />
    <glyph glyph-name="guillemotright.case" horiz-adv-x="462" 
d="M129 147h-61l111 185l-111 185h61l109 -185zM276 147h-61l111 185l-111 185h61l109 -185z" />
    <glyph glyph-name="guilsinglleft.case" horiz-adv-x="315" 
d="M186 147l-109 185l109 185h61l-111 -185l111 -185h-61z" />
    <glyph glyph-name="guilsinglright.case" horiz-adv-x="315" 
d="M129 147h-61l111 185l-111 185h61l109 -185z" />
    <glyph glyph-name="uni2003" unicode="&#x2003;" horiz-adv-x="1000" 
 />
    <glyph glyph-name="uni2002" unicode="&#x2002;" horiz-adv-x="750" 
 />
    <glyph glyph-name="uni2007" unicode="&#x2007;" 
 />
    <glyph glyph-name="uni2005" unicode="&#x2005;" horiz-adv-x="250" 
 />
    <glyph glyph-name="uni200A" unicode="&#x200a;" horiz-adv-x="75" 
 />
    <glyph glyph-name="uni2008" unicode="&#x2008;" horiz-adv-x="296" 
 />
    <glyph glyph-name="uni00A0" unicode="&#xa0;" horiz-adv-x="274" 
 />
    <glyph glyph-name="uni2009" unicode="&#x2009;" horiz-adv-x="150" 
 />
    <glyph glyph-name="uni2004" unicode="&#x2004;" horiz-adv-x="350" 
 />
    <glyph glyph-name="uni200B" unicode="&#x200b;" horiz-adv-x="0" 
 />
    <glyph glyph-name="uniFEFF" unicode="&#xfeff;" horiz-adv-x="0" 
 />
    <glyph glyph-name="uni0E3F" unicode="&#xe3f;" horiz-adv-x="643" 
d="M586 203c0 -133 -82 -203 -242 -203h-1v-110h-39v110h-203v700h203v101h39v-101h12c127 0 205 -67 205 -176c0 -73 -38 -129 -99 -149v-2c77 -19 125 -82 125 -170zM162 642v-247h142v247h-142zM345 642h-2v-247c103 1 156 43 156 126c0 80 -53 121 -154 121zM162 58h142
v283h-142v-283zM525 203c0 95 -57 138 -182 138v-283c124 1 182 48 182 145z" />
    <glyph glyph-name="cent" unicode="&#xa2;" horiz-adv-x="626" 
d="M515 186l56 -11c-21 -109 -109 -182 -226 -189v-96h-39v96c-144 8 -245 122 -245 279s101 271 245 279v87h39v-87c117 -7 205 -80 226 -189l-56 -11c-17 87 -81 139 -170 146v-450c89 7 153 59 170 146zM306 40v450c-112 -8 -188 -99 -188 -225s76 -217 188 -225z" />
    <glyph glyph-name="currency" unicode="&#xa4;" horiz-adv-x="601" 
d="M551 109l-31 -31l-66 65c-40 -36 -94 -57 -154 -57c-59 0 -110 19 -154 56l-64 -64l-31 31l65 66c-33 43 -50 94 -50 155c0 60 16 112 49 155l-64 65l30 30l64 -63c40 37 95 58 155 58s115 -22 156 -59l64 64l30 -30l-65 -66c32 -41 49 -95 49 -154s-17 -111 -50 -155z
M471 329c0 113 -69 191 -170 191c-102 0 -172 -78 -172 -191c0 -56 16 -101 47 -136c32 -34 74 -51 125 -51s92 17 123 52s47 80 47 135z" />
    <glyph glyph-name="dollar" unicode="$" horiz-adv-x="648" 
d="M601 172c0 -111 -101 -187 -256 -187h-1v-95h-39v97c-151 12 -247 96 -258 241l61 9c13 -117 78 -182 197 -193v298c-50 14 -91 28 -123 41c-63 28 -110 74 -110 149c0 106 101 183 233 183v86h39v-88c128 -12 216 -90 233 -198l-61 -12c-19 85 -77 141 -172 153v-267
c55 -15 99 -31 133 -46c69 -29 124 -83 124 -171zM305 400v258c-101 -1 -173 -50 -173 -125c0 -69 60 -101 173 -133zM541 171c-4 93 -76 125 -197 160v-289h2c121 0 195 50 195 129z" />
    <glyph glyph-name="Euro" unicode="&#x20ac;" horiz-adv-x="784" 
d="M676 249l62 -8c-21 -160 -132 -256 -297 -256c-81 0 -150 23 -205 70s-91 112 -108 194h-103v54h95c-1 20 -2 36 -2 47l1 40h-94v54h102c16 83 52 149 108 198s125 73 207 73c157 0 268 -92 293 -240l-59 -10c-24 124 -108 193 -235 193c-131 0 -223 -81 -252 -214h315
v-54h-323c-1 -17 -2 -31 -2 -40c0 -11 1 -27 2 -47h250v-54h-241c31 -129 123 -207 251 -207c132 0 215 74 235 207z" />
    <glyph glyph-name="florin" unicode="&#x192;" horiz-adv-x="411" 
d="M237 590l-11 -60h132v-54h-141l-82 -463l-13 -73c-12 -69 -54 -103 -126 -103h-53v55h53c44 0 62 16 70 60l11 62l82 462h-120v54h129l13 73c12 68 54 102 126 102h71v-54h-71c-43 0 -62 -17 -70 -61z" />
    <glyph glyph-name="lira" unicode="&#x20a4;" horiz-adv-x="541" 
d="M446 365h61c0 -218 -118 -365 -294 -365h-62v354l-89 -33l-18 48l107 39v92l-89 -33l-18 48l107 39v146h62v-123l165 60l18 -48l-183 -67v-91l165 61l18 -49l-183 -67v-318c141 0 233 120 233 307z" />
    <glyph glyph-name="uni20BD" unicode="&#x20bd;" horiz-adv-x="697" 
d="M209 277v-96h208v-54h-208v-127h-62v127h-103v54h103v96h-103v54h103v369h257c145 0 232 -80 232 -212c0 -133 -84 -211 -232 -211h-195zM209 642v-307h192c116 0 174 51 174 153c0 101 -59 154 -174 154h-192z" />
    <glyph glyph-name="uni20A8" unicode="&#x20a8;" horiz-adv-x="594" 
d="M551 648h-137v-2c45 -26 70 -66 75 -121h62v-54h-62c-9 -96 -75 -157 -180 -172v-2l158 -297h-71l-154 295h-171v58h186c101 0 159 41 170 118h-356v54h356c-11 76 -67 117 -170 117h-186v58h480v-52z" />
    <glyph glyph-name="sterling" unicode="&#xa3;" horiz-adv-x="597" 
d="M236 60v-2h305v-58h-467v58h47c72 0 121 58 121 134c0 43 -16 80 -47 124h-121v54h85c-43 60 -67 106 -67 163c0 111 88 182 225 182c141 0 230 -76 241 -201l-61 -6c-10 99 -70 149 -180 149c-100 0 -162 -48 -162 -124c0 -55 24 -94 73 -163h220v-54h-187
c24 -43 38 -80 38 -124c0 -53 -24 -104 -63 -132z" />
    <glyph glyph-name="uni20A9" unicode="&#x20a9;" horiz-adv-x="900" 
d="M880 441h-84l-19 -98h103v-50h-113l-57 -293h-66l-93 293h-201l-93 -293h-67l-57 293h-113v50h104l-19 98h-85v49h76l-41 210h57l40 -210h205l67 210h53l66 -210h205l40 210h58l-41 -210h75v-49zM450 607l-37 -117h76l-37 117h-2zM161 441l19 -98h131l31 98h-181z
M366 343h170l-31 98h-108zM720 343l19 98h-180l31 -98h130zM230 89l65 204h-106l39 -204h2zM672 89l39 204h-105l64 -204h2z" />
    <glyph glyph-name="yen" unicode="&#xa5;" horiz-adv-x="579" 
d="M569 700l-223 -370h187v-54h-212v-87h212v-54h-212v-135h-62v135h-218v54h218v87h-218v54h193l-224 370h71l208 -350h2l207 350h71z" />
    <glyph glyph-name="uni0E3F.tnum" 
d="M586 203c0 -133 -82 -203 -242 -203h-11v-110h-38v110h-201v700h201v101h38v-101h22c128 0 205 -67 205 -176c0 -73 -38 -129 -99 -149v-2c77 -19 125 -82 125 -170zM155 642v-247h140v247h-140zM345 642h-12v-247h9c103 0 157 43 157 126c0 80 -53 121 -154 121zM155 58
h140v283h-140v-283zM525 203c0 95 -56 138 -183 138h-9v-283h5c127 0 187 46 187 145z" />
    <glyph glyph-name="cent.tnum" 
d="M524 186l56 -11c-21 -109 -109 -182 -226 -189v-96h-39v96c-144 8 -245 122 -245 279s101 271 245 279v87h39v-87c117 -7 205 -80 226 -189l-56 -11c-17 87 -81 139 -170 146v-450c89 7 153 59 170 146zM315 40v450c-112 -8 -188 -99 -188 -225s76 -217 188 -225z" />
    <glyph glyph-name="currency.tnum" 
d="M575 109l-31 -31l-66 65c-40 -36 -94 -57 -154 -57c-59 0 -110 19 -154 56l-64 -64l-31 31l65 66c-33 43 -50 94 -50 155c0 59 16 111 49 155l-65 65l31 30l64 -63c40 37 95 58 155 58s115 -22 155 -59l64 64l31 -30l-65 -66c32 -41 49 -95 49 -154s-17 -111 -50 -155z
M495 329c0 113 -70 191 -170 191c-102 0 -172 -78 -172 -191c0 -56 16 -101 47 -136c32 -34 74 -51 125 -51s92 17 123 52s47 80 47 135z" />
    <glyph glyph-name="dollar.tnum" 
d="M602 172c0 -111 -101 -187 -256 -187h-1v-95h-39v97c-151 12 -247 96 -258 241l61 9c13 -117 78 -182 197 -193v298c-50 14 -91 28 -123 41c-63 28 -110 74 -110 149c0 106 101 183 233 183v86h39v-88c128 -12 216 -90 233 -198l-61 -12c-19 85 -77 141 -172 153v-267
c55 -15 99 -31 133 -46c69 -29 124 -83 124 -171zM306 400v258c-101 -1 -173 -50 -173 -125c0 -69 60 -101 173 -133zM542 171c-4 93 -76 125 -197 160v-289h2c121 0 195 50 195 129z" />
    <glyph glyph-name="Euro.tnum" 
d="M552 249l61 -8c-16 -155 -114 -256 -245 -256c-136 0 -237 100 -266 264h-83v54h77c-1 20 -2 36 -2 47c0 18 0 31 1 40h-76v54h82c14 83 45 149 92 198c48 49 106 73 175 73c63 0 117 -22 161 -65s71 -102 82 -175l-61 -11c-20 123 -86 193 -182 193
c-105 0 -183 -81 -208 -213h261v-54h-268c-1 -9 -1 -22 -1 -40c0 -11 1 -27 2 -47h194v-54h-187c27 -129 103 -206 207 -206c99 0 167 74 184 206z" />
    <glyph glyph-name="florin.tnum" 
d="M402 590l-11 -60h131v-54h-140l-82 -463l-13 -73c-12 -69 -54 -103 -127 -103h-53v55h54c44 0 62 16 70 60l11 62l82 462h-120v54h129l12 73c12 68 54 102 127 102h70v-54h-70c-43 0 -63 -17 -70 -61z" />
    <glyph glyph-name="lira.tnum" 
d="M495 365h61c0 -218 -117 -365 -294 -365h-62v354l-89 -33l-18 48l107 39v92l-89 -33l-18 48l107 39v146h62v-123l165 60l18 -48l-183 -67v-91l165 61l18 -49l-183 -67v-318c141 0 233 120 233 307z" />
    <glyph glyph-name="uni20BD.tnum" 
d="M190 277v-96h184v-54h-184v-127h-62v127h-84v54h84v96h-84v54h84v369h236c145 0 232 -80 232 -212c0 -133 -84 -211 -232 -211h-174zM190 642v-307h171c116 0 174 51 174 153c0 101 -59 154 -174 154h-171z" />
    <glyph glyph-name="uni20A8.tnum" 
d="M565 648h-137v-2c44 -25 70 -68 75 -121h62v-54h-62c-9 -96 -75 -157 -180 -172v-2l158 -297h-71l-154 295h-172v58h187c100 0 159 41 170 118h-357v54h357c-11 76 -67 117 -170 117h-187v58h481v-52z" />
    <glyph glyph-name="sterling.tnum" 
d="M245 60v-2h306v-58h-468v58h47c72 0 121 58 121 134c0 43 -16 80 -47 124h-121v54h85c-43 60 -67 106 -67 163c0 111 88 182 225 182c141 0 230 -76 241 -201l-61 -6c-10 99 -70 149 -180 149c-100 0 -162 -48 -162 -124c0 -55 24 -94 73 -163h220v-54h-187
c25 -43 38 -85 38 -124c0 -53 -24 -104 -63 -132z" />
    <glyph glyph-name="uni20A9.tnum" 
d="M643 462h-56l-11 -75h67v-50h-75l-51 -337h-66l-97 337h-60l-96 -337h-66l-51 337h-74v50h67l-11 75h-56v49h48l-28 189h58l27 -189h182l5 19h51l5 -19h182l27 189h59l-29 -189h49v-49zM118 462l11 -75h129l22 75h-162zM520 387l11 75h-162l22 -75h129zM308 387h32
l-15 51h-2zM173 89l71 248h-108l35 -248h2zM478 89l35 248h-108l71 -248h2z" />
    <glyph glyph-name="yen.tnum" 
d="M623 700l-237 -370h186v-54h-216v-87h216v-54h-216v-135h-62v135h-215v54h215v87h-215v54h185l-237 370h70l227 -358h2l227 358h70z" />
    <glyph glyph-name="uni207B" unicode="&#x207b;" horiz-adv-x="406" 
d="M67 188v45h272v-45h-272z" />
    <glyph glyph-name="plus" unicode="+" horiz-adv-x="591" 
d="M523 394v-51h-200v-213h-54v213h-202v51h202v207h54v-207h200z" />
    <glyph glyph-name="minus" unicode="&#x2212;" horiz-adv-x="541" 
d="M67 343v51h406v-51h-406z" />
    <glyph glyph-name="multiply" unicode="&#xd7;" horiz-adv-x="531" 
d="M105 152l-38 37l163 161l-163 161l38 37l160 -163l161 163l37 -37l-162 -161l162 -161l-37 -37l-161 162z" />
    <glyph glyph-name="divide" unicode="&#xf7;" horiz-adv-x="541" 
d="M211 560c0 35 26 61 59 61c35 0 60 -26 60 -61c0 -33 -25 -60 -60 -60c-33 0 -59 27 -59 60zM67 343v51h406v-51h-406zM211 171c0 35 26 61 59 61c35 0 60 -26 60 -61c0 -33 -25 -60 -60 -60c-33 0 -59 27 -59 60z" />
    <glyph glyph-name="equal" unicode="=" horiz-adv-x="558" 
d="M67 420v54h423v-54h-423zM67 236v54h423v-54h-423z" />
    <glyph glyph-name="notequal" unicode="&#x2260;" horiz-adv-x="558" 
d="M490 420h-150l-73 -130h223v-54h-253l-62 -111l-36 21l50 90h-122v54h152l73 130h-225v54h255l61 110l37 -20l-50 -90h120v-54z" />
    <glyph glyph-name="greater" unicode="&#x3e;" horiz-adv-x="552" 
d="M98 92l-31 47l355 212l-355 213l31 47l387 -233v-54z" />
    <glyph glyph-name="less" unicode="&#x3c;" horiz-adv-x="552" 
d="M454 92l-387 232v54l387 233l31 -47l-355 -213l355 -212z" />
    <glyph glyph-name="greaterequal" unicode="&#x2265;" horiz-adv-x="561" 
d="M106 130l-29 45l357 215l-357 214l29 46l387 -233v-54zM67 0v55h426v-55h-426z" />
    <glyph glyph-name="lessequal" unicode="&#x2264;" horiz-adv-x="561" 
d="M455 130l-387 233v54l387 233l29 -46l-357 -214l357 -215zM494 0h-426v55h426v-55z" />
    <glyph glyph-name="plusminus" unicode="&#xb1;" horiz-adv-x="591" 
d="M269 192v200h-202v51h202v195h54v-195h200v-51h-200v-200h-54zM68 131h456v-51h-456v51z" />
    <glyph glyph-name="approxequal" unicode="&#x2248;" horiz-adv-x="607" 
d="M118 370l-51 14c15 77 63 124 128 124c44 0 75 -16 123 -47c37 -25 62 -38 91 -38c40 0 64 26 80 86l50 -16c-16 -77 -63 -123 -128 -123c-44 0 -75 16 -123 47c-39 25 -63 37 -91 37c-40 0 -64 -24 -79 -84zM118 205l-51 14c15 77 63 124 128 124c44 0 75 -16 123 -47
c37 -25 62 -38 91 -38c40 0 64 26 80 86l50 -16c-16 -77 -63 -123 -128 -123c-44 0 -75 16 -123 47c-39 25 -63 37 -91 37c-40 0 -64 -24 -79 -84z" />
    <glyph glyph-name="asciitilde" unicode="~" horiz-adv-x="630" 
d="M121 283l-54 15c16 81 66 130 135 130c45 0 76 -17 128 -49c43 -27 67 -40 96 -40c43 0 68 27 84 90l53 -16c-17 -81 -66 -130 -135 -130c-45 0 -76 17 -128 49c-43 27 -67 40 -96 40c-43 0 -68 -26 -83 -89z" />
    <glyph glyph-name="logicalnot" unicode="&#xac;" horiz-adv-x="613" 
d="M484 182v186h-417v58h479v-244h-62z" />
    <glyph glyph-name="infinity" unicode="&#x221e;" horiz-adv-x="734" 
d="M67 303c0 111 67 189 159 189c60 0 113 -42 141 -111c28 69 81 111 142 111c93 0 158 -78 158 -189c0 -109 -65 -188 -158 -188c-61 0 -114 42 -142 111c-28 -69 -81 -111 -141 -111c-92 0 -159 79 -159 188zM348 303c-24 89 -66 138 -121 138c-64 0 -107 -55 -107 -138
c0 -81 43 -137 107 -137c55 0 97 48 121 137zM615 303c0 81 -44 138 -107 138c-55 0 -97 -49 -121 -138c24 -89 66 -137 121 -137c63 0 107 56 107 137z" />
    <glyph glyph-name="emptyset" unicode="&#x2205;" horiz-adv-x="848" 
d="M790 350c4 -203 -163 -369 -366 -365c-83 0 -156 23 -220 69l-88 -103l-39 32l88 104c-68 68 -108 160 -108 263c-3 203 163 369 367 365c81 0 154 -23 218 -68l90 106l39 -34l-90 -105c69 -67 109 -160 109 -264zM203 131l402 472c-52 37 -112 56 -181 56
c-173 3 -309 -134 -306 -309c0 -87 30 -163 85 -219zM730 350c0 87 -31 164 -86 220l-403 -472c53 -38 114 -57 183 -57c171 -3 309 134 306 309z" />
    <glyph glyph-name="integral" unicode="&#x222b;" horiz-adv-x="484" 
d="M67 -240v58c112 0 144 32 144 145v582c0 147 54 200 206 200v-58c-114 0 -144 -32 -144 -145v-583c0 -147 -54 -199 -206 -199z" />
    <glyph glyph-name="product" unicode="&#x220f;" horiz-adv-x="758" 
d="M162 -141v783h-127v58h688v-58h-127v-783h-61v783h-312v-783h-61z" />
    <glyph glyph-name="summation" unicode="&#x2211;" horiz-adv-x="606" 
d="M77 -100v55l269 345l-269 345v55h477v-58h-399l269 -342l-269 -342h399v-58h-477z" />
    <glyph glyph-name="radical" unicode="&#x221a;" horiz-adv-x="655" 
d="M572 700h69l-284 -700h-57l-142 351h-131v58h172l128 -324h2z" />
    <glyph glyph-name="partialdiff" unicode="&#x2202;" horiz-adv-x="581" 
d="M534 407c0 -281 -85 -422 -256 -422c-143 0 -227 92 -227 247c0 165 85 268 222 268c69 0 134 -17 197 -50c-7 187 -57 279 -156 279c-35 0 -69 -18 -104 -54l-40 41c42 47 90 71 144 71c144 0 220 -131 220 -380zM471 388c-68 37 -133 56 -194 56
c-104 0 -165 -79 -165 -212c0 -117 63 -189 166 -189c125 0 190 115 193 345z" />
    <glyph glyph-name="percent" unicode="%" horiz-adv-x="995" 
d="M284 -67l-48 26l488 813l47 -28zM67 490c0 135 66 219 171 219s171 -84 171 -219s-66 -219 -171 -219s-171 84 -171 219zM353 490c0 107 -42 167 -115 167s-114 -60 -114 -167s41 -167 114 -167s115 60 115 167zM586 210c0 135 65 219 170 219c107 0 172 -84 172 -219
s-65 -219 -172 -219c-105 0 -170 84 -170 219zM871 210c0 107 -42 167 -115 167c-72 0 -114 -62 -114 -167s42 -167 114 -167c73 0 115 60 115 167z" />
    <glyph glyph-name="perthousand" unicode="&#x2030;" horiz-adv-x="1399" 
d="M284 -67l-48 26l488 813l47 -28zM67 490c0 135 66 219 171 219s171 -84 171 -219s-66 -219 -171 -219s-171 84 -171 219zM353 490c0 107 -42 167 -115 167s-114 -60 -114 -167s41 -167 114 -167s115 60 115 167zM586 210c0 135 65 219 170 219c107 0 172 -84 172 -219
s-65 -219 -172 -219c-105 0 -170 84 -170 219zM990 210c0 135 65 219 170 219s171 -84 171 -219s-66 -219 -171 -219s-170 84 -170 219zM871 210c0 107 -42 167 -115 167c-72 0 -114 -62 -114 -167s42 -167 114 -167c73 0 115 60 115 167zM1275 210c0 107 -42 167 -115 167
c-72 0 -114 -62 -114 -167s42 -167 114 -167c73 0 115 60 115 167z" />
    <glyph glyph-name="uni207A" unicode="&#x207a;" horiz-adv-x="436" 
d="M369 233v-45h-126v-128h-50v128h-126v45h126v126h50v-126h126z" />
    <glyph glyph-name="plus.tnum" 
d="M553 394v-51h-200v-213h-54v213h-202v51h202v207h54v-207h200z" />
    <glyph glyph-name="minus.tnum" 
d="M122 343v51h406v-51h-406z" />
    <glyph glyph-name="multiply.tnum" 
d="M165 152l-38 37l163 161l-163 161l38 37l160 -163l161 163l37 -37l-162 -161l162 -161l-37 -37l-161 162z" />
    <glyph glyph-name="divide.tnum" 
d="M266 560c0 35 26 61 59 61c35 0 60 -26 60 -61c0 -33 -25 -60 -60 -60c-33 0 -59 27 -59 60zM122 343v51h406v-51h-406zM266 171c0 35 26 61 59 61c35 0 60 -26 60 -61c0 -33 -25 -60 -60 -60c-33 0 -59 27 -59 60z" />
    <glyph glyph-name="equal.tnum" 
d="M113 420v54h423v-54h-423zM113 236v54h423v-54h-423z" />
    <glyph glyph-name="notequal.tnum" 
d="M536 420h-150l-73 -130h223v-54h-253l-62 -111l-36 21l50 90h-122v54h152l73 130h-225v54h255l61 110l37 -20l-50 -90h120v-54z" />
    <glyph glyph-name="greater.tnum" 
d="M147 92l-31 47l355 212l-355 213l31 47l387 -233v-54z" />
    <glyph glyph-name="less.tnum" 
d="M503 92l-387 232v54l387 233l31 -47l-355 -213l355 -212z" />
    <glyph glyph-name="greaterequal.tnum" 
d="M150 130l-29 45l357 215l-357 214l29 46l387 -233v-54zM111 0v55h426v-55h-426z" />
    <glyph glyph-name="lessequal.tnum" 
d="M499 130l-387 233v54l387 233l29 -46l-357 -214l357 -215zM538 0h-426v55h426v-55z" />
    <glyph glyph-name="plusminus.tnum" 
d="M298 192v200h-202v51h202v195h54v-195h200v-51h-200v-200h-54zM97 131h456v-51h-456v51z" />
    <glyph glyph-name="approxequal.tnum" 
d="M139 370l-51 14c15 77 63 124 128 124c44 0 75 -16 123 -47c37 -25 62 -38 91 -38c40 0 64 26 80 86l50 -16c-16 -77 -63 -123 -128 -123c-44 0 -75 16 -123 47c-39 25 -63 37 -91 37c-40 0 -64 -24 -79 -84zM139 205l-51 14c15 77 63 124 128 124c44 0 75 -16 123 -47
c37 -25 62 -38 91 -38c40 0 64 26 80 86l50 -16c-16 -77 -63 -123 -128 -123c-44 0 -75 16 -123 47c-39 25 -63 37 -91 37c-40 0 -64 -24 -79 -84z" />
    <glyph glyph-name="percent.tnum" 
d="M34 660c0 136 65 219 170 219s171 -84 171 -219s-66 -219 -171 -219s-170 84 -170 219zM319 660c0 107 -42 167 -115 167c-72 0 -114 -62 -114 -167s42 -167 114 -167c73 0 115 60 115 167zM146 214l-28 49l387 224l28 -49zM275 40c0 135 65 219 170 219
c107 0 171 -83 171 -219s-64 -219 -171 -219c-105 0 -170 84 -170 219zM561 40c0 107 -43 167 -116 167s-114 -60 -114 -167s41 -167 114 -167s116 60 116 167z" />
    <glyph glyph-name="perthousand.tnum" 
d="M31 687c0 135 66 219 171 219s171 -84 171 -219s-66 -219 -171 -219s-171 84 -171 219zM317 687c0 107 -42 167 -115 167s-114 -60 -114 -167s41 -167 114 -167s115 60 115 167zM74 271l-18 52l442 160l19 -50zM15 3c0 136 65 219 170 219c51 0 90 -21 117 -62
c16 104 75 163 163 163c105 0 170 -84 170 -219s-65 -220 -170 -220c-51 0 -90 21 -117 62c-16 -104 -75 -162 -163 -162c-105 0 -170 84 -170 219zM579 104c0 107 -41 167 -116 167c-73 0 -114 -60 -114 -167s41 -168 114 -168c75 0 116 60 116 168zM301 3
c0 107 -42 168 -115 168s-115 -61 -115 -168s42 -167 115 -167s115 60 115 167z" />
    <glyph glyph-name="arrowup" unicode="&#x2191;" horiz-adv-x="584" 
d="M526 409l-41 -41l-164 175v-495h-58v495l-164 -175l-42 41l235 243z" />
    <glyph glyph-name="uni2197" unicode="&#x2197;" horiz-adv-x="561" 
d="M57 167l351 351l-239 -7l-1 55l336 7l-7 -337l-55 1l7 241l-353 -352z" />
    <glyph glyph-name="arrowright" unicode="&#x2192;" horiz-adv-x="718" 
d="M418 580l243 -234l-243 -234l-39 41l176 166h-498v55h497l-175 165z" />
    <glyph glyph-name="uni2198" unicode="&#x2198;" horiz-adv-x="561" 
d="M57 531l39 41l353 -352l-7 241l55 1l7 -337l-336 7l1 55l239 -7z" />
    <glyph glyph-name="arrowdown" unicode="&#x2193;" horiz-adv-x="584" 
d="M485 333l41 -41l-234 -243l-235 243l42 41l164 -175v495h58v-495z" />
    <glyph glyph-name="uni2199" unicode="&#x2199;" horiz-adv-x="561" 
d="M504 534l-351 -351l239 7l1 -55l-336 -7l7 337l55 -1l-7 -241l353 352z" />
    <glyph glyph-name="arrowleft" unicode="&#x2190;" horiz-adv-x="718" 
d="M661 374v-55h-498l176 -166l-39 -41l-243 234l243 234l39 -41l-175 -165h497z" />
    <glyph glyph-name="uni2196" unicode="&#x2196;" horiz-adv-x="561" 
d="M504 167l-39 -41l-353 352l7 -241l-55 -1l-7 337l336 -7l-1 -55l-239 7z" />
    <glyph glyph-name="arrowboth" unicode="&#x2194;" horiz-adv-x="826" 
d="M525 580l244 -234l-244 -234l-38 40l180 169h-508l180 -169l-38 -40l-244 234l244 234l38 -40l-179 -168h506l-179 168z" />
    <glyph glyph-name="arrowupdn" unicode="&#x2195;" horiz-adv-x="584" 
d="M318 109l167 178l41 -39l-234 -244l-235 244l41 39l167 -178v481l-167 -177l-41 39l235 243l234 -243l-41 -39l-167 177v-481z" />
    <glyph glyph-name="uni21B3" unicode="&#x21b3;" horiz-adv-x="723" 
d="M423 580l243 -234l-243 -234l-39 41l177 166h-454v381h58v-326h395l-176 165z" />
    <glyph glyph-name="lozenge" unicode="&#x25ca;" horiz-adv-x="647" 
d="M283 0l-216 350l216 350h81l216 -350l-216 -350h-81zM324 41l192 309l-192 309l-193 -309z" />
    <glyph glyph-name="uniF8FF" unicode="&#xf8ff;" horiz-adv-x="686" 
d="M50 0v423c-4 154 139 295 292 292c155 3 298 -138 294 -292v-423h-28l-65 65l-68 -65l-63 65l-71 -65l-69 65l-63 -65l-67 65l-66 -65h-26zM287 377c0 40 -31 72 -71 72c-39 0 -71 -32 -71 -72c0 -39 32 -70 71 -70s71 31 71 70zM542 377c0 40 -32 72 -72 72
c-39 0 -70 -32 -70 -72c0 -37 33 -70 70 -70c39 0 72 33 72 70z" />
    <glyph glyph-name="at" unicode="@" horiz-adv-x="809" 
d="M67 292c-3 205 146 367 339 364c205 0 336 -141 336 -346c0 -147 -47 -221 -141 -221c-47 0 -78 19 -91 58h-2c-21 -37 -70 -61 -122 -61c-73 0 -122 42 -122 110c0 59 31 93 110 117c92 29 113 42 113 75c0 35 -29 57 -72 57c-53 0 -86 -29 -95 -85l-52 9
c12 79 67 126 147 126c77 0 129 -49 129 -126v-148c0 -64 16 -87 60 -87c61 0 89 56 89 176c0 183 -111 301 -287 301c-163 2 -293 -136 -290 -319c0 -205 107 -321 290 -321c73 0 137 18 193 54l21 -42c-65 -40 -133 -57 -214 -57c-210 0 -339 137 -339 366zM489 220v103
h-1c-7 -17 -36 -33 -99 -53c-52 -17 -70 -36 -70 -71c0 -41 27 -64 71 -64c59 0 99 34 99 85z" />
    <glyph glyph-name="ampersand" unicode="&#x26;" horiz-adv-x="675" 
d="M643 91l-36 -42l-73 66c-32 -81 -116 -130 -232 -130c-145 0 -235 76 -235 200c0 85 53 161 150 214c-64 59 -90 104 -90 160c0 88 74 156 175 156s170 -59 182 -155l-57 -10c-12 74 -53 111 -124 111s-118 -41 -118 -104c0 -41 17 -74 68 -119l239 -213v166h57v-216z
M487 156l-231 207c-91 -49 -131 -105 -131 -178c0 -89 69 -146 177 -146c100 0 166 42 185 117z" />
    <glyph glyph-name="paragraph" unicode="&#xb6;" horiz-adv-x="542" 
d="M180 -136v540c-78 2 -143 63 -143 148c0 92 63 148 148 148h263v-836h-61v778h-145v-778h-62z" />
    <glyph glyph-name="section" unicode="&#xa7;" horiz-adv-x="635" 
d="M512 -17c0 -95 -77 -164 -186 -164c-115 0 -194 72 -205 177l62 7c11 -81 62 -127 143 -127c73 0 124 44 124 107c0 49 -33 85 -105 114l-118 48c-100 41 -140 84 -140 152c0 48 31 94 92 138c-37 31 -56 70 -56 116c0 95 77 164 186 164c115 0 193 -72 204 -177l-61 -7
c-11 81 -62 126 -143 126c-75 0 -125 -43 -125 -106c0 -51 33 -85 105 -114l118 -49c100 -40 140 -83 140 -151c0 -48 -30 -94 -91 -138c37 -32 56 -71 56 -116zM252 197l122 -50c16 -7 28 -12 35 -16c49 31 77 69 77 106c0 41 -28 68 -103 99l-123 51c-16 7 -27 12 -34 16
c-49 -31 -77 -69 -77 -106c0 -41 28 -69 103 -100z" />
    <glyph glyph-name="copyright" unicode="&#xa9;" horiz-adv-x="725" 
d="M57 324c-3 173 137 309 305 306c169 3 308 -133 305 -306c3 -175 -136 -311 -305 -308c-168 -3 -308 133 -305 308zM623 324c0 155 -112 266 -261 266c-148 0 -261 -111 -261 -266c0 -157 113 -268 261 -268c149 0 261 111 261 268zM214 323c0 111 62 184 154 184
c73 0 129 -48 140 -124l-48 -9c-9 56 -44 87 -92 87c-63 0 -103 -54 -103 -138s40 -138 103 -138c48 0 83 31 92 87l48 -9c-11 -76 -67 -124 -140 -124c-92 0 -154 73 -154 184z" />
    <glyph glyph-name="registered" unicode="&#xae;" horiz-adv-x="725" 
d="M667 324c3 -175 -136 -311 -305 -308c-168 -3 -308 133 -305 308c-3 173 137 309 305 306c169 3 308 -133 305 -306zM623 324c0 155 -112 266 -261 266c-148 0 -261 -111 -261 -266c0 -157 113 -268 261 -268c149 0 261 111 261 268zM427 290l76 -143h-56l-72 139h-71
v-139h-50v352h139c73 0 117 -40 117 -105c0 -55 -31 -93 -83 -104zM459 394c0 40 -25 61 -72 61h-81v-126h81c45 0 72 24 72 65z" />
    <glyph glyph-name="uni2117" unicode="&#x2117;" horiz-adv-x="725" 
d="M57 324c-3 173 137 309 305 306c169 3 308 -133 305 -306c3 -175 -136 -311 -305 -308c-168 -3 -308 133 -305 308zM623 324c0 155 -112 266 -261 266c-148 0 -261 -111 -261 -266c0 -157 113 -268 261 -268c149 0 261 111 261 268zM269 145v353h129
c76 0 120 -41 120 -110s-45 -109 -120 -109h-78v-134h-51zM320 323h74c45 0 72 25 72 65c0 43 -25 66 -72 66h-74v-131z" />
    <glyph glyph-name="trademark" unicode="&#x2122;" horiz-adv-x="765" 
d="M156 361v296h-104v43h253v-43h-104v-296h-45zM361 361v339h61l112 -272h1l112 272h61v-339h-45v270h-1l-111 -270h-34l-111 270h-1v-270h-44z" />
    <glyph glyph-name="degree" unicode="&#xb0;" horiz-adv-x="430" 
d="M47 541c0 96 71 164 168 164s168 -68 168 -164s-71 -164 -168 -164s-168 68 -168 164zM329 541c0 68 -46 113 -114 113s-114 -45 -114 -113s46 -113 114 -113s114 45 114 113z" />
    <glyph glyph-name="bar" unicode="|" horiz-adv-x="260" 
d="M107 -300v1075h46v-1075h-46z" />
    <glyph glyph-name="brokenbar" unicode="&#xa6;" horiz-adv-x="260" 
d="M107 350v425h46v-425h-46zM107 -300v425h46v-425h-46z" />
    <glyph glyph-name="dagger" unicode="&#x2020;" horiz-adv-x="618" 
d="M278 -193v665h-221v58h221v235h61v-235h221v-58h-221v-665h-61z" />
    <glyph glyph-name="daggerdbl" unicode="&#x2021;" horiz-adv-x="618" 
d="M278 -193v226h-221v58h221v381h-221v58h221v229h61v-229h221v-58h-221v-381h221v-58h-221v-226h-61z" />
    <glyph glyph-name="uni2116" unicode="&#x2116;" horiz-adv-x="1063" 
d="M672 490c0 135 64 219 169 219s170 -84 170 -219s-65 -219 -170 -219c-104 0 -169 84 -169 219zM87 0v700h74l348 -605h2v605h62v-700h-74l-348 605h-2v-605h-62zM955 490c0 107 -41 166 -114 166c-72 0 -113 -61 -113 -166s41 -166 113 -166c73 0 114 59 114 166z
M672 157v52h339v-52h-339z" />
    <glyph glyph-name="asciicircum" unicode="^" horiz-adv-x="549" 
d="M472 328h-63l-134 298l-134 -298h-64l174 372h48z" />
    <glyph glyph-name="at.case" horiz-adv-x="809" 
d="M67 351c-3 205 146 367 339 364c205 0 336 -141 336 -346c0 -147 -47 -221 -141 -221c-47 0 -78 19 -91 58h-2c-21 -37 -70 -61 -122 -61c-73 0 -122 42 -122 110c0 59 31 93 110 117c92 29 113 42 113 75c0 35 -29 57 -72 57c-53 0 -86 -29 -95 -85l-52 9
c12 79 67 126 147 126c77 0 129 -49 129 -126v-148c0 -64 16 -87 60 -87c61 0 89 56 89 176c0 183 -111 301 -287 301c-163 2 -293 -136 -290 -319c0 -205 107 -321 290 -321c73 0 137 18 193 54l21 -42c-65 -40 -133 -57 -214 -57c-210 0 -339 137 -339 366zM489 279v103
h-1c-7 -17 -36 -33 -99 -53c-52 -17 -70 -36 -70 -71c0 -41 27 -64 71 -64c59 0 99 34 99 85z" />
    <glyph glyph-name="uni0308" unicode="&#x308;" horiz-adv-x="0" 
d="M-256 580v83h84v-83h-84zM-84 580v83h84v-83h-84z" />
    <glyph glyph-name="uni0307" unicode="&#x307;" horiz-adv-x="0" 
d="M-84 590v83h84v-83h-84z" />
    <glyph glyph-name="gravecomb" unicode="&#x300;" horiz-adv-x="0" 
d="M-55 590l-96 110h82l69 -110h-55z" />
    <glyph glyph-name="acutecomb" unicode="&#x301;" horiz-adv-x="0" 
d="M-151 590l69 110h82l-96 -110h-55z" />
    <glyph glyph-name="uni030B" unicode="&#x30b;" horiz-adv-x="0" 
d="M-287 590l69 110h82l-96 -110h-55zM-151 590l69 110h82l-97 -110h-54z" />
    <glyph glyph-name="uni0302" unicode="&#x302;" horiz-adv-x="0" 
d="M0 599l-37 -29l-71 89l-71 -89l-37 29l67 85h82z" />
    <glyph glyph-name="uni030C" unicode="&#x30c;" horiz-adv-x="0" 
d="M-37 694l37 -29l-67 -85h-82l-67 85l37 29l71 -88z" />
    <glyph glyph-name="uni0306" unicode="&#x306;" horiz-adv-x="0" 
d="M-231 691h38c7 -37 34 -59 78 -59c43 0 70 22 77 59h38c-4 -68 -47 -111 -115 -111c-69 0 -113 43 -116 111z" />
    <glyph glyph-name="uni030A" unicode="&#x30a;" horiz-adv-x="0" 
d="M-228 600c0 61 47 107 114 107s114 -46 114 -107c0 -63 -49 -108 -114 -108s-114 45 -114 108zM-44 600c0 40 -30 70 -70 70c-41 0 -70 -30 -70 -70c0 -41 29 -70 70 -70c40 0 70 29 70 70z" />
    <glyph glyph-name="tildecomb" unicode="&#x303;" horiz-adv-x="0" 
d="M-142 608c-24 12 -35 18 -50 18c-20 0 -32 -12 -37 -36h-36c4 52 32 83 76 83c23 0 41 -8 66 -23c24 -12 35 -18 50 -18c20 0 32 12 36 36h37c-4 -52 -32 -83 -76 -83c-23 0 -41 8 -66 23z" />
    <glyph glyph-name="uni0304" unicode="&#x304;" horiz-adv-x="0" 
d="M-252 590v48h252v-48h-252z" />
    <glyph glyph-name="uni0312" unicode="&#x312;" horiz-adv-x="0" 
d="M-3 747v-32c-25 -5 -36 -17 -36 -44h40v-81h-93v71c0 52 32 82 89 86z" />
    <glyph glyph-name="dotbelowcomb" unicode="&#x323;" horiz-adv-x="0" 
d="M-84 -132v83h84v-83h-84z" />
    <glyph glyph-name="uni0326" unicode="&#x326;" horiz-adv-x="0" 
d="M-84 -207v32c24 5 34 17 34 44h-38v81h88v-71c0 -52 -29 -82 -84 -86z" />
    <glyph glyph-name="uni0327" unicode="&#x327;" horiz-adv-x="0" 
d="M0 -123c0 -52 -41 -87 -97 -87c-38 0 -70 13 -97 40l28 32c21 -21 44 -32 69 -32c31 0 54 20 54 48s-21 45 -52 45c-25 0 -44 -9 -59 -28l-34 16l60 111l35 -13l-35 -60c12 6 26 9 41 9c49 0 87 -34 87 -81z" />
    <glyph glyph-name="uni0328" unicode="&#x328;" horiz-adv-x="0" 
d="M-168 -115c0 44 38 91 101 127l32 -12c-55 -31 -82 -65 -82 -103c0 -24 13 -36 38 -36c19 0 39 6 60 19l19 -46c-28 -16 -57 -24 -86 -24c-52 0 -82 27 -82 75z" />
    <glyph glyph-name="uni0335" unicode="&#x335;" horiz-adv-x="0" 
d="M-343 335v51h343v-51h-343z" />
    <glyph glyph-name="uni0336" unicode="&#x336;" horiz-adv-x="0" 
d="M-645 335v51h645v-51h-645z" />
    <glyph glyph-name="uni0337" unicode="&#x337;" horiz-adv-x="0" 
d="M-407 -4l-28 21l407 520l28 -21z" />
    <glyph glyph-name="_646" horiz-adv-x="0" 
d="M0 377l-155 -146v11l-118 -111l-25 26l143 134v-11l130 124z" />
    <glyph glyph-name="uni0338" unicode="&#x338;" horiz-adv-x="0" 
d="M-403 -22l-38 21l404 724l37 -21z" />
    <glyph glyph-name="_648" horiz-adv-x="0" 
d="M0 423l-221 -200v5l-153 -146l-26 28l198 186v-3l175 160z" />
    <glyph glyph-name="_649" horiz-adv-x="0" 
d="M-76 624v74h76v-74h-76z" />
    <glyph glyph-name="_650" horiz-adv-x="0" 
d="M-265 341v45h265v-45h-265z" />
    <glyph glyph-name="acute" unicode="&#xb4;" horiz-adv-x="286" 
d="M67 590l69 110h82l-96 -110h-55z" />
    <glyph glyph-name="breve" unicode="&#x2d8;" horiz-adv-x="359" 
d="M67 691h38c7 -37 34 -59 78 -59c43 0 70 22 77 59h38c-4 -68 -47 -111 -115 -111c-69 0 -113 43 -116 111z" />
    <glyph glyph-name="caron" unicode="&#x2c7;" horiz-adv-x="351" 
d="M246 694l37 -29l-67 -85h-82l-67 85l37 29l71 -88z" />
    <glyph glyph-name="cedilla" unicode="&#xb8;" horiz-adv-x="329" 
d="M261 -123c0 -52 -41 -87 -97 -87c-38 0 -70 13 -97 40l28 32c21 -21 44 -32 69 -32c31 0 54 20 54 48s-21 45 -52 45c-25 0 -44 -9 -59 -28l-34 16l60 111l35 -13l-35 -60c12 6 26 9 41 9c49 0 87 -34 87 -81z" />
    <glyph glyph-name="circumflex" unicode="&#x2c6;" horiz-adv-x="351" 
d="M283 599l-37 -29l-71 89l-71 -89l-37 29l67 85h82z" />
    <glyph glyph-name="dieresis" unicode="&#xa8;" horiz-adv-x="391" 
d="M67 580v83h84v-83h-84zM239 580v83h84v-83h-84z" />
    <glyph glyph-name="dotaccent" unicode="&#x2d9;" horiz-adv-x="219" 
d="M67 590v83h84v-83h-84z" />
    <glyph glyph-name="grave" unicode="`" horiz-adv-x="286" 
d="M163 590l-96 110h82l69 -110h-55z" />
    <glyph glyph-name="hungarumlaut" unicode="&#x2dd;" horiz-adv-x="421" 
d="M67 590l69 110h82l-96 -110h-55zM203 590l69 110h82l-97 -110h-54z" />
    <glyph glyph-name="macron" unicode="&#xaf;" horiz-adv-x="387" 
d="M67 590v48h252v-48h-252z" />
    <glyph glyph-name="ogonek" unicode="&#x2db;" horiz-adv-x="303" 
d="M67 -115c0 44 38 91 101 127l32 -12c-55 -31 -82 -65 -82 -103c0 -24 13 -36 38 -36c19 0 39 6 60 19l19 -46c-28 -16 -57 -24 -86 -24c-52 0 -82 27 -82 75z" />
    <glyph glyph-name="ring" unicode="&#x2da;" horiz-adv-x="362" 
d="M67 600c0 61 47 107 114 107s114 -46 114 -107c0 -63 -49 -108 -114 -108s-114 45 -114 108zM251 600c0 40 -30 70 -70 70c-41 0 -70 -30 -70 -70c0 -41 29 -70 70 -70c40 0 70 29 70 70z" />
    <glyph glyph-name="tilde" unicode="&#x2dc;" horiz-adv-x="399" 
d="M190 608c-24 12 -35 18 -50 18c-20 0 -32 -12 -37 -36h-36c4 52 32 83 76 83c23 0 41 -8 66 -23c24 -12 35 -18 50 -18c20 0 32 12 36 36h37c-4 -52 -32 -83 -76 -83c-23 0 -41 8 -66 23z" />
    </font>
</defs>
</svg>
